<svg xmlns="http://www.w3.org/2000/svg" xmlns:xlink="http://www.w3.org/1999/xlink" width="624" height="297.6" version="1.1" viewBox="0 0 468 223.2"><metadata><rdf:RDF xmlns:cc="http://creativecommons.org/ns#" xmlns:dc="http://purl.org/dc/elements/1.1/" xmlns:rdf="http://www.w3.org/1999/02/22-rdf-syntax-ns#"><cc:Work><dc:type rdf:resource="http://purl.org/dc/dcmitype/StillImage"/><dc:date>2021-12-26T13:05:02.780142</dc:date><dc:format>image/svg+xml</dc:format><dc:creator><cc:Agent><dc:title>Matplotlib v3.4.3, https://matplotlib.org/</dc:title></cc:Agent></dc:creator></cc:Work></rdf:RDF></metadata><defs><style type="text/css">*{stroke-linecap:butt;stroke-linejoin:round}</style></defs><g id="figure_1"><g id="patch_1"><path d="M 0 223.2 L 468 223.2 L 468 0 L 0 0 z" style="fill:none"/></g><g id="axes_1"><g id="patch_2"><path d="M 47.675 177.4 L 227.1625 177.4 L 227.1625 10.8 L 47.675 10.8 z" style="fill:#fff"/></g><g id="matplotlib.axis_1"><g id="xtick_1"><g id="line2d_1"><defs><path id="m54d6cefcd5" d="M 0 0 L 0 3.5" style="stroke:#000;stroke-width:.8"/></defs><g><use style="stroke:#000;stroke-width:.8" x="55.834" y="177.4" xlink:href="#m54d6cefcd5"/></g></g><g id="text_1"><g transform="translate(52.652273 191.998438)scale(0.1 -0.1)"><defs><path id="DejaVuSans-30" d="M 2034 4250 Q 1547 4250 1301 3770 Q 1056 3291 1056 2328 Q 1056 1369 1301 889 Q 1547 409 2034 409 Q 2525 409 2770 889 Q 3016 1369 3016 2328 Q 3016 3291 2770 3770 Q 2525 4250 2034 4250 z M 2034 4750 Q 2819 4750 3233 4129 Q 3647 3509 3647 2328 Q 3647 1150 3233 529 Q 2819 -91 2034 -91 Q 1250 -91 836 529 Q 422 1150 422 2328 Q 422 3509 836 4129 Q 1250 4750 2034 4750 z" transform="scale(0.015625)"/></defs><use xlink:href="#DejaVuSans-30"/></g></g></g><g id="xtick_2"><g id="line2d_2"><g><use style="stroke:#000;stroke-width:.8" x="102.454" y="177.4" xlink:href="#m54d6cefcd5"/></g></g><g id="text_2"><g transform="translate(99.272403 191.998438)scale(0.1 -0.1)"><defs><path id="DejaVuSans-32" d="M 1228 531 L 3431 531 L 3431 0 L 469 0 L 469 531 Q 828 903 1448 1529 Q 2069 2156 2228 2338 Q 2531 2678 2651 2914 Q 2772 3150 2772 3378 Q 2772 3750 2511 3984 Q 2250 4219 1831 4219 Q 1534 4219 1204 4116 Q 875 4013 500 3803 L 500 4441 Q 881 4594 1212 4672 Q 1544 4750 1819 4750 Q 2544 4750 2975 4387 Q 3406 4025 3406 3419 Q 3406 3131 3298 2873 Q 3191 2616 2906 2266 Q 2828 2175 2409 1742 Q 1991 1309 1228 531 z" transform="scale(0.015625)"/></defs><use xlink:href="#DejaVuSans-32"/></g></g></g><g id="xtick_3"><g id="line2d_3"><g><use style="stroke:#000;stroke-width:.8" x="149.074" y="177.4" xlink:href="#m54d6cefcd5"/></g></g><g id="text_3"><g transform="translate(145.892532 191.998438)scale(0.1 -0.1)"><defs><path id="DejaVuSans-34" d="M 2419 4116 L 825 1625 L 2419 1625 L 2419 4116 z M 2253 4666 L 3047 4666 L 3047 1625 L 3713 1625 L 3713 1100 L 3047 1100 L 3047 0 L 2419 0 L 2419 1100 L 313 1100 L 313 1709 L 2253 4666 z" transform="scale(0.015625)"/></defs><use xlink:href="#DejaVuSans-34"/></g></g></g><g id="xtick_4"><g id="line2d_4"><g><use style="stroke:#000;stroke-width:.8" x="195.694" y="177.4" xlink:href="#m54d6cefcd5"/></g></g><g id="text_4"><g transform="translate(192.512662 191.998438)scale(0.1 -0.1)"><defs><path id="DejaVuSans-36" d="M 2113 2584 Q 1688 2584 1439 2293 Q 1191 2003 1191 1497 Q 1191 994 1439 701 Q 1688 409 2113 409 Q 2538 409 2786 701 Q 3034 994 3034 1497 Q 3034 2003 2786 2293 Q 2538 2584 2113 2584 z M 3366 4563 L 3366 3988 Q 3128 4100 2886 4159 Q 2644 4219 2406 4219 Q 1781 4219 1451 3797 Q 1122 3375 1075 2522 Q 1259 2794 1537 2939 Q 1816 3084 2150 3084 Q 2853 3084 3261 2657 Q 3669 2231 3669 1497 Q 3669 778 3244 343 Q 2819 -91 2113 -91 Q 1303 -91 875 529 Q 447 1150 447 2328 Q 447 3434 972 4092 Q 1497 4750 2381 4750 Q 2619 4750 2861 4703 Q 3103 4656 3366 4563 z" transform="scale(0.015625)"/></defs><use xlink:href="#DejaVuSans-36"/></g></g></g><g id="text_5"><g transform="translate(90.216406 205.676563)scale(0.1 -0.1)"><defs><path id="DejaVuSans-4e" d="M 628 4666 L 1478 4666 L 3547 763 L 3547 4666 L 4159 4666 L 4159 0 L 3309 0 L 1241 3903 L 1241 0 L 628 0 L 628 4666 z" transform="scale(0.015625)"/><path id="DejaVuSans-6f" d="M 1959 3097 Q 1497 3097 1228 2736 Q 959 2375 959 1747 Q 959 1119 1226 758 Q 1494 397 1959 397 Q 2419 397 2687 759 Q 2956 1122 2956 1747 Q 2956 2369 2687 2733 Q 2419 3097 1959 3097 z M 1959 3584 Q 2709 3584 3137 3096 Q 3566 2609 3566 1747 Q 3566 888 3137 398 Q 2709 -91 1959 -91 Q 1206 -91 779 398 Q 353 888 353 1747 Q 353 2609 779 3096 Q 1206 3584 1959 3584 z" transform="scale(0.015625)"/><path id="DejaVuSans-2e" d="M 684 794 L 1344 794 L 1344 0 L 684 0 L 684 794 z" transform="scale(0.015625)"/><path id="DejaVuSans-20" transform="scale(0.015625)"/><path id="DejaVuSans-66" d="M 2375 4863 L 2375 4384 L 1825 4384 Q 1516 4384 1395 4259 Q 1275 4134 1275 3809 L 1275 3500 L 2222 3500 L 2222 3053 L 1275 3053 L 1275 0 L 697 0 L 697 3053 L 147 3053 L 147 3500 L 697 3500 L 697 3744 Q 697 4328 969 4595 Q 1241 4863 1831 4863 L 2375 4863 z" transform="scale(0.015625)"/><path id="DejaVuSans-65" d="M 3597 1894 L 3597 1613 L 953 1613 Q 991 1019 1311 708 Q 1631 397 2203 397 Q 2534 397 2845 478 Q 3156 559 3463 722 L 3463 178 Q 3153 47 2828 -22 Q 2503 -91 2169 -91 Q 1331 -91 842 396 Q 353 884 353 1716 Q 353 2575 817 3079 Q 1281 3584 2069 3584 Q 2775 3584 3186 3129 Q 3597 2675 3597 1894 z M 3022 2063 Q 3016 2534 2758 2815 Q 2500 3097 2075 3097 Q 1594 3097 1305 2825 Q 1016 2553 972 2059 L 3022 2063 z" transform="scale(0.015625)"/><path id="DejaVuSans-6e" d="M 3513 2113 L 3513 0 L 2938 0 L 2938 2094 Q 2938 2591 2744 2837 Q 2550 3084 2163 3084 Q 1697 3084 1428 2787 Q 1159 2491 1159 1978 L 1159 0 L 581 0 L 581 3500 L 1159 3500 L 1159 2956 Q 1366 3272 1645 3428 Q 1925 3584 2291 3584 Q 2894 3584 3203 3211 Q 3513 2838 3513 2113 z" transform="scale(0.015625)"/><path id="DejaVuSans-72" d="M 2631 2963 Q 2534 3019 2420 3045 Q 2306 3072 2169 3072 Q 1681 3072 1420 2755 Q 1159 2438 1159 1844 L 1159 0 L 581 0 L 581 3500 L 1159 3500 L 1159 2956 Q 1341 3275 1631 3429 Q 1922 3584 2338 3584 Q 2397 3584 2469 3576 Q 2541 3569 2628 3553 L 2631 2963 z" transform="scale(0.015625)"/><path id="DejaVuSans-67" d="M 2906 1791 Q 2906 2416 2648 2759 Q 2391 3103 1925 3103 Q 1463 3103 1205 2759 Q 947 2416 947 1791 Q 947 1169 1205 825 Q 1463 481 1925 481 Q 2391 481 2648 825 Q 2906 1169 2906 1791 z M 3481 434 Q 3481 -459 3084 -895 Q 2688 -1331 1869 -1331 Q 1566 -1331 1297 -1286 Q 1028 -1241 775 -1147 L 775 -588 Q 1028 -725 1275 -790 Q 1522 -856 1778 -856 Q 2344 -856 2625 -561 Q 2906 -266 2906 331 L 2906 616 Q 2728 306 2450 153 Q 2172 0 1784 0 Q 1141 0 747 490 Q 353 981 353 1791 Q 353 2603 747 3093 Q 1141 3584 1784 3584 Q 2172 3584 2450 3431 Q 2728 3278 2906 2969 L 2906 3500 L 3481 3500 L 3481 434 z" transform="scale(0.015625)"/><path id="DejaVuSans-79" d="M 2059 -325 Q 1816 -950 1584 -1140 Q 1353 -1331 966 -1331 L 506 -1331 L 506 -850 L 844 -850 Q 1081 -850 1212 -737 Q 1344 -625 1503 -206 L 1606 56 L 191 3500 L 800 3500 L 1894 763 L 2988 3500 L 3597 3500 L 2059 -325 z" transform="scale(0.015625)"/><path id="DejaVuSans-6c" d="M 603 4863 L 1178 4863 L 1178 0 L 603 0 L 603 4863 z" transform="scale(0.015625)"/><path id="DejaVuSans-76" d="M 191 3500 L 800 3500 L 1894 563 L 2988 3500 L 3597 3500 L 2284 0 L 1503 0 L 191 3500 z" transform="scale(0.015625)"/></defs><use xlink:href="#DejaVuSans-4e"/><use x="74.805" xlink:href="#DejaVuSans-6f"/><use x="134.236" xlink:href="#DejaVuSans-2e"/><use x="166.023" xlink:href="#DejaVuSans-20"/><use x="197.811" xlink:href="#DejaVuSans-6f"/><use x="258.992" xlink:href="#DejaVuSans-66"/><use x="294.197" xlink:href="#DejaVuSans-20"/><use x="325.984" xlink:href="#DejaVuSans-65"/><use x="387.508" xlink:href="#DejaVuSans-6e"/><use x="450.887" xlink:href="#DejaVuSans-65"/><use x="512.41" xlink:href="#DejaVuSans-72"/><use x="551.773" xlink:href="#DejaVuSans-67"/><use x="615.25" xlink:href="#DejaVuSans-79"/><use x="674.43" xlink:href="#DejaVuSans-20"/><use x="706.217" xlink:href="#DejaVuSans-6c"/><use x="734" xlink:href="#DejaVuSans-65"/><use x="795.523" xlink:href="#DejaVuSans-76"/><use x="854.703" xlink:href="#DejaVuSans-65"/><use x="916.227" xlink:href="#DejaVuSans-6c"/></g></g></g><g id="matplotlib.axis_2"><g id="ytick_1"><g id="line2d_5"><defs><path id="mfaf9c40ddb" d="M 0 0 L -3.5 0" style="stroke:#000;stroke-width:.8"/></defs><g><use style="stroke:#000;stroke-width:.8" x="47.675" y="170.855" xlink:href="#mfaf9c40ddb"/></g></g><g id="text_6"><g transform="translate(24.771875 174.653907)scale(0.1 -0.1)"><use xlink:href="#DejaVuSans-30"/><use x="63.623" xlink:href="#DejaVuSans-2e"/><use x="95.41" xlink:href="#DejaVuSans-30"/></g></g></g><g id="ytick_2"><g id="line2d_6"><g><use style="stroke:#000;stroke-width:.8" x="47.675" y="143.969" xlink:href="#mfaf9c40ddb"/></g></g><g id="text_7"><g transform="translate(24.771875 147.768627)scale(0.1 -0.1)"><defs><path id="DejaVuSans-31" d="M 794 531 L 1825 531 L 1825 4091 L 703 3866 L 703 4441 L 1819 4666 L 2450 4666 L 2450 531 L 3481 531 L 3481 0 L 794 0 L 794 531 z" transform="scale(0.015625)"/></defs><use xlink:href="#DejaVuSans-30"/><use x="63.623" xlink:href="#DejaVuSans-2e"/><use x="95.41" xlink:href="#DejaVuSans-31"/></g></g></g><g id="ytick_3"><g id="line2d_7"><g><use style="stroke:#000;stroke-width:.8" x="47.675" y="117.084" xlink:href="#mfaf9c40ddb"/></g></g><g id="text_8"><g transform="translate(24.771875 120.883347)scale(0.1 -0.1)"><use xlink:href="#DejaVuSans-30"/><use x="63.623" xlink:href="#DejaVuSans-2e"/><use x="95.41" xlink:href="#DejaVuSans-32"/></g></g></g><g id="ytick_4"><g id="line2d_8"><g><use style="stroke:#000;stroke-width:.8" x="47.675" y="90.199" xlink:href="#mfaf9c40ddb"/></g></g><g id="text_9"><g transform="translate(24.771875 93.998068)scale(0.1 -0.1)"><defs><path id="DejaVuSans-33" d="M 2597 2516 Q 3050 2419 3304 2112 Q 3559 1806 3559 1356 Q 3559 666 3084 287 Q 2609 -91 1734 -91 Q 1441 -91 1130 -33 Q 819 25 488 141 L 488 750 Q 750 597 1062 519 Q 1375 441 1716 441 Q 2309 441 2620 675 Q 2931 909 2931 1356 Q 2931 1769 2642 2001 Q 2353 2234 1838 2234 L 1294 2234 L 1294 2753 L 1863 2753 Q 2328 2753 2575 2939 Q 2822 3125 2822 3475 Q 2822 3834 2567 4026 Q 2313 4219 1838 4219 Q 1578 4219 1281 4162 Q 984 4106 628 3988 L 628 4550 Q 988 4650 1302 4700 Q 1616 4750 1894 4750 Q 2613 4750 3031 4423 Q 3450 4097 3450 3541 Q 3450 3153 3228 2886 Q 3006 2619 2597 2516 z" transform="scale(0.015625)"/></defs><use xlink:href="#DejaVuSans-30"/><use x="63.623" xlink:href="#DejaVuSans-2e"/><use x="95.41" xlink:href="#DejaVuSans-33"/></g></g></g><g id="ytick_5"><g id="line2d_9"><g><use style="stroke:#000;stroke-width:.8" x="47.675" y="63.314" xlink:href="#mfaf9c40ddb"/></g></g><g id="text_10"><g transform="translate(24.771875 67.112788)scale(0.1 -0.1)"><use xlink:href="#DejaVuSans-30"/><use x="63.623" xlink:href="#DejaVuSans-2e"/><use x="95.41" xlink:href="#DejaVuSans-34"/></g></g></g><g id="ytick_6"><g id="line2d_10"><g><use style="stroke:#000;stroke-width:.8" x="47.675" y="36.428" xlink:href="#mfaf9c40ddb"/></g></g><g id="text_11"><g transform="translate(24.771875 40.227508)scale(0.1 -0.1)"><defs><path id="DejaVuSans-35" d="M 691 4666 L 3169 4666 L 3169 4134 L 1269 4134 L 1269 2991 Q 1406 3038 1543 3061 Q 1681 3084 1819 3084 Q 2600 3084 3056 2656 Q 3513 2228 3513 1497 Q 3513 744 3044 326 Q 2575 -91 1722 -91 Q 1428 -91 1123 -41 Q 819 9 494 109 L 494 744 Q 775 591 1075 516 Q 1375 441 1709 441 Q 2250 441 2565 725 Q 2881 1009 2881 1497 Q 2881 1984 2565 2268 Q 2250 2553 1709 2553 Q 1456 2553 1204 2497 Q 953 2441 691 2322 L 691 4666 z" transform="scale(0.015625)"/></defs><use xlink:href="#DejaVuSans-30"/><use x="63.623" xlink:href="#DejaVuSans-2e"/><use x="95.41" xlink:href="#DejaVuSans-35"/></g></g></g><g id="text_12"><g transform="translate(18.692187 122.51875)rotate(-90)scale(0.1 -0.1)"><defs><path id="DejaVuSans-4f" d="M 2522 4238 Q 1834 4238 1429 3725 Q 1025 3213 1025 2328 Q 1025 1447 1429 934 Q 1834 422 2522 422 Q 3209 422 3611 934 Q 4013 1447 4013 2328 Q 4013 3213 3611 3725 Q 3209 4238 2522 4238 z M 2522 4750 Q 3503 4750 4090 4092 Q 4678 3434 4678 2328 Q 4678 1225 4090 567 Q 3503 -91 2522 -91 Q 1538 -91 948 565 Q 359 1222 359 2328 Q 359 3434 948 4092 Q 1538 4750 2522 4750 z" transform="scale(0.015625)"/><path id="DejaVuSans-63" d="M 3122 3366 L 3122 2828 Q 2878 2963 2633 3030 Q 2388 3097 2138 3097 Q 1578 3097 1268 2742 Q 959 2388 959 1747 Q 959 1106 1268 751 Q 1578 397 2138 397 Q 2388 397 2633 464 Q 2878 531 3122 666 L 3122 134 Q 2881 22 2623 -34 Q 2366 -91 2075 -91 Q 1284 -91 818 406 Q 353 903 353 1747 Q 353 2603 823 3093 Q 1294 3584 2113 3584 Q 2378 3584 2631 3529 Q 2884 3475 3122 3366 z" transform="scale(0.015625)"/><path id="DejaVuSans-75" d="M 544 1381 L 544 3500 L 1119 3500 L 1119 1403 Q 1119 906 1312 657 Q 1506 409 1894 409 Q 2359 409 2629 706 Q 2900 1003 2900 1516 L 2900 3500 L 3475 3500 L 3475 0 L 2900 0 L 2900 538 Q 2691 219 2414 64 Q 2138 -91 1772 -91 Q 1169 -91 856 284 Q 544 659 544 1381 z M 1991 3584 L 1991 3584 z" transform="scale(0.015625)"/><path id="DejaVuSans-70" d="M 1159 525 L 1159 -1331 L 581 -1331 L 581 3500 L 1159 3500 L 1159 2969 Q 1341 3281 1617 3432 Q 1894 3584 2278 3584 Q 2916 3584 3314 3078 Q 3713 2572 3713 1747 Q 3713 922 3314 415 Q 2916 -91 2278 -91 Q 1894 -91 1617 61 Q 1341 213 1159 525 z M 3116 1747 Q 3116 2381 2855 2742 Q 2594 3103 2138 3103 Q 1681 3103 1420 2742 Q 1159 2381 1159 1747 Q 1159 1113 1420 752 Q 1681 391 2138 391 Q 2594 391 2855 752 Q 3116 1113 3116 1747 z" transform="scale(0.015625)"/><path id="DejaVuSans-61" d="M 2194 1759 Q 1497 1759 1228 1600 Q 959 1441 959 1056 Q 959 750 1161 570 Q 1363 391 1709 391 Q 2188 391 2477 730 Q 2766 1069 2766 1631 L 2766 1759 L 2194 1759 z M 3341 1997 L 3341 0 L 2766 0 L 2766 531 Q 2569 213 2275 61 Q 1981 -91 1556 -91 Q 1019 -91 701 211 Q 384 513 384 1019 Q 384 1609 779 1909 Q 1175 2209 1959 2209 L 2766 2209 L 2766 2266 Q 2766 2663 2505 2880 Q 2244 3097 1772 3097 Q 1472 3097 1187 3025 Q 903 2953 641 2809 L 641 3341 Q 956 3463 1253 3523 Q 1550 3584 1831 3584 Q 2591 3584 2966 3190 Q 3341 2797 3341 1997 z" transform="scale(0.015625)"/><path id="DejaVuSans-74" d="M 1172 4494 L 1172 3500 L 2356 3500 L 2356 3053 L 1172 3053 L 1172 1153 Q 1172 725 1289 603 Q 1406 481 1766 481 L 2356 481 L 2356 0 L 1766 0 Q 1100 0 847 248 Q 594 497 594 1153 L 594 3053 L 172 3053 L 172 3500 L 594 3500 L 594 4494 L 1172 4494 z" transform="scale(0.015625)"/><path id="DejaVuSans-69" d="M 603 3500 L 1178 3500 L 1178 0 L 603 0 L 603 3500 z M 603 4863 L 1178 4863 L 1178 4134 L 603 4134 L 603 4863 z" transform="scale(0.015625)"/></defs><use xlink:href="#DejaVuSans-4f"/><use x="78.711" xlink:href="#DejaVuSans-63"/><use x="133.691" xlink:href="#DejaVuSans-63"/><use x="188.672" xlink:href="#DejaVuSans-75"/><use x="252.051" xlink:href="#DejaVuSans-70"/><use x="315.527" xlink:href="#DejaVuSans-61"/><use x="376.807" xlink:href="#DejaVuSans-74"/><use x="416.016" xlink:href="#DejaVuSans-69"/><use x="443.799" xlink:href="#DejaVuSans-6f"/><use x="504.98" xlink:href="#DejaVuSans-6e"/></g></g></g><g id="line2d_11"><path d="M 55.833523 18.372727 L 79.143588 114.75971 L 102.453653 150.218499 L 125.763718 150.218499 L 149.073782 163.263058 L 172.383847 163.263058 L 195.693912 168.061884 L 219.003977 169.827273" clip-path="url(#pf23ead0c79)" style="fill:none;stroke:#000;stroke-dasharray:5.55,2.4;stroke-dashoffset:0;stroke-width:1.5"/></g><g id="line2d_12"><path d="M 55.833523 33.112671 L 79.143588 114.572622 L 102.453653 146.719216 L 125.763718 146.724661 L 149.073782 160.673749 L 172.383847 160.442041 L 195.693912 166.619589 L 219.003977 169.120159" clip-path="url(#pf23ead0c79)" style="fill:none;stroke:#00f;stroke-linecap:square;stroke-width:1.5"/><defs><path id="m634a05e748" d="M 0 4.25 C 1.127113 4.25 2.208214 3.802193 3.005204 3.005204 C 3.802193 2.208214 4.25 1.127113 4.25 0 C 4.25 -1.127113 3.802193 -2.208214 3.005204 -3.005204 C 2.208214 -3.802193 1.127113 -4.25 0 -4.25 C -1.127113 -4.25 -2.208214 -3.802193 -3.005204 -3.005204 C -3.802193 -2.208214 -4.25 -1.127113 -4.25 0 C -4.25 1.127113 -3.802193 2.208214 -3.005204 3.005204 C -2.208214 3.802193 -1.127113 4.25 0 4.25 z" style="stroke:#00f"/></defs><g clip-path="url(#pf23ead0c79)"><use style="fill:#fff;stroke:#00f" x="55.834" y="33.113" xlink:href="#m634a05e748"/><use style="fill:#fff;stroke:#00f" x="79.144" y="114.573" xlink:href="#m634a05e748"/><use style="fill:#fff;stroke:#00f" x="102.454" y="146.719" xlink:href="#m634a05e748"/><use style="fill:#fff;stroke:#00f" x="125.764" y="146.725" xlink:href="#m634a05e748"/><use style="fill:#fff;stroke:#00f" x="149.074" y="160.674" xlink:href="#m634a05e748"/><use style="fill:#fff;stroke:#00f" x="172.384" y="160.442" xlink:href="#m634a05e748"/><use style="fill:#fff;stroke:#00f" x="195.694" y="166.62" xlink:href="#m634a05e748"/><use style="fill:#fff;stroke:#00f" x="219.004" y="169.12" xlink:href="#m634a05e748"/></g></g><g id="line2d_13"><path d="M 55.833523 95.851482 L 79.143588 126.796486 L 102.453653 138.912501 L 125.763718 134.320337 L 149.073782 146.84408 L 172.383847 143.900784 L 195.693912 152.503417 L 219.003977 158.855619" clip-path="url(#pf23ead0c79)" style="fill:none;stroke:green;stroke-linecap:square;stroke-width:1.5"/><defs><path id="mbfa87abccc" d="M -0 4.949747 L 4.949747 0 L 0 -4.949747 L -4.949747 -0 z" style="stroke:green;stroke-linejoin:miter"/></defs><g clip-path="url(#pf23ead0c79)"><use style="fill:#fff;stroke:green;stroke-linejoin:miter" x="55.834" y="95.851" xlink:href="#mbfa87abccc"/><use style="fill:#fff;stroke:green;stroke-linejoin:miter" x="79.144" y="126.796" xlink:href="#mbfa87abccc"/><use style="fill:#fff;stroke:green;stroke-linejoin:miter" x="102.454" y="138.913" xlink:href="#mbfa87abccc"/><use style="fill:#fff;stroke:green;stroke-linejoin:miter" x="125.764" y="134.32" xlink:href="#mbfa87abccc"/><use style="fill:#fff;stroke:green;stroke-linejoin:miter" x="149.074" y="146.844" xlink:href="#mbfa87abccc"/><use style="fill:#fff;stroke:green;stroke-linejoin:miter" x="172.384" y="143.901" xlink:href="#mbfa87abccc"/><use style="fill:#fff;stroke:green;stroke-linejoin:miter" x="195.694" y="152.503" xlink:href="#mbfa87abccc"/><use style="fill:#fff;stroke:green;stroke-linejoin:miter" x="219.004" y="158.856" xlink:href="#mbfa87abccc"/></g></g><g id="line2d_14"><path d="M 55.833523 38.591285 L 79.143588 114.149506 L 102.453653 147.369067 L 125.763718 145.244529 L 149.073782 158.555688 L 172.383847 160.229633 L 195.693912 166.005219 L 219.003977 167.83978" clip-path="url(#pf23ead0c79)" style="fill:none;stroke:red;stroke-linecap:square;stroke-width:1.5"/><defs><path id="meacdf5fff7" d="M -3.75 3.75 L 3.75 3.75 L 3.75 -3.75 L -3.75 -3.75 z" style="stroke:red;stroke-linejoin:miter"/></defs><g clip-path="url(#pf23ead0c79)"><use style="fill:#fff;stroke:red;stroke-linejoin:miter" x="55.834" y="38.591" xlink:href="#meacdf5fff7"/><use style="fill:#fff;stroke:red;stroke-linejoin:miter" x="79.144" y="114.15" xlink:href="#meacdf5fff7"/><use style="fill:#fff;stroke:red;stroke-linejoin:miter" x="102.454" y="147.369" xlink:href="#meacdf5fff7"/><use style="fill:#fff;stroke:red;stroke-linejoin:miter" x="125.764" y="145.245" xlink:href="#meacdf5fff7"/><use style="fill:#fff;stroke:red;stroke-linejoin:miter" x="149.074" y="158.556" xlink:href="#meacdf5fff7"/><use style="fill:#fff;stroke:red;stroke-linejoin:miter" x="172.384" y="160.23" xlink:href="#meacdf5fff7"/><use style="fill:#fff;stroke:red;stroke-linejoin:miter" x="195.694" y="166.005" xlink:href="#meacdf5fff7"/><use style="fill:#fff;stroke:red;stroke-linejoin:miter" x="219.004" y="167.84" xlink:href="#meacdf5fff7"/></g></g><g id="patch_3"><path d="M 47.675 177.4 L 47.675 10.8" style="fill:none;stroke:#000;stroke-linecap:square;stroke-linejoin:miter;stroke-width:.8"/></g><g id="patch_4"><path d="M 227.1625 177.4 L 227.1625 10.8" style="fill:none;stroke:#000;stroke-linecap:square;stroke-linejoin:miter;stroke-width:.8"/></g><g id="patch_5"><path d="M 47.675 177.4 L 227.1625 177.4" style="fill:none;stroke:#000;stroke-linecap:square;stroke-linejoin:miter;stroke-width:.8"/></g><g id="patch_6"><path d="M 47.675 10.8 L 227.1625 10.8" style="fill:none;stroke:#000;stroke-linecap:square;stroke-linejoin:miter;stroke-width:.8"/></g><g id="legend_1"><g id="patch_7"><path d="M 116.70625 77.5125 L 220.1625 77.5125 Q 222.1625 77.5125 222.1625 75.5125 L 222.1625 17.8 Q 222.1625 15.8 220.1625 15.8 L 116.70625 15.8 Q 114.70625 15.8 114.70625 17.8 L 114.70625 75.5125 Q 114.70625 77.5125 116.70625 77.5125 z" style="fill:#fff;opacity:.8;stroke:#ccc;stroke-linejoin:miter"/></g><g id="line2d_15"><path d="M 118.70625 23.898438 L 138.70625 23.898438" style="fill:none;stroke:#000;stroke-dasharray:5.55,2.4;stroke-dashoffset:0;stroke-width:1.5"/></g><g id="text_13"><g transform="translate(146.70625 27.398438)scale(0.1 -0.1)"><defs><path id="DejaVuSans-78" d="M 3513 3500 L 2247 1797 L 3578 0 L 2900 0 L 1881 1375 L 863 0 L 184 0 L 1544 1831 L 300 3500 L 978 3500 L 1906 2253 L 2834 3500 L 3513 3500 z" transform="scale(0.015625)"/></defs><use xlink:href="#DejaVuSans-65"/><use x="59.773" xlink:href="#DejaVuSans-78"/><use x="118.953" xlink:href="#DejaVuSans-61"/><use x="180.232" xlink:href="#DejaVuSans-63"/><use x="235.213" xlink:href="#DejaVuSans-74"/></g></g><g id="line2d_17"><path d="M 118.70625 38.576563 L 138.70625 38.576563" style="fill:none;stroke:#00f;stroke-linecap:square;stroke-width:1.5"/></g><g id="line2d_18"><g><use style="fill:#fff;stroke:#00f" x="128.706" y="38.577" xlink:href="#m634a05e748"/></g></g><g id="text_14"><g transform="translate(146.70625 42.076563)scale(0.1 -0.1)"><defs><path id="DejaVuSans-73" d="M 2834 3397 L 2834 2853 Q 2591 2978 2328 3040 Q 2066 3103 1784 3103 Q 1356 3103 1142 2972 Q 928 2841 928 2578 Q 928 2378 1081 2264 Q 1234 2150 1697 2047 L 1894 2003 Q 2506 1872 2764 1633 Q 3022 1394 3022 966 Q 3022 478 2636 193 Q 2250 -91 1575 -91 Q 1294 -91 989 -36 Q 684 19 347 128 L 347 722 Q 666 556 975 473 Q 1284 391 1588 391 Q 1994 391 2212 530 Q 2431 669 2431 922 Q 2431 1156 2273 1281 Q 2116 1406 1581 1522 L 1381 1569 Q 847 1681 609 1914 Q 372 2147 372 2553 Q 372 3047 722 3315 Q 1072 3584 1716 3584 Q 2034 3584 2315 3537 Q 2597 3491 2834 3397 z" transform="scale(0.015625)"/></defs><use xlink:href="#DejaVuSans-61"/><use x="61.279" xlink:href="#DejaVuSans-76"/><use x="120.459" xlink:href="#DejaVuSans-72"/><use x="159.822" xlink:href="#DejaVuSans-67"/><use x="223.299" xlink:href="#DejaVuSans-20"/><use x="255.086" xlink:href="#DejaVuSans-6e"/><use x="318.465" xlink:href="#DejaVuSans-6f"/><use x="379.646" xlink:href="#DejaVuSans-69"/><use x="407.43" xlink:href="#DejaVuSans-73"/><use x="459.529" xlink:href="#DejaVuSans-65"/><use x="521.053" xlink:href="#DejaVuSans-6c"/><use x="548.836" xlink:href="#DejaVuSans-65"/><use x="610.359" xlink:href="#DejaVuSans-73"/><use x="662.459" xlink:href="#DejaVuSans-73"/></g></g><g id="line2d_19"><path d="M 118.70625 53.254688 L 138.70625 53.254688" style="fill:none;stroke:green;stroke-linecap:square;stroke-width:1.5"/></g><g id="line2d_20"><g><use style="fill:#fff;stroke:green;stroke-linejoin:miter" x="128.706" y="53.255" xlink:href="#mbfa87abccc"/></g></g><g id="text_15"><g transform="translate(146.70625 56.754688)scale(0.1 -0.1)"><use xlink:href="#DejaVuSans-61"/><use x="61.279" xlink:href="#DejaVuSans-76"/><use x="120.459" xlink:href="#DejaVuSans-72"/><use x="159.822" xlink:href="#DejaVuSans-67"/><use x="223.299" xlink:href="#DejaVuSans-20"/><use x="255.086" xlink:href="#DejaVuSans-6e"/><use x="318.465" xlink:href="#DejaVuSans-6f"/><use x="379.646" xlink:href="#DejaVuSans-69"/><use x="407.43" xlink:href="#DejaVuSans-73"/><use x="459.529" xlink:href="#DejaVuSans-79"/></g></g><g id="line2d_21"><path d="M 118.70625 67.932813 L 138.70625 67.932813" style="fill:none;stroke:red;stroke-linecap:square;stroke-width:1.5"/></g><g id="line2d_22"><g><use style="fill:#fff;stroke:red;stroke-linejoin:miter" x="128.706" y="67.933" xlink:href="#meacdf5fff7"/></g></g><g id="text_16"><g transform="translate(146.70625 71.432813)scale(0.1 -0.1)"><defs><path id="DejaVuSans-6d" d="M 3328 2828 Q 3544 3216 3844 3400 Q 4144 3584 4550 3584 Q 5097 3584 5394 3201 Q 5691 2819 5691 2113 L 5691 0 L 5113 0 L 5113 2094 Q 5113 2597 4934 2840 Q 4756 3084 4391 3084 Q 3944 3084 3684 2787 Q 3425 2491 3425 1978 L 3425 0 L 2847 0 L 2847 2094 Q 2847 2600 2669 2842 Q 2491 3084 2119 3084 Q 1678 3084 1418 2786 Q 1159 2488 1159 1978 L 1159 0 L 581 0 L 581 3500 L 1159 3500 L 1159 2956 Q 1356 3278 1631 3431 Q 1906 3584 2284 3584 Q 2666 3584 2933 3390 Q 3200 3197 3328 2828 z" transform="scale(0.015625)"/></defs><use xlink:href="#DejaVuSans-6f"/><use x="61.182" xlink:href="#DejaVuSans-70"/><use x="124.658" xlink:href="#DejaVuSans-74"/><use x="163.867" xlink:href="#DejaVuSans-6d"/><use x="261.279" xlink:href="#DejaVuSans-20"/><use x="293.066" xlink:href="#DejaVuSans-6e"/><use x="356.445" xlink:href="#DejaVuSans-6f"/><use x="417.627" xlink:href="#DejaVuSans-69"/><use x="445.41" xlink:href="#DejaVuSans-73"/><use x="497.51" xlink:href="#DejaVuSans-79"/></g></g></g></g><g id="axes_2"><g id="patch_8"><path d="M 277.7125 177.4 L 457.2 177.4 L 457.2 10.8 L 277.7125 10.8 z" style="fill:#fff"/></g><g id="matplotlib.axis_3"><g id="xtick_5"><g id="line2d_23"><g><use style="stroke:#000;stroke-width:.8" x="285.871" y="177.4" xlink:href="#m54d6cefcd5"/></g></g><g id="text_17"><g transform="translate(282.689773 191.998438)scale(0.1 -0.1)"><use xlink:href="#DejaVuSans-30"/></g></g></g><g id="xtick_6"><g id="line2d_24"><g><use style="stroke:#000;stroke-width:.8" x="340.261" y="177.4" xlink:href="#m54d6cefcd5"/></g></g><g id="text_18"><g transform="translate(337.079924 191.998438)scale(0.1 -0.1)"><use xlink:href="#DejaVuSans-31"/></g></g></g><g id="xtick_7"><g id="line2d_25"><g><use style="stroke:#000;stroke-width:.8" x="394.651" y="177.4" xlink:href="#m54d6cefcd5"/></g></g><g id="text_19"><g transform="translate(391.470076 191.998438)scale(0.1 -0.1)"><use xlink:href="#DejaVuSans-32"/></g></g></g><g id="xtick_8"><g id="line2d_26"><g><use style="stroke:#000;stroke-width:.8" x="449.041" y="177.4" xlink:href="#m54d6cefcd5"/></g></g><g id="text_20"><g transform="translate(445.860227 191.998438)scale(0.1 -0.1)"><use xlink:href="#DejaVuSans-33"/></g></g></g><g id="text_21"><g transform="translate(320.35625 205.778125)scale(0.1 -0.1)"><defs><path id="DejaVuSans-49" d="M 628 4666 L 1259 4666 L 1259 0 L 628 0 L 628 4666 z" transform="scale(0.015625)"/><path id="DejaVuSans-Oblique-3b2" d="M 872 216 L 572 -1331 L -6 -1331 L 928 3478 Q 1206 4903 2538 4903 Q 3888 4903 3659 3700 Q 3503 2844 2894 2531 Q 3713 2250 3553 1416 Q 3272 -69 1759 -66 Q 1097 -63 872 216 z M 1019 966 Q 1259 422 1875 425 Q 2775 425 2966 1406 Q 3138 2288 1675 2219 L 1778 2750 Q 2909 2731 3106 3750 Q 3241 4438 2509 4434 Q 1691 4434 1503 3459 L 1019 966 z" transform="scale(0.015625)"/></defs><use transform="translate(0 0.390625)" xlink:href="#DejaVuSans-49"/><use transform="translate(29.492188 0.390625)" xlink:href="#DejaVuSans-6e"/><use transform="translate(92.871094 0.390625)" xlink:href="#DejaVuSans-76"/><use transform="translate(152.050781 0.390625)" xlink:href="#DejaVuSans-2e"/><use transform="translate(183.837891 0.390625)" xlink:href="#DejaVuSans-20"/><use transform="translate(215.625 0.390625)" xlink:href="#DejaVuSans-74"/><use transform="translate(254.833984 0.390625)" xlink:href="#DejaVuSans-65"/><use transform="translate(316.357422 0.390625)" xlink:href="#DejaVuSans-6d"/><use transform="translate(413.769531 0.390625)" xlink:href="#DejaVuSans-70"/><use transform="translate(477.246094 0.390625)" xlink:href="#DejaVuSans-65"/><use transform="translate(538.769531 0.390625)" xlink:href="#DejaVuSans-72"/><use transform="translate(579.882812 0.390625)" xlink:href="#DejaVuSans-61"/><use transform="translate(641.162109 0.390625)" xlink:href="#DejaVuSans-74"/><use transform="translate(680.371094 0.390625)" xlink:href="#DejaVuSans-75"/><use transform="translate(743.75 0.390625)" xlink:href="#DejaVuSans-72"/><use transform="translate(784.863281 0.390625)" xlink:href="#DejaVuSans-65"/><use transform="translate(846.386719 0.390625)" xlink:href="#DejaVuSans-20"/><use transform="translate(878.173828 0.390625)" xlink:href="#DejaVuSans-Oblique-3b2"/></g></g></g><g id="matplotlib.axis_4"><g id="ytick_7"><g id="line2d_27"><g><use style="stroke:#000;stroke-width:.8" x="277.712" y="169.979" xlink:href="#mfaf9c40ddb"/></g></g><g id="text_22"><g transform="translate(255.970312 173.777928)scale(0.1 -0.1)"><defs><path id="DejaVuSans-2212" d="M 678 2272 L 4684 2272 L 4684 1741 L 678 1741 L 678 2272 z" transform="scale(0.015625)"/></defs><use xlink:href="#DejaVuSans-2212"/><use x="83.789" xlink:href="#DejaVuSans-35"/></g></g></g><g id="ytick_8"><g id="line2d_28"><g><use style="stroke:#000;stroke-width:.8" x="277.712" y="139.658" xlink:href="#mfaf9c40ddb"/></g></g><g id="text_23"><g transform="translate(255.970312 143.456731)scale(0.1 -0.1)"><use xlink:href="#DejaVuSans-2212"/><use x="83.789" xlink:href="#DejaVuSans-34"/></g></g></g><g id="ytick_9"><g id="line2d_29"><g><use style="stroke:#000;stroke-width:.8" x="277.712" y="109.336" xlink:href="#mfaf9c40ddb"/></g></g><g id="text_24"><g transform="translate(255.970312 113.135535)scale(0.1 -0.1)"><use xlink:href="#DejaVuSans-2212"/><use x="83.789" xlink:href="#DejaVuSans-33"/></g></g></g><g id="ytick_10"><g id="line2d_30"><g><use style="stroke:#000;stroke-width:.8" x="277.712" y="79.015" xlink:href="#mfaf9c40ddb"/></g></g><g id="text_25"><g transform="translate(255.970312 82.814339)scale(0.1 -0.1)"><use xlink:href="#DejaVuSans-2212"/><use x="83.789" xlink:href="#DejaVuSans-32"/></g></g></g><g id="ytick_11"><g id="line2d_31"><g><use style="stroke:#000;stroke-width:.8" x="277.712" y="48.694" xlink:href="#mfaf9c40ddb"/></g></g><g id="text_26"><g transform="translate(255.970312 52.493142)scale(0.1 -0.1)"><use xlink:href="#DejaVuSans-2212"/><use x="83.789" xlink:href="#DejaVuSans-31"/></g></g></g><g id="ytick_12"><g id="line2d_32"><g><use style="stroke:#000;stroke-width:.8" x="277.712" y="18.373" xlink:href="#mfaf9c40ddb"/></g></g><g id="text_27"><g transform="translate(264.35 22.171946)scale(0.1 -0.1)"><use xlink:href="#DejaVuSans-30"/></g></g></g><g id="text_28"><g transform="translate(249.870312 123.55)rotate(-90)scale(0.1 -0.1)"><defs><path id="DejaVuSans-45" d="M 628 4666 L 3578 4666 L 3578 4134 L 1259 4134 L 1259 2753 L 3481 2753 L 3481 2222 L 1259 2222 L 1259 531 L 3634 531 L 3634 0 L 628 0 L 628 4666 z" transform="scale(0.015625)"/><path id="DejaVuSans-Oblique-45" d="M 1081 4666 L 4031 4666 L 3928 4134 L 1606 4134 L 1338 2753 L 3566 2753 L 3463 2222 L 1234 2222 L 909 531 L 3284 531 L 3181 0 L 172 0 L 1081 4666 z" transform="scale(0.015625)"/><path id="DejaVuSans-28" d="M 1984 4856 Q 1566 4138 1362 3434 Q 1159 2731 1159 2009 Q 1159 1288 1364 580 Q 1569 -128 1984 -844 L 1484 -844 Q 1016 -109 783 600 Q 550 1309 550 2009 Q 550 2706 781 3412 Q 1013 4119 1484 4856 L 1984 4856 z" transform="scale(0.015625)"/><path id="DejaVuSans-29" d="M 513 4856 L 1013 4856 Q 1481 4119 1714 3412 Q 1947 2706 1947 2009 Q 1947 1309 1714 600 Q 1481 -109 1013 -844 L 513 -844 Q 928 -128 1133 580 Q 1338 1288 1338 2009 Q 1338 2731 1133 3434 Q 928 4138 513 4856 z" transform="scale(0.015625)"/></defs><use transform="translate(0 0.390625)" xlink:href="#DejaVuSans-45"/><use transform="translate(63.183594 0.390625)" xlink:href="#DejaVuSans-6e"/><use transform="translate(126.5625 0.390625)" xlink:href="#DejaVuSans-65"/><use transform="translate(188.085938 0.390625)" xlink:href="#DejaVuSans-72"/><use transform="translate(229.199219 0.390625)" xlink:href="#DejaVuSans-67"/><use transform="translate(292.675781 0.390625)" xlink:href="#DejaVuSans-79"/><use transform="translate(351.855469 0.390625)" xlink:href="#DejaVuSans-20"/><use transform="translate(383.642578 0.390625)" xlink:href="#DejaVuSans-Oblique-45"/><use transform="translate(446.826172 0.390625)" xlink:href="#DejaVuSans-28"/><use transform="translate(485.839844 0.390625)" xlink:href="#DejaVuSans-Oblique-3b2"/><use transform="translate(549.658203 0.390625)" xlink:href="#DejaVuSans-29"/></g></g></g><g id="line2d_33"><path d="M 285.871023 18.372727 L 313.066098 124.754456 L 340.261174 158.387051 L 367.45625 166.502907 L 394.651326 168.806636 L 421.846402 169.561826 L 449.041477 169.827273" clip-path="url(#peaeb13994a)" style="fill:none;stroke:#000;stroke-dasharray:5.55,2.4;stroke-dashoffset:0;stroke-width:1.5"/></g><g id="line2d_34"><path d="M 285.871023 18.372727 L 313.066098 115.797687 L 340.261174 143.837381 L 367.45625 151.546952 L 394.651326 154.452629 L 421.846402 155.665725 L 449.041477 156.064596" clip-path="url(#peaeb13994a)" style="fill:none;stroke:#00f;stroke-linecap:square;stroke-width:1.5"/><g clip-path="url(#peaeb13994a)"><use style="fill:#fff;stroke:#00f" x="285.871" y="18.373" xlink:href="#m634a05e748"/><use style="fill:#fff;stroke:#00f" x="313.066" y="115.798" xlink:href="#m634a05e748"/><use style="fill:#fff;stroke:#00f" x="340.261" y="143.837" xlink:href="#m634a05e748"/><use style="fill:#fff;stroke:#00f" x="367.456" y="151.547" xlink:href="#m634a05e748"/><use style="fill:#fff;stroke:#00f" x="394.651" y="154.453" xlink:href="#m634a05e748"/><use style="fill:#fff;stroke:#00f" x="421.846" y="155.666" xlink:href="#m634a05e748"/><use style="fill:#fff;stroke:#00f" x="449.041" y="156.065" xlink:href="#m634a05e748"/></g></g><g id="line2d_35"><path d="M 285.871023 18.372727 L 313.066098 64.573416 L 340.261174 76.422207 L 367.45625 79.739334 L 394.651326 81.538299 L 421.846402 81.722646 L 449.041477 81.927909" clip-path="url(#peaeb13994a)" style="fill:none;stroke:green;stroke-linecap:square;stroke-width:1.5"/><g clip-path="url(#peaeb13994a)"><use style="fill:#fff;stroke:green;stroke-linejoin:miter" x="285.871" y="18.373" xlink:href="#mbfa87abccc"/><use style="fill:#fff;stroke:green;stroke-linejoin:miter" x="313.066" y="64.573" xlink:href="#mbfa87abccc"/><use style="fill:#fff;stroke:green;stroke-linejoin:miter" x="340.261" y="76.422" xlink:href="#mbfa87abccc"/><use style="fill:#fff;stroke:green;stroke-linejoin:miter" x="367.456" y="79.739" xlink:href="#mbfa87abccc"/><use style="fill:#fff;stroke:green;stroke-linejoin:miter" x="394.651" y="81.538" xlink:href="#mbfa87abccc"/><use style="fill:#fff;stroke:green;stroke-linejoin:miter" x="421.846" y="81.723" xlink:href="#mbfa87abccc"/><use style="fill:#fff;stroke:green;stroke-linejoin:miter" x="449.041" y="81.928" xlink:href="#mbfa87abccc"/></g></g><g id="line2d_36"><path d="M 285.871023 18.372727 L 313.066098 111.752394 L 340.261174 144.514397 L 367.45625 151.830221 L 394.651326 150.45547 L 421.846402 140.158204 L 449.041477 150.020584" clip-path="url(#peaeb13994a)" style="fill:none;stroke:red;stroke-linecap:square;stroke-width:1.5"/><g clip-path="url(#peaeb13994a)"><use style="fill:#fff;stroke:red;stroke-linejoin:miter" x="285.871" y="18.373" xlink:href="#meacdf5fff7"/><use style="fill:#fff;stroke:red;stroke-linejoin:miter" x="313.066" y="111.752" xlink:href="#meacdf5fff7"/><use style="fill:#fff;stroke:red;stroke-linejoin:miter" x="340.261" y="144.514" xlink:href="#meacdf5fff7"/><use style="fill:#fff;stroke:red;stroke-linejoin:miter" x="367.456" y="151.83" xlink:href="#meacdf5fff7"/><use style="fill:#fff;stroke:red;stroke-linejoin:miter" x="394.651" y="150.455" xlink:href="#meacdf5fff7"/><use style="fill:#fff;stroke:red;stroke-linejoin:miter" x="421.846" y="140.158" xlink:href="#meacdf5fff7"/><use style="fill:#fff;stroke:red;stroke-linejoin:miter" x="449.041" y="150.021" xlink:href="#meacdf5fff7"/></g></g><g id="patch_9"><path d="M 277.7125 177.4 L 277.7125 10.8" style="fill:none;stroke:#000;stroke-linecap:square;stroke-linejoin:miter;stroke-width:.8"/></g><g id="patch_10"><path d="M 457.2 177.4 L 457.2 10.8" style="fill:none;stroke:#000;stroke-linecap:square;stroke-linejoin:miter;stroke-width:.8"/></g><g id="patch_11"><path d="M 277.7125 177.4 L 457.2 177.4" style="fill:none;stroke:#000;stroke-linecap:square;stroke-linejoin:miter;stroke-width:.8"/></g><g id="patch_12"><path d="M 277.7125 10.8 L 457.2 10.8" style="fill:none;stroke:#000;stroke-linecap:square;stroke-linejoin:miter;stroke-width:.8"/></g></g></g><defs><clipPath id="pf23ead0c79"><rect width="179.488" height="166.6" x="47.675" y="10.8"/></clipPath><clipPath id="peaeb13994a"><rect width="179.488" height="166.6" x="277.712" y="10.8"/></clipPath></defs></svg>