<?xml version="1.0" encoding="utf-8" standalone="no"?>
<!DOCTYPE svg PUBLIC "-//W3C//DTD SVG 1.1//EN"
  "http://www.w3.org/Graphics/SVG/1.1/DTD/svg11.dtd">
<svg height="504pt" version="1.1" viewBox="0 0 252 504" width="252pt" xmlns="http://www.w3.org/2000/svg" xmlns:xlink="http://www.w3.org/1999/xlink">
 <metadata>
  <rdf:RDF xmlns:cc="http://creativecommons.org/ns#" xmlns:dc="http://purl.org/dc/elements/1.1/" xmlns:rdf="http://www.w3.org/1999/02/22-rdf-syntax-ns#">
   <cc:Work>
    <dc:type rdf:resource="http://purl.org/dc/dcmitype/StillImage"/>
    <dc:date>2021-12-09T18:03:04.929841</dc:date>
    <dc:format>image/svg+xml</dc:format>
    <dc:creator>
     <cc:Agent>
      <dc:title>Matplotlib v3.4.3, https://matplotlib.org/</dc:title>
     </cc:Agent>
    </dc:creator>
   </cc:Work>
  </rdf:RDF>
 </metadata>
 <defs>
  <style type="text/css">*{stroke-linecap:butt;stroke-linejoin:round;}</style>
 </defs>
 <g id="figure_1">
  <g id="patch_1">
   <path d="M 0 504 
L 252 504 
L 252 0 
L 0 0 
z
" style="fill:none;"/>
  </g>
  <g id="axes_1">
   <g id="patch_2">
    <path d="M 31.5 100.960851 
L 226.8 100.960851 
L 226.8 60.48 
L 31.5 60.48 
z
" style="fill:#ffffff;"/>
   </g>
   <g id="patch_3">
    <path clip-path="url(#p82fba054a0)" d="M 40.377273 90.814158 
L 47.550826 90.814158 
L 47.550826 87.194993 
L 40.377273 87.194993 
z
" style="fill:#ffa500;"/>
   </g>
   <g id="patch_4">
    <path clip-path="url(#p82fba054a0)" d="M 49.344215 90.814158 
L 56.517769 90.814158 
L 56.517769 81.871258 
L 49.344215 81.871258 
z
" style="fill:#ffa500;"/>
   </g>
   <g id="patch_5">
    <path clip-path="url(#p82fba054a0)" d="M 58.311157 90.814158 
L 65.484711 90.814158 
L 65.484711 90.681988 
L 58.311157 90.681988 
z
" style="fill:#ffa500;"/>
   </g>
   <g id="patch_6">
    <path clip-path="url(#p82fba054a0)" d="M 67.278099 90.814158 
L 74.451653 90.814158 
L 74.451653 89.851192 
L 67.278099 89.851192 
z
" style="fill:#ffa500;"/>
   </g>
   <g id="patch_7">
    <path clip-path="url(#p82fba054a0)" d="M 76.245041 90.814158 
L 83.418595 90.814158 
L 83.418595 75.381604 
L 76.245041 75.381604 
z
" style="fill:#ffa500;"/>
   </g>
   <g id="patch_8">
    <path clip-path="url(#p82fba054a0)" d="M 85.211983 90.814158 
L 92.385537 90.814158 
L 92.385537 92.512863 
L 85.211983 92.512863 
z
" style="fill:#ffa500;"/>
   </g>
   <g id="patch_9">
    <path clip-path="url(#p82fba054a0)" d="M 94.178926 90.814158 
L 101.352479 90.814158 
L 101.352479 85.74938 
L 94.178926 85.74938 
z
" style="fill:#ffa500;"/>
   </g>
   <g id="patch_10">
    <path clip-path="url(#p82fba054a0)" d="M 103.145868 90.814158 
L 110.319421 90.814158 
L 110.319421 76.594536 
L 103.145868 76.594536 
z
" style="fill:#ffa500;"/>
   </g>
   <g id="patch_11">
    <path clip-path="url(#p82fba054a0)" d="M 112.11281 90.814158 
L 119.286364 90.814158 
L 119.286364 67.925409 
L 112.11281 67.925409 
z
" style="fill:#ffa500;"/>
   </g>
   <g id="patch_12">
    <path clip-path="url(#p82fba054a0)" d="M 121.079752 90.814158 
L 128.253306 90.814158 
L 128.253306 89.976093 
L 121.079752 89.976093 
z
" style="fill:#ffa500;"/>
   </g>
   <g id="patch_13">
    <path clip-path="url(#p82fba054a0)" d="M 130.046694 90.814158 
L 137.220248 90.814158 
L 137.220248 99.120812 
L 130.046694 99.120812 
z
" style="fill:#ffa500;"/>
   </g>
   <g id="patch_14">
    <path clip-path="url(#p82fba054a0)" d="M 139.013636 90.814158 
L 146.18719 90.814158 
L 146.18719 85.981079 
L 139.013636 85.981079 
z
" style="fill:#ffa500;"/>
   </g>
   <g id="patch_15">
    <path clip-path="url(#p82fba054a0)" d="M 147.980579 90.814158 
L 155.154132 90.814158 
L 155.154132 70.396166 
L 147.980579 70.396166 
z
" style="fill:#ffa500;"/>
   </g>
   <g id="patch_16">
    <path clip-path="url(#p82fba054a0)" d="M 156.947521 90.814158 
L 164.121074 90.814158 
L 164.121074 73.851799 
L 156.947521 73.851799 
z
" style="fill:#ffa500;"/>
   </g>
   <g id="patch_17">
    <path clip-path="url(#p82fba054a0)" d="M 165.914463 90.814158 
L 173.088017 90.814158 
L 173.088017 85.96246 
L 165.914463 85.96246 
z
" style="fill:#ffa500;"/>
   </g>
   <g id="patch_18">
    <path clip-path="url(#p82fba054a0)" d="M 174.881405 90.814158 
L 182.054959 90.814158 
L 182.054959 83.970842 
L 174.881405 83.970842 
z
" style="fill:#ffa500;"/>
   </g>
   <g id="patch_19">
    <path clip-path="url(#p82fba054a0)" d="M 183.848347 90.814158 
L 191.021901 90.814158 
L 191.021901 84.488782 
L 183.848347 84.488782 
z
" style="fill:#ffa500;"/>
   </g>
   <g id="patch_20">
    <path clip-path="url(#p82fba054a0)" d="M 192.815289 90.814158 
L 199.988843 90.814158 
L 199.988843 72.281803 
L 192.815289 72.281803 
z
" style="fill:#ffa500;"/>
   </g>
   <g id="patch_21">
    <path clip-path="url(#p82fba054a0)" d="M 201.782231 90.814158 
L 208.955785 90.814158 
L 208.955785 75.100969 
L 201.782231 75.100969 
z
" style="fill:#ffa500;"/>
   </g>
   <g id="patch_22">
    <path clip-path="url(#p82fba054a0)" d="M 210.749174 90.814158 
L 217.922727 90.814158 
L 217.922727 62.320039 
L 210.749174 62.320039 
z
" style="fill:#ffa500;"/>
   </g>
   <g id="matplotlib.axis_1"/>
   <g id="matplotlib.axis_2">
    <g id="ytick_1">
     <g id="line2d_1">
      <defs>
       <path d="M 0 0 
L -3.5 0 
" id="mf4a7704bd8" style="stroke:#000000;stroke-width:0.8;"/>
      </defs>
      <g>
       <use style="stroke:#000000;stroke-width:0.8;" x="31.5" xlink:href="#mf4a7704bd8" y="90.814158"/>
      </g>
     </g>
     <g id="text_1">
      <!-- 0.0 -->
      <g transform="translate(8.596875 94.613377)scale(0.1 -0.1)">
       <defs>
        <path d="M 2034 4250 
Q 1547 4250 1301 3770 
Q 1056 3291 1056 2328 
Q 1056 1369 1301 889 
Q 1547 409 2034 409 
Q 2525 409 2770 889 
Q 3016 1369 3016 2328 
Q 3016 3291 2770 3770 
Q 2525 4250 2034 4250 
z
M 2034 4750 
Q 2819 4750 3233 4129 
Q 3647 3509 3647 2328 
Q 3647 1150 3233 529 
Q 2819 -91 2034 -91 
Q 1250 -91 836 529 
Q 422 1150 422 2328 
Q 422 3509 836 4129 
Q 1250 4750 2034 4750 
z
" id="DejaVuSans-30" transform="scale(0.015625)"/>
        <path d="M 684 794 
L 1344 794 
L 1344 0 
L 684 0 
L 684 794 
z
" id="DejaVuSans-2e" transform="scale(0.015625)"/>
       </defs>
       <use xlink:href="#DejaVuSans-30"/>
       <use x="63.623047" xlink:href="#DejaVuSans-2e"/>
       <use x="95.410156" xlink:href="#DejaVuSans-30"/>
      </g>
     </g>
    </g>
    <g id="ytick_2">
     <g id="line2d_2">
      <g>
       <use style="stroke:#000000;stroke-width:0.8;" x="31.5" xlink:href="#mf4a7704bd8" y="68.059222"/>
      </g>
     </g>
     <g id="text_2">
      <!-- 2.5 -->
      <g transform="translate(8.596875 71.858441)scale(0.1 -0.1)">
       <defs>
        <path d="M 1228 531 
L 3431 531 
L 3431 0 
L 469 0 
L 469 531 
Q 828 903 1448 1529 
Q 2069 2156 2228 2338 
Q 2531 2678 2651 2914 
Q 2772 3150 2772 3378 
Q 2772 3750 2511 3984 
Q 2250 4219 1831 4219 
Q 1534 4219 1204 4116 
Q 875 4013 500 3803 
L 500 4441 
Q 881 4594 1212 4672 
Q 1544 4750 1819 4750 
Q 2544 4750 2975 4387 
Q 3406 4025 3406 3419 
Q 3406 3131 3298 2873 
Q 3191 2616 2906 2266 
Q 2828 2175 2409 1742 
Q 1991 1309 1228 531 
z
" id="DejaVuSans-32" transform="scale(0.015625)"/>
        <path d="M 691 4666 
L 3169 4666 
L 3169 4134 
L 1269 4134 
L 1269 2991 
Q 1406 3038 1543 3061 
Q 1681 3084 1819 3084 
Q 2600 3084 3056 2656 
Q 3513 2228 3513 1497 
Q 3513 744 3044 326 
Q 2575 -91 1722 -91 
Q 1428 -91 1123 -41 
Q 819 9 494 109 
L 494 744 
Q 775 591 1075 516 
Q 1375 441 1709 441 
Q 2250 441 2565 725 
Q 2881 1009 2881 1497 
Q 2881 1984 2565 2268 
Q 2250 2553 1709 2553 
Q 1456 2553 1204 2497 
Q 953 2441 691 2322 
L 691 4666 
z
" id="DejaVuSans-35" transform="scale(0.015625)"/>
       </defs>
       <use xlink:href="#DejaVuSans-32"/>
       <use x="63.623047" xlink:href="#DejaVuSans-2e"/>
       <use x="95.410156" xlink:href="#DejaVuSans-35"/>
      </g>
     </g>
    </g>
   </g>
   <g id="patch_23">
    <path d="M 31.5 100.960851 
L 31.5 60.48 
" style="fill:none;stroke:#000000;stroke-linecap:square;stroke-linejoin:miter;stroke-width:0.8;"/>
   </g>
   <g id="patch_24">
    <path d="M 226.8 100.960851 
L 226.8 60.48 
" style="fill:none;stroke:#000000;stroke-linecap:square;stroke-linejoin:miter;stroke-width:0.8;"/>
   </g>
   <g id="patch_25">
    <path d="M 31.5 100.960851 
L 226.8 100.960851 
" style="fill:none;stroke:#000000;stroke-linecap:square;stroke-linejoin:miter;stroke-width:0.8;"/>
   </g>
   <g id="patch_26">
    <path d="M 31.5 60.48 
L 226.8 60.48 
" style="fill:none;stroke:#000000;stroke-linecap:square;stroke-linejoin:miter;stroke-width:0.8;"/>
   </g>
  </g>
  <g id="axes_2">
   <g id="patch_27">
    <path d="M 31.5 149.537872 
L 226.8 149.537872 
L 226.8 109.057021 
L 31.5 109.057021 
z
" style="fill:#ffffff;"/>
   </g>
   <g id="patch_28">
    <path clip-path="url(#pe88ae042c3)" d="M 40.377273 143.942319 
L 47.550826 143.942319 
L 47.550826 133.415324 
L 40.377273 133.415324 
z
" style="fill:#ffa500;"/>
   </g>
   <g id="patch_29">
    <path clip-path="url(#pe88ae042c3)" d="M 49.344215 143.942319 
L 56.517769 143.942319 
L 56.517769 136.830202 
L 49.344215 136.830202 
z
" style="fill:#ffa500;"/>
   </g>
   <g id="patch_30">
    <path clip-path="url(#pe88ae042c3)" d="M 58.311157 143.942319 
L 65.484711 143.942319 
L 65.484711 135.676748 
L 58.311157 135.676748 
z
" style="fill:#ffa500;"/>
   </g>
   <g id="patch_31">
    <path clip-path="url(#pe88ae042c3)" d="M 67.278099 143.942319 
L 74.451653 143.942319 
L 74.451653 131.911228 
L 67.278099 131.911228 
z
" style="fill:#ffa500;"/>
   </g>
   <g id="patch_32">
    <path clip-path="url(#pe88ae042c3)" d="M 76.245041 143.942319 
L 83.418595 143.942319 
L 83.418595 138.724328 
L 76.245041 138.724328 
z
" style="fill:#ffa500;"/>
   </g>
   <g id="patch_33">
    <path clip-path="url(#pe88ae042c3)" d="M 85.211983 143.942319 
L 92.385537 143.942319 
L 92.385537 130.606232 
L 85.211983 130.606232 
z
" style="fill:#ffa500;"/>
   </g>
   <g id="patch_34">
    <path clip-path="url(#pe88ae042c3)" d="M 94.178926 143.942319 
L 101.352479 143.942319 
L 101.352479 140.692452 
L 94.178926 140.692452 
z
" style="fill:#ffa500;"/>
   </g>
   <g id="patch_35">
    <path clip-path="url(#pe88ae042c3)" d="M 103.145868 143.942319 
L 110.319421 143.942319 
L 110.319421 147.697834 
L 103.145868 147.697834 
z
" style="fill:#ffa500;"/>
   </g>
   <g id="patch_36">
    <path clip-path="url(#pe88ae042c3)" d="M 112.11281 143.942319 
L 119.286364 143.942319 
L 119.286364 142.88125 
L 112.11281 142.88125 
z
" style="fill:#ffa500;"/>
   </g>
   <g id="patch_37">
    <path clip-path="url(#pe88ae042c3)" d="M 121.079752 143.942319 
L 128.253306 143.942319 
L 128.253306 142.791909 
L 121.079752 142.791909 
z
" style="fill:#ffa500;"/>
   </g>
   <g id="patch_38">
    <path clip-path="url(#pe88ae042c3)" d="M 130.046694 143.942319 
L 137.220248 143.942319 
L 137.220248 138.111026 
L 130.046694 138.111026 
z
" style="fill:#ffa500;"/>
   </g>
   <g id="patch_39">
    <path clip-path="url(#pe88ae042c3)" d="M 139.013636 143.942319 
L 146.18719 143.942319 
L 146.18719 132.64903 
L 139.013636 132.64903 
z
" style="fill:#ffa500;"/>
   </g>
   <g id="patch_40">
    <path clip-path="url(#pe88ae042c3)" d="M 147.980579 143.942319 
L 155.154132 143.942319 
L 155.154132 139.333791 
L 147.980579 139.333791 
z
" style="fill:#ffa500;"/>
   </g>
   <g id="patch_41">
    <path clip-path="url(#pe88ae042c3)" d="M 156.947521 143.942319 
L 164.121074 143.942319 
L 164.121074 137.895983 
L 156.947521 137.895983 
z
" style="fill:#ffa500;"/>
   </g>
   <g id="patch_42">
    <path clip-path="url(#pe88ae042c3)" d="M 165.914463 143.942319 
L 173.088017 143.942319 
L 173.088017 135.694444 
L 165.914463 135.694444 
z
" style="fill:#ffa500;"/>
   </g>
   <g id="patch_43">
    <path clip-path="url(#pe88ae042c3)" d="M 174.881405 143.942319 
L 182.054959 143.942319 
L 182.054959 141.051025 
L 174.881405 141.051025 
z
" style="fill:#ffa500;"/>
   </g>
   <g id="patch_44">
    <path clip-path="url(#pe88ae042c3)" d="M 183.848347 143.942319 
L 191.021901 143.942319 
L 191.021901 134.033815 
L 183.848347 134.033815 
z
" style="fill:#ffa500;"/>
   </g>
   <g id="patch_45">
    <path clip-path="url(#pe88ae042c3)" d="M 192.815289 143.942319 
L 199.988843 143.942319 
L 199.988843 140.323857 
L 192.815289 140.323857 
z
" style="fill:#ffa500;"/>
   </g>
   <g id="patch_46">
    <path clip-path="url(#pe88ae042c3)" d="M 201.782231 143.942319 
L 208.955785 143.942319 
L 208.955785 138.465972 
L 201.782231 138.465972 
z
" style="fill:#ffa500;"/>
   </g>
   <g id="patch_47">
    <path clip-path="url(#pe88ae042c3)" d="M 210.749174 143.942319 
L 217.922727 143.942319 
L 217.922727 110.89706 
L 210.749174 110.89706 
z
" style="fill:#ffa500;"/>
   </g>
   <g id="matplotlib.axis_3"/>
   <g id="matplotlib.axis_4">
    <g id="ytick_3">
     <g id="line2d_3">
      <g>
       <use style="stroke:#000000;stroke-width:0.8;" x="31.5" xlink:href="#mf4a7704bd8" y="143.942319"/>
      </g>
     </g>
     <g id="text_3">
      <!-- 0.0 -->
      <g transform="translate(8.596875 147.741538)scale(0.1 -0.1)">
       <use xlink:href="#DejaVuSans-30"/>
       <use x="63.623047" xlink:href="#DejaVuSans-2e"/>
       <use x="95.410156" xlink:href="#DejaVuSans-30"/>
      </g>
     </g>
    </g>
    <g id="ytick_4">
     <g id="line2d_4">
      <g>
       <use style="stroke:#000000;stroke-width:0.8;" x="31.5" xlink:href="#mf4a7704bd8" y="123.095952"/>
      </g>
     </g>
     <g id="text_4">
      <!-- 2.5 -->
      <g transform="translate(8.596875 126.895171)scale(0.1 -0.1)">
       <use xlink:href="#DejaVuSans-32"/>
       <use x="63.623047" xlink:href="#DejaVuSans-2e"/>
       <use x="95.410156" xlink:href="#DejaVuSans-35"/>
      </g>
     </g>
    </g>
   </g>
   <g id="patch_48">
    <path d="M 31.5 149.537872 
L 31.5 109.057021 
" style="fill:none;stroke:#000000;stroke-linecap:square;stroke-linejoin:miter;stroke-width:0.8;"/>
   </g>
   <g id="patch_49">
    <path d="M 226.8 149.537872 
L 226.8 109.057021 
" style="fill:none;stroke:#000000;stroke-linecap:square;stroke-linejoin:miter;stroke-width:0.8;"/>
   </g>
   <g id="patch_50">
    <path d="M 31.5 149.537872 
L 226.8 149.537872 
" style="fill:none;stroke:#000000;stroke-linecap:square;stroke-linejoin:miter;stroke-width:0.8;"/>
   </g>
   <g id="patch_51">
    <path d="M 31.5 109.057021 
L 226.8 109.057021 
" style="fill:none;stroke:#000000;stroke-linecap:square;stroke-linejoin:miter;stroke-width:0.8;"/>
   </g>
  </g>
  <g id="axes_3">
   <g id="patch_52">
    <path d="M 31.5 198.114894 
L 226.8 198.114894 
L 226.8 157.634043 
L 31.5 157.634043 
z
" style="fill:#ffffff;"/>
   </g>
   <g id="patch_53">
    <path clip-path="url(#p78616dec44)" d="M 40.377273 188.892262 
L 47.550826 188.892262 
L 47.550826 168.88384 
L 40.377273 168.88384 
z
" style="fill:#ff0000;"/>
   </g>
   <g id="patch_54">
    <path clip-path="url(#p78616dec44)" d="M 49.344215 188.892262 
L 56.517769 188.892262 
L 56.517769 180.3082 
L 49.344215 180.3082 
z
" style="fill:#ff0000;"/>
   </g>
   <g id="patch_55">
    <path clip-path="url(#p78616dec44)" d="M 58.311157 188.892262 
L 65.484711 188.892262 
L 65.484711 173.577532 
L 58.311157 173.577532 
z
" style="fill:#ff0000;"/>
   </g>
   <g id="patch_56">
    <path clip-path="url(#p78616dec44)" d="M 67.278099 188.892262 
L 74.451653 188.892262 
L 74.451653 182.164136 
L 67.278099 182.164136 
z
" style="fill:#ff0000;"/>
   </g>
   <g id="patch_57">
    <path clip-path="url(#p78616dec44)" d="M 76.245041 188.892262 
L 83.418595 188.892262 
L 83.418595 177.121602 
L 76.245041 177.121602 
z
" style="fill:#ff0000;"/>
   </g>
   <g id="patch_58">
    <path clip-path="url(#p78616dec44)" d="M 85.211983 188.892262 
L 92.385537 188.892262 
L 92.385537 188.990911 
L 85.211983 188.990911 
z
" style="fill:#ff0000;"/>
   </g>
   <g id="patch_59">
    <path clip-path="url(#p78616dec44)" d="M 94.178926 188.892262 
L 101.352479 188.892262 
L 101.352479 187.225756 
L 94.178926 187.225756 
z
" style="fill:#ff0000;"/>
   </g>
   <g id="patch_60">
    <path clip-path="url(#p78616dec44)" d="M 103.145868 188.892262 
L 110.319421 188.892262 
L 110.319421 196.274855 
L 103.145868 196.274855 
z
" style="fill:#ff0000;"/>
   </g>
   <g id="patch_61">
    <path clip-path="url(#p78616dec44)" d="M 112.11281 188.892262 
L 119.286364 188.892262 
L 119.286364 172.729315 
L 112.11281 172.729315 
z
" style="fill:#ff0000;"/>
   </g>
   <g id="patch_62">
    <path clip-path="url(#p78616dec44)" d="M 121.079752 188.892262 
L 128.253306 188.892262 
L 128.253306 166.537988 
L 121.079752 166.537988 
z
" style="fill:#ff0000;"/>
   </g>
   <g id="patch_63">
    <path clip-path="url(#p78616dec44)" d="M 130.046694 188.892262 
L 137.220248 188.892262 
L 137.220248 159.474081 
L 130.046694 159.474081 
z
" style="fill:#ff0000;"/>
   </g>
   <g id="patch_64">
    <path clip-path="url(#p78616dec44)" d="M 139.013636 188.892262 
L 146.18719 188.892262 
L 146.18719 175.202023 
L 139.013636 175.202023 
z
" style="fill:#ff0000;"/>
   </g>
   <g id="patch_65">
    <path clip-path="url(#p78616dec44)" d="M 147.980579 188.892262 
L 155.154132 188.892262 
L 155.154132 169.557347 
L 147.980579 169.557347 
z
" style="fill:#ff0000;"/>
   </g>
   <g id="patch_66">
    <path clip-path="url(#p78616dec44)" d="M 156.947521 188.892262 
L 164.121074 188.892262 
L 164.121074 179.514855 
L 156.947521 179.514855 
z
" style="fill:#ff0000;"/>
   </g>
   <g id="patch_67">
    <path clip-path="url(#p78616dec44)" d="M 165.914463 188.892262 
L 173.088017 188.892262 
L 173.088017 171.02735 
L 165.914463 171.02735 
z
" style="fill:#ff0000;"/>
   </g>
   <g id="patch_68">
    <path clip-path="url(#p78616dec44)" d="M 174.881405 188.892262 
L 182.054959 188.892262 
L 182.054959 189.321929 
L 174.881405 189.321929 
z
" style="fill:#ff0000;"/>
   </g>
   <g id="patch_69">
    <path clip-path="url(#p78616dec44)" d="M 183.848347 188.892262 
L 191.021901 188.892262 
L 191.021901 184.84008 
L 183.848347 184.84008 
z
" style="fill:#ff0000;"/>
   </g>
   <g id="patch_70">
    <path clip-path="url(#p78616dec44)" d="M 192.815289 188.892262 
L 199.988843 188.892262 
L 199.988843 174.39701 
L 192.815289 174.39701 
z
" style="fill:#ff0000;"/>
   </g>
   <g id="patch_71">
    <path clip-path="url(#p78616dec44)" d="M 201.782231 188.892262 
L 208.955785 188.892262 
L 208.955785 165.559194 
L 201.782231 165.559194 
z
" style="fill:#ff0000;"/>
   </g>
   <g id="patch_72">
    <path clip-path="url(#p78616dec44)" d="M 210.749174 188.892262 
L 217.922727 188.892262 
L 217.922727 184.576147 
L 210.749174 184.576147 
z
" style="fill:#ff0000;"/>
   </g>
   <g id="matplotlib.axis_5"/>
   <g id="matplotlib.axis_6">
    <g id="ytick_5">
     <g id="line2d_5">
      <g>
       <use style="stroke:#000000;stroke-width:0.8;" x="31.5" xlink:href="#mf4a7704bd8" y="188.892262"/>
      </g>
     </g>
     <g id="text_5">
      <!-- 0 -->
      <g transform="translate(18.1375 192.691481)scale(0.1 -0.1)">
       <use xlink:href="#DejaVuSans-30"/>
      </g>
     </g>
    </g>
    <g id="ytick_6">
     <g id="line2d_6">
      <g>
       <use style="stroke:#000000;stroke-width:0.8;" x="31.5" xlink:href="#mf4a7704bd8" y="167.320741"/>
      </g>
     </g>
     <g id="text_6">
      <!-- 2 -->
      <g transform="translate(18.1375 171.11996)scale(0.1 -0.1)">
       <use xlink:href="#DejaVuSans-32"/>
      </g>
     </g>
    </g>
   </g>
   <g id="patch_73">
    <path d="M 31.5 198.114894 
L 31.5 157.634043 
" style="fill:none;stroke:#000000;stroke-linecap:square;stroke-linejoin:miter;stroke-width:0.8;"/>
   </g>
   <g id="patch_74">
    <path d="M 226.8 198.114894 
L 226.8 157.634043 
" style="fill:none;stroke:#000000;stroke-linecap:square;stroke-linejoin:miter;stroke-width:0.8;"/>
   </g>
   <g id="patch_75">
    <path d="M 31.5 198.114894 
L 226.8 198.114894 
" style="fill:none;stroke:#000000;stroke-linecap:square;stroke-linejoin:miter;stroke-width:0.8;"/>
   </g>
   <g id="patch_76">
    <path d="M 31.5 157.634043 
L 226.8 157.634043 
" style="fill:none;stroke:#000000;stroke-linecap:square;stroke-linejoin:miter;stroke-width:0.8;"/>
   </g>
  </g>
  <g id="axes_4">
   <g id="patch_77">
    <path d="M 31.5 246.691915 
L 226.8 246.691915 
L 226.8 206.211064 
L 31.5 206.211064 
z
" style="fill:#ffffff;"/>
   </g>
   <g id="patch_78">
    <path clip-path="url(#p7778411aa3)" d="M 40.377273 238.818293 
L 47.550826 238.818293 
L 47.550826 235.10419 
L 40.377273 235.10419 
z
" style="fill:#ff0000;"/>
   </g>
   <g id="patch_79">
    <path clip-path="url(#p7778411aa3)" d="M 49.344215 238.818293 
L 56.517769 238.818293 
L 56.517769 208.051103 
L 49.344215 208.051103 
z
" style="fill:#ff0000;"/>
   </g>
   <g id="patch_80">
    <path clip-path="url(#p7778411aa3)" d="M 58.311157 238.818293 
L 65.484711 238.818293 
L 65.484711 236.899956 
L 58.311157 236.899956 
z
" style="fill:#ff0000;"/>
   </g>
   <g id="patch_81">
    <path clip-path="url(#p7778411aa3)" d="M 67.278099 238.818293 
L 74.451653 238.818293 
L 74.451653 224.221671 
L 67.278099 224.221671 
z
" style="fill:#ff0000;"/>
   </g>
   <g id="patch_82">
    <path clip-path="url(#p7778411aa3)" d="M 76.245041 238.818293 
L 83.418595 238.818293 
L 83.418595 228.521591 
L 76.245041 228.521591 
z
" style="fill:#ff0000;"/>
   </g>
   <g id="patch_83">
    <path clip-path="url(#p7778411aa3)" d="M 85.211983 238.818293 
L 92.385537 238.818293 
L 92.385537 239.7108 
L 85.211983 239.7108 
z
" style="fill:#ff0000;"/>
   </g>
   <g id="patch_84">
    <path clip-path="url(#p7778411aa3)" d="M 94.178926 238.818293 
L 101.352479 238.818293 
L 101.352479 226.594355 
L 94.178926 226.594355 
z
" style="fill:#ff0000;"/>
   </g>
   <g id="patch_85">
    <path clip-path="url(#p7778411aa3)" d="M 103.145868 238.818293 
L 110.319421 238.818293 
L 110.319421 228.855277 
L 103.145868 228.855277 
z
" style="fill:#ff0000;"/>
   </g>
   <g id="patch_86">
    <path clip-path="url(#p7778411aa3)" d="M 112.11281 238.818293 
L 119.286364 238.818293 
L 119.286364 208.728386 
L 112.11281 208.728386 
z
" style="fill:#ff0000;"/>
   </g>
   <g id="patch_87">
    <path clip-path="url(#p7778411aa3)" d="M 121.079752 238.818293 
L 128.253306 238.818293 
L 128.253306 211.377378 
L 121.079752 211.377378 
z
" style="fill:#ff0000;"/>
   </g>
   <g id="patch_88">
    <path clip-path="url(#p7778411aa3)" d="M 130.046694 238.818293 
L 137.220248 238.818293 
L 137.220248 227.69563 
L 130.046694 227.69563 
z
" style="fill:#ff0000;"/>
   </g>
   <g id="patch_89">
    <path clip-path="url(#p7778411aa3)" d="M 139.013636 238.818293 
L 146.18719 238.818293 
L 146.18719 240.96187 
L 139.013636 240.96187 
z
" style="fill:#ff0000;"/>
   </g>
   <g id="patch_90">
    <path clip-path="url(#p7778411aa3)" d="M 147.980579 238.818293 
L 155.154132 238.818293 
L 155.154132 222.764623 
L 147.980579 222.764623 
z
" style="fill:#ff0000;"/>
   </g>
   <g id="patch_91">
    <path clip-path="url(#p7778411aa3)" d="M 156.947521 238.818293 
L 164.121074 238.818293 
L 164.121074 225.022522 
L 156.947521 225.022522 
z
" style="fill:#ff0000;"/>
   </g>
   <g id="patch_92">
    <path clip-path="url(#p7778411aa3)" d="M 165.914463 238.818293 
L 173.088017 238.818293 
L 173.088017 212.916392 
L 165.914463 212.916392 
z
" style="fill:#ff0000;"/>
   </g>
   <g id="patch_93">
    <path clip-path="url(#p7778411aa3)" d="M 174.881405 238.818293 
L 182.054959 238.818293 
L 182.054959 227.133652 
L 174.881405 227.133652 
z
" style="fill:#ff0000;"/>
   </g>
   <g id="patch_94">
    <path clip-path="url(#p7778411aa3)" d="M 183.848347 238.818293 
L 191.021901 238.818293 
L 191.021901 221.764396 
L 183.848347 221.764396 
z
" style="fill:#ff0000;"/>
   </g>
   <g id="patch_95">
    <path clip-path="url(#p7778411aa3)" d="M 192.815289 238.818293 
L 199.988843 238.818293 
L 199.988843 227.01453 
L 192.815289 227.01453 
z
" style="fill:#ff0000;"/>
   </g>
   <g id="patch_96">
    <path clip-path="url(#p7778411aa3)" d="M 201.782231 238.818293 
L 208.955785 238.818293 
L 208.955785 244.851876 
L 201.782231 244.851876 
z
" style="fill:#ff0000;"/>
   </g>
   <g id="patch_97">
    <path clip-path="url(#p7778411aa3)" d="M 210.749174 238.818293 
L 217.922727 238.818293 
L 217.922727 211.341515 
L 210.749174 211.341515 
z
" style="fill:#ff0000;"/>
   </g>
   <g id="matplotlib.axis_7"/>
   <g id="matplotlib.axis_8">
    <g id="ytick_7">
     <g id="line2d_7">
      <g>
       <use style="stroke:#000000;stroke-width:0.8;" x="31.5" xlink:href="#mf4a7704bd8" y="238.818293"/>
      </g>
     </g>
     <g id="text_7">
      <!-- 0 -->
      <g transform="translate(18.1375 242.617512)scale(0.1 -0.1)">
       <use xlink:href="#DejaVuSans-30"/>
      </g>
     </g>
    </g>
    <g id="ytick_8">
     <g id="line2d_8">
      <g>
       <use style="stroke:#000000;stroke-width:0.8;" x="31.5" xlink:href="#mf4a7704bd8" y="215.550086"/>
      </g>
     </g>
     <g id="text_8">
      <!-- 2 -->
      <g transform="translate(18.1375 219.349305)scale(0.1 -0.1)">
       <use xlink:href="#DejaVuSans-32"/>
      </g>
     </g>
    </g>
   </g>
   <g id="patch_98">
    <path d="M 31.5 246.691915 
L 31.5 206.211064 
" style="fill:none;stroke:#000000;stroke-linecap:square;stroke-linejoin:miter;stroke-width:0.8;"/>
   </g>
   <g id="patch_99">
    <path d="M 226.8 246.691915 
L 226.8 206.211064 
" style="fill:none;stroke:#000000;stroke-linecap:square;stroke-linejoin:miter;stroke-width:0.8;"/>
   </g>
   <g id="patch_100">
    <path d="M 31.5 246.691915 
L 226.8 246.691915 
" style="fill:none;stroke:#000000;stroke-linecap:square;stroke-linejoin:miter;stroke-width:0.8;"/>
   </g>
   <g id="patch_101">
    <path d="M 31.5 206.211064 
L 226.8 206.211064 
" style="fill:none;stroke:#000000;stroke-linecap:square;stroke-linejoin:miter;stroke-width:0.8;"/>
   </g>
  </g>
  <g id="axes_5">
   <g id="patch_102">
    <path d="M 31.5 295.268936 
L 226.8 295.268936 
L 226.8 254.788085 
L 31.5 254.788085 
z
" style="fill:#ffffff;"/>
   </g>
   <g id="patch_103">
    <path clip-path="url(#p5d05cbe07b)" d="M 40.377273 285.837644 
L 47.550826 285.837644 
L 47.550826 256.628124 
L 40.377273 256.628124 
z
" style="fill:#ff0000;"/>
   </g>
   <g id="patch_104">
    <path clip-path="url(#p5d05cbe07b)" d="M 49.344215 285.837644 
L 56.517769 285.837644 
L 56.517769 267.760434 
L 49.344215 267.760434 
z
" style="fill:#ff0000;"/>
   </g>
   <g id="patch_105">
    <path clip-path="url(#p5d05cbe07b)" d="M 58.311157 285.837644 
L 65.484711 285.837644 
L 65.484711 268.661249 
L 58.311157 268.661249 
z
" style="fill:#ff0000;"/>
   </g>
   <g id="patch_106">
    <path clip-path="url(#p5d05cbe07b)" d="M 67.278099 285.837644 
L 74.451653 285.837644 
L 74.451653 282.605593 
L 67.278099 282.605593 
z
" style="fill:#ff0000;"/>
   </g>
   <g id="patch_107">
    <path clip-path="url(#p5d05cbe07b)" d="M 76.245041 285.837644 
L 83.418595 285.837644 
L 83.418595 280.018279 
L 76.245041 280.018279 
z
" style="fill:#ff0000;"/>
   </g>
   <g id="patch_108">
    <path clip-path="url(#p5d05cbe07b)" d="M 85.211983 285.837644 
L 92.385537 285.837644 
L 92.385537 277.674981 
L 85.211983 277.674981 
z
" style="fill:#ff0000;"/>
   </g>
   <g id="patch_109">
    <path clip-path="url(#p5d05cbe07b)" d="M 94.178926 285.837644 
L 101.352479 285.837644 
L 101.352479 271.720601 
L 94.178926 271.720601 
z
" style="fill:#ff0000;"/>
   </g>
   <g id="patch_110">
    <path clip-path="url(#p5d05cbe07b)" d="M 103.145868 285.837644 
L 110.319421 285.837644 
L 110.319421 273.559994 
L 103.145868 273.559994 
z
" style="fill:#ff0000;"/>
   </g>
   <g id="patch_111">
    <path clip-path="url(#p5d05cbe07b)" d="M 112.11281 285.837644 
L 119.286364 285.837644 
L 119.286364 281.226842 
L 112.11281 281.226842 
z
" style="fill:#ff0000;"/>
   </g>
   <g id="patch_112">
    <path clip-path="url(#p5d05cbe07b)" d="M 121.079752 285.837644 
L 128.253306 285.837644 
L 128.253306 271.652231 
L 121.079752 271.652231 
z
" style="fill:#ff0000;"/>
   </g>
   <g id="patch_113">
    <path clip-path="url(#p5d05cbe07b)" d="M 130.046694 285.837644 
L 137.220248 285.837644 
L 137.220248 282.936517 
L 130.046694 282.936517 
z
" style="fill:#ff0000;"/>
   </g>
   <g id="patch_114">
    <path clip-path="url(#p5d05cbe07b)" d="M 139.013636 285.837644 
L 146.18719 285.837644 
L 146.18719 273.781543 
L 139.013636 273.781543 
z
" style="fill:#ff0000;"/>
   </g>
   <g id="patch_115">
    <path clip-path="url(#p5d05cbe07b)" d="M 147.980579 285.837644 
L 155.154132 285.837644 
L 155.154132 270.598784 
L 147.980579 270.598784 
z
" style="fill:#ff0000;"/>
   </g>
   <g id="patch_116">
    <path clip-path="url(#p5d05cbe07b)" d="M 156.947521 285.837644 
L 164.121074 285.837644 
L 164.121074 273.919781 
L 156.947521 273.919781 
z
" style="fill:#ff0000;"/>
   </g>
   <g id="patch_117">
    <path clip-path="url(#p5d05cbe07b)" d="M 165.914463 285.837644 
L 173.088017 285.837644 
L 173.088017 276.716477 
L 165.914463 276.716477 
z
" style="fill:#ff0000;"/>
   </g>
   <g id="patch_118">
    <path clip-path="url(#p5d05cbe07b)" d="M 174.881405 285.837644 
L 182.054959 285.837644 
L 182.054959 273.482671 
L 174.881405 273.482671 
z
" style="fill:#ff0000;"/>
   </g>
   <g id="patch_119">
    <path clip-path="url(#p5d05cbe07b)" d="M 183.848347 285.837644 
L 191.021901 285.837644 
L 191.021901 269.169112 
L 183.848347 269.169112 
z
" style="fill:#ff0000;"/>
   </g>
   <g id="patch_120">
    <path clip-path="url(#p5d05cbe07b)" d="M 192.815289 285.837644 
L 199.988843 285.837644 
L 199.988843 281.594465 
L 192.815289 281.594465 
z
" style="fill:#ff0000;"/>
   </g>
   <g id="patch_121">
    <path clip-path="url(#p5d05cbe07b)" d="M 201.782231 285.837644 
L 208.955785 285.837644 
L 208.955785 276.227826 
L 201.782231 276.227826 
z
" style="fill:#ff0000;"/>
   </g>
   <g id="patch_122">
    <path clip-path="url(#p5d05cbe07b)" d="M 210.749174 285.837644 
L 217.922727 285.837644 
L 217.922727 293.428897 
L 210.749174 293.428897 
z
" style="fill:#ff0000;"/>
   </g>
   <g id="matplotlib.axis_9"/>
   <g id="matplotlib.axis_10">
    <g id="ytick_9">
     <g id="line2d_9">
      <g>
       <use style="stroke:#000000;stroke-width:0.8;" x="31.5" xlink:href="#mf4a7704bd8" y="285.837644"/>
      </g>
     </g>
     <g id="text_9">
      <!-- 0.0 -->
      <g transform="translate(8.596875 289.636862)scale(0.1 -0.1)">
       <use xlink:href="#DejaVuSans-30"/>
       <use x="63.623047" xlink:href="#DejaVuSans-2e"/>
       <use x="95.410156" xlink:href="#DejaVuSans-30"/>
      </g>
     </g>
    </g>
    <g id="ytick_10">
     <g id="line2d_10">
      <g>
       <use style="stroke:#000000;stroke-width:0.8;" x="31.5" xlink:href="#mf4a7704bd8" y="263.352438"/>
      </g>
     </g>
     <g id="text_10">
      <!-- 2.5 -->
      <g transform="translate(8.596875 267.151657)scale(0.1 -0.1)">
       <use xlink:href="#DejaVuSans-32"/>
       <use x="63.623047" xlink:href="#DejaVuSans-2e"/>
       <use x="95.410156" xlink:href="#DejaVuSans-35"/>
      </g>
     </g>
    </g>
   </g>
   <g id="patch_123">
    <path d="M 31.5 295.268936 
L 31.5 254.788085 
" style="fill:none;stroke:#000000;stroke-linecap:square;stroke-linejoin:miter;stroke-width:0.8;"/>
   </g>
   <g id="patch_124">
    <path d="M 226.8 295.268936 
L 226.8 254.788085 
" style="fill:none;stroke:#000000;stroke-linecap:square;stroke-linejoin:miter;stroke-width:0.8;"/>
   </g>
   <g id="patch_125">
    <path d="M 31.5 295.268936 
L 226.8 295.268936 
" style="fill:none;stroke:#000000;stroke-linecap:square;stroke-linejoin:miter;stroke-width:0.8;"/>
   </g>
   <g id="patch_126">
    <path d="M 31.5 254.788085 
L 226.8 254.788085 
" style="fill:none;stroke:#000000;stroke-linecap:square;stroke-linejoin:miter;stroke-width:0.8;"/>
   </g>
  </g>
  <g id="axes_6">
   <g id="patch_127">
    <path d="M 31.5 343.845957 
L 226.8 343.845957 
L 226.8 303.365106 
L 31.5 303.365106 
z
" style="fill:#ffffff;"/>
   </g>
   <g id="patch_128">
    <path clip-path="url(#p7ea7010ef9)" d="M 40.377273 340.207177 
L 47.550826 340.207177 
L 47.550826 313.878975 
L 40.377273 313.878975 
z
" style="fill:#0000ff;"/>
   </g>
   <g id="patch_129">
    <path clip-path="url(#p7ea7010ef9)" d="M 49.344215 340.207177 
L 56.517769 340.207177 
L 56.517769 327.531915 
L 49.344215 327.531915 
z
" style="fill:#0000ff;"/>
   </g>
   <g id="patch_130">
    <path clip-path="url(#p7ea7010ef9)" d="M 58.311157 340.207177 
L 65.484711 340.207177 
L 65.484711 316.012667 
L 58.311157 316.012667 
z
" style="fill:#0000ff;"/>
   </g>
   <g id="patch_131">
    <path clip-path="url(#p7ea7010ef9)" d="M 67.278099 340.207177 
L 74.451653 340.207177 
L 74.451653 335.68092 
L 67.278099 335.68092 
z
" style="fill:#0000ff;"/>
   </g>
   <g id="patch_132">
    <path clip-path="url(#p7ea7010ef9)" d="M 76.245041 340.207177 
L 83.418595 340.207177 
L 83.418595 319.284263 
L 76.245041 319.284263 
z
" style="fill:#0000ff;"/>
   </g>
   <g id="patch_133">
    <path clip-path="url(#p7ea7010ef9)" d="M 85.211983 340.207177 
L 92.385537 340.207177 
L 92.385537 338.540914 
L 85.211983 338.540914 
z
" style="fill:#0000ff;"/>
   </g>
   <g id="patch_134">
    <path clip-path="url(#p7ea7010ef9)" d="M 94.178926 340.207177 
L 101.352479 340.207177 
L 101.352479 317.695564 
L 94.178926 317.695564 
z
" style="fill:#0000ff;"/>
   </g>
   <g id="patch_135">
    <path clip-path="url(#p7ea7010ef9)" d="M 103.145868 340.207177 
L 110.319421 340.207177 
L 110.319421 329.153923 
L 103.145868 329.153923 
z
" style="fill:#0000ff;"/>
   </g>
   <g id="patch_136">
    <path clip-path="url(#p7ea7010ef9)" d="M 112.11281 340.207177 
L 119.286364 340.207177 
L 119.286364 311.560828 
L 112.11281 311.560828 
z
" style="fill:#0000ff;"/>
   </g>
   <g id="patch_137">
    <path clip-path="url(#p7ea7010ef9)" d="M 121.079752 340.207177 
L 128.253306 340.207177 
L 128.253306 305.205145 
L 121.079752 305.205145 
z
" style="fill:#0000ff;"/>
   </g>
   <g id="patch_138">
    <path clip-path="url(#p7ea7010ef9)" d="M 130.046694 340.207177 
L 137.220248 340.207177 
L 137.220248 323.794369 
L 130.046694 323.794369 
z
" style="fill:#0000ff;"/>
   </g>
   <g id="patch_139">
    <path clip-path="url(#p7ea7010ef9)" d="M 139.013636 340.207177 
L 146.18719 340.207177 
L 146.18719 329.146884 
L 139.013636 329.146884 
z
" style="fill:#0000ff;"/>
   </g>
   <g id="patch_140">
    <path clip-path="url(#p7ea7010ef9)" d="M 147.980579 340.207177 
L 155.154132 340.207177 
L 155.154132 334.795593 
L 147.980579 334.795593 
z
" style="fill:#0000ff;"/>
   </g>
   <g id="patch_141">
    <path clip-path="url(#p7ea7010ef9)" d="M 156.947521 340.207177 
L 164.121074 340.207177 
L 164.121074 334.416842 
L 156.947521 334.416842 
z
" style="fill:#0000ff;"/>
   </g>
   <g id="patch_142">
    <path clip-path="url(#p7ea7010ef9)" d="M 165.914463 340.207177 
L 173.088017 340.207177 
L 173.088017 316.281228 
L 165.914463 316.281228 
z
" style="fill:#0000ff;"/>
   </g>
   <g id="patch_143">
    <path clip-path="url(#p7ea7010ef9)" d="M 174.881405 340.207177 
L 182.054959 340.207177 
L 182.054959 326.383404 
L 174.881405 326.383404 
z
" style="fill:#0000ff;"/>
   </g>
   <g id="patch_144">
    <path clip-path="url(#p7ea7010ef9)" d="M 183.848347 340.207177 
L 191.021901 340.207177 
L 191.021901 325.357259 
L 183.848347 325.357259 
z
" style="fill:#0000ff;"/>
   </g>
   <g id="patch_145">
    <path clip-path="url(#p7ea7010ef9)" d="M 192.815289 340.207177 
L 199.988843 340.207177 
L 199.988843 342.005919 
L 192.815289 342.005919 
z
" style="fill:#0000ff;"/>
   </g>
   <g id="patch_146">
    <path clip-path="url(#p7ea7010ef9)" d="M 201.782231 340.207177 
L 208.955785 340.207177 
L 208.955785 334.964802 
L 201.782231 334.964802 
z
" style="fill:#0000ff;"/>
   </g>
   <g id="patch_147">
    <path clip-path="url(#p7ea7010ef9)" d="M 210.749174 340.207177 
L 217.922727 340.207177 
L 217.922727 331.746063 
L 210.749174 331.746063 
z
" style="fill:#0000ff;"/>
   </g>
   <g id="matplotlib.axis_11"/>
   <g id="matplotlib.axis_12">
    <g id="ytick_11">
     <g id="line2d_11">
      <g>
       <use style="stroke:#000000;stroke-width:0.8;" x="31.5" xlink:href="#mf4a7704bd8" y="340.207177"/>
      </g>
     </g>
     <g id="text_11">
      <!-- 0 -->
      <g transform="translate(18.1375 344.006396)scale(0.1 -0.1)">
       <use xlink:href="#DejaVuSans-30"/>
      </g>
     </g>
    </g>
    <g id="ytick_12">
     <g id="line2d_12">
      <g>
       <use style="stroke:#000000;stroke-width:0.8;" x="31.5" xlink:href="#mf4a7704bd8" y="312.320337"/>
      </g>
     </g>
     <g id="text_12">
      <!-- 2 -->
      <g transform="translate(18.1375 316.119556)scale(0.1 -0.1)">
       <use xlink:href="#DejaVuSans-32"/>
      </g>
     </g>
    </g>
   </g>
   <g id="patch_148">
    <path d="M 31.5 343.845957 
L 31.5 303.365106 
" style="fill:none;stroke:#000000;stroke-linecap:square;stroke-linejoin:miter;stroke-width:0.8;"/>
   </g>
   <g id="patch_149">
    <path d="M 226.8 343.845957 
L 226.8 303.365106 
" style="fill:none;stroke:#000000;stroke-linecap:square;stroke-linejoin:miter;stroke-width:0.8;"/>
   </g>
   <g id="patch_150">
    <path d="M 31.5 343.845957 
L 226.8 343.845957 
" style="fill:none;stroke:#000000;stroke-linecap:square;stroke-linejoin:miter;stroke-width:0.8;"/>
   </g>
   <g id="patch_151">
    <path d="M 31.5 303.365106 
L 226.8 303.365106 
" style="fill:none;stroke:#000000;stroke-linecap:square;stroke-linejoin:miter;stroke-width:0.8;"/>
   </g>
  </g>
  <g id="axes_7">
   <g id="patch_152">
    <path d="M 31.5 392.422979 
L 226.8 392.422979 
L 226.8 351.942128 
L 31.5 351.942128 
z
" style="fill:#ffffff;"/>
   </g>
   <g id="patch_153">
    <path clip-path="url(#p1845461a43)" d="M 40.377273 384.556576 
L 47.550826 384.556576 
L 47.550826 369.046508 
L 40.377273 369.046508 
z
" style="fill:#0000ff;"/>
   </g>
   <g id="patch_154">
    <path clip-path="url(#p1845461a43)" d="M 49.344215 384.556576 
L 56.517769 384.556576 
L 56.517769 368.168428 
L 49.344215 368.168428 
z
" style="fill:#0000ff;"/>
   </g>
   <g id="patch_155">
    <path clip-path="url(#p1845461a43)" d="M 58.311157 384.556576 
L 65.484711 384.556576 
L 65.484711 373.144863 
L 58.311157 373.144863 
z
" style="fill:#0000ff;"/>
   </g>
   <g id="patch_156">
    <path clip-path="url(#p1845461a43)" d="M 67.278099 384.556576 
L 74.451653 384.556576 
L 74.451653 377.723396 
L 67.278099 377.723396 
z
" style="fill:#0000ff;"/>
   </g>
   <g id="patch_157">
    <path clip-path="url(#p1845461a43)" d="M 76.245041 384.556576 
L 83.418595 384.556576 
L 83.418595 385.415486 
L 76.245041 385.415486 
z
" style="fill:#0000ff;"/>
   </g>
   <g id="patch_158">
    <path clip-path="url(#p1845461a43)" d="M 85.211983 384.556576 
L 92.385537 384.556576 
L 92.385537 375.982539 
L 85.211983 375.982539 
z
" style="fill:#0000ff;"/>
   </g>
   <g id="patch_159">
    <path clip-path="url(#p1845461a43)" d="M 94.178926 384.556576 
L 101.352479 384.556576 
L 101.352479 366.01849 
L 94.178926 366.01849 
z
" style="fill:#0000ff;"/>
   </g>
   <g id="patch_160">
    <path clip-path="url(#p1845461a43)" d="M 103.145868 384.556576 
L 110.319421 384.556576 
L 110.319421 371.321918 
L 103.145868 371.321918 
z
" style="fill:#0000ff;"/>
   </g>
   <g id="patch_161">
    <path clip-path="url(#p1845461a43)" d="M 112.11281 384.556576 
L 119.286364 384.556576 
L 119.286364 367.638775 
L 112.11281 367.638775 
z
" style="fill:#0000ff;"/>
   </g>
   <g id="patch_162">
    <path clip-path="url(#p1845461a43)" d="M 121.079752 384.556576 
L 128.253306 384.556576 
L 128.253306 371.810832 
L 121.079752 371.810832 
z
" style="fill:#0000ff;"/>
   </g>
   <g id="patch_163">
    <path clip-path="url(#p1845461a43)" d="M 130.046694 384.556576 
L 137.220248 384.556576 
L 137.220248 374.707741 
L 130.046694 374.707741 
z
" style="fill:#0000ff;"/>
   </g>
   <g id="patch_164">
    <path clip-path="url(#p1845461a43)" d="M 139.013636 384.556576 
L 146.18719 384.556576 
L 146.18719 375.389566 
L 139.013636 375.389566 
z
" style="fill:#0000ff;"/>
   </g>
   <g id="patch_165">
    <path clip-path="url(#p1845461a43)" d="M 147.980579 384.556576 
L 155.154132 384.556576 
L 155.154132 367.63287 
L 147.980579 367.63287 
z
" style="fill:#0000ff;"/>
   </g>
   <g id="patch_166">
    <path clip-path="url(#p1845461a43)" d="M 156.947521 384.556576 
L 164.121074 384.556576 
L 164.121074 379.878806 
L 156.947521 379.878806 
z
" style="fill:#0000ff;"/>
   </g>
   <g id="patch_167">
    <path clip-path="url(#p1845461a43)" d="M 165.914463 384.556576 
L 173.088017 384.556576 
L 173.088017 390.58294 
L 165.914463 390.58294 
z
" style="fill:#0000ff;"/>
   </g>
   <g id="patch_168">
    <path clip-path="url(#p1845461a43)" d="M 174.881405 384.556576 
L 182.054959 384.556576 
L 182.054959 372.101307 
L 174.881405 372.101307 
z
" style="fill:#0000ff;"/>
   </g>
   <g id="patch_169">
    <path clip-path="url(#p1845461a43)" d="M 183.848347 384.556576 
L 191.021901 384.556576 
L 191.021901 386.93713 
L 183.848347 386.93713 
z
" style="fill:#0000ff;"/>
   </g>
   <g id="patch_170">
    <path clip-path="url(#p1845461a43)" d="M 192.815289 384.556576 
L 199.988843 384.556576 
L 199.988843 353.782166 
L 192.815289 353.782166 
z
" style="fill:#0000ff;"/>
   </g>
   <g id="patch_171">
    <path clip-path="url(#p1845461a43)" d="M 201.782231 384.556576 
L 208.955785 384.556576 
L 208.955785 364.726403 
L 201.782231 364.726403 
z
" style="fill:#0000ff;"/>
   </g>
   <g id="patch_172">
    <path clip-path="url(#p1845461a43)" d="M 210.749174 384.556576 
L 217.922727 384.556576 
L 217.922727 364.931965 
L 210.749174 364.931965 
z
" style="fill:#0000ff;"/>
   </g>
   <g id="matplotlib.axis_13"/>
   <g id="matplotlib.axis_14">
    <g id="ytick_13">
     <g id="line2d_13">
      <g>
       <use style="stroke:#000000;stroke-width:0.8;" x="31.5" xlink:href="#mf4a7704bd8" y="384.556576"/>
      </g>
     </g>
     <g id="text_13">
      <!-- 0 -->
      <g transform="translate(18.1375 388.355795)scale(0.1 -0.1)">
       <use xlink:href="#DejaVuSans-30"/>
      </g>
     </g>
    </g>
    <g id="ytick_14">
     <g id="line2d_14">
      <g>
       <use style="stroke:#000000;stroke-width:0.8;" x="31.5" xlink:href="#mf4a7704bd8" y="359.758385"/>
      </g>
     </g>
     <g id="text_14">
      <!-- 2 -->
      <g transform="translate(18.1375 363.557603)scale(0.1 -0.1)">
       <use xlink:href="#DejaVuSans-32"/>
      </g>
     </g>
    </g>
   </g>
   <g id="patch_173">
    <path d="M 31.5 392.422979 
L 31.5 351.942128 
" style="fill:none;stroke:#000000;stroke-linecap:square;stroke-linejoin:miter;stroke-width:0.8;"/>
   </g>
   <g id="patch_174">
    <path d="M 226.8 392.422979 
L 226.8 351.942128 
" style="fill:none;stroke:#000000;stroke-linecap:square;stroke-linejoin:miter;stroke-width:0.8;"/>
   </g>
   <g id="patch_175">
    <path d="M 31.5 392.422979 
L 226.8 392.422979 
" style="fill:none;stroke:#000000;stroke-linecap:square;stroke-linejoin:miter;stroke-width:0.8;"/>
   </g>
   <g id="patch_176">
    <path d="M 31.5 351.942128 
L 226.8 351.942128 
" style="fill:none;stroke:#000000;stroke-linecap:square;stroke-linejoin:miter;stroke-width:0.8;"/>
   </g>
  </g>
  <g id="axes_8">
   <g id="patch_177">
    <path d="M 31.5 441 
L 226.8 441 
L 226.8 400.519149 
L 31.5 400.519149 
z
" style="fill:#ffffff;"/>
   </g>
   <g id="patch_178">
    <path clip-path="url(#p1c6666d855)" d="M 40.377273 435.746824 
L 47.550826 435.746824 
L 47.550826 405.145493 
L 40.377273 405.145493 
z
" style="fill:#0000ff;"/>
   </g>
   <g id="patch_179">
    <path clip-path="url(#p1c6666d855)" d="M 49.344215 435.746824 
L 56.517769 435.746824 
L 56.517769 414.398622 
L 49.344215 414.398622 
z
" style="fill:#0000ff;"/>
   </g>
   <g id="patch_180">
    <path clip-path="url(#p1c6666d855)" d="M 58.311157 435.746824 
L 65.484711 435.746824 
L 65.484711 402.359188 
L 58.311157 402.359188 
z
" style="fill:#0000ff;"/>
   </g>
   <g id="patch_181">
    <path clip-path="url(#p1c6666d855)" d="M 67.278099 435.746824 
L 74.451653 435.746824 
L 74.451653 434.96216 
L 67.278099 434.96216 
z
" style="fill:#0000ff;"/>
   </g>
   <g id="patch_182">
    <path clip-path="url(#p1c6666d855)" d="M 76.245041 435.746824 
L 83.418595 435.746824 
L 83.418595 425.899659 
L 76.245041 425.899659 
z
" style="fill:#0000ff;"/>
   </g>
   <g id="patch_183">
    <path clip-path="url(#p1c6666d855)" d="M 85.211983 435.746824 
L 92.385537 435.746824 
L 92.385537 439.159961 
L 85.211983 439.159961 
z
" style="fill:#0000ff;"/>
   </g>
   <g id="patch_184">
    <path clip-path="url(#p1c6666d855)" d="M 94.178926 435.746824 
L 101.352479 435.746824 
L 101.352479 420.965073 
L 94.178926 420.965073 
z
" style="fill:#0000ff;"/>
   </g>
   <g id="patch_185">
    <path clip-path="url(#p1c6666d855)" d="M 103.145868 435.746824 
L 110.319421 435.746824 
L 110.319421 425.782069 
L 103.145868 425.782069 
z
" style="fill:#0000ff;"/>
   </g>
   <g id="patch_186">
    <path clip-path="url(#p1c6666d855)" d="M 112.11281 435.746824 
L 119.286364 435.746824 
L 119.286364 417.096431 
L 112.11281 417.096431 
z
" style="fill:#0000ff;"/>
   </g>
   <g id="patch_187">
    <path clip-path="url(#p1c6666d855)" d="M 121.079752 435.746824 
L 128.253306 435.746824 
L 128.253306 429.497657 
L 121.079752 429.497657 
z
" style="fill:#0000ff;"/>
   </g>
   <g id="patch_188">
    <path clip-path="url(#p1c6666d855)" d="M 130.046694 435.746824 
L 137.220248 435.746824 
L 137.220248 414.412378 
L 130.046694 414.412378 
z
" style="fill:#0000ff;"/>
   </g>
   <g id="patch_189">
    <path clip-path="url(#p1c6666d855)" d="M 139.013636 435.746824 
L 146.18719 435.746824 
L 146.18719 423.71916 
L 139.013636 423.71916 
z
" style="fill:#0000ff;"/>
   </g>
   <g id="patch_190">
    <path clip-path="url(#p1c6666d855)" d="M 147.980579 435.746824 
L 155.154132 435.746824 
L 155.154132 420.466704 
L 147.980579 420.466704 
z
" style="fill:#0000ff;"/>
   </g>
   <g id="patch_191">
    <path clip-path="url(#p1c6666d855)" d="M 156.947521 435.746824 
L 164.121074 435.746824 
L 164.121074 413.489143 
L 156.947521 413.489143 
z
" style="fill:#0000ff;"/>
   </g>
   <g id="patch_192">
    <path clip-path="url(#p1c6666d855)" d="M 165.914463 435.746824 
L 173.088017 435.746824 
L 173.088017 421.699649 
L 165.914463 421.699649 
z
" style="fill:#0000ff;"/>
   </g>
   <g id="patch_193">
    <path clip-path="url(#p1c6666d855)" d="M 174.881405 435.746824 
L 182.054959 435.746824 
L 182.054959 417.498088 
L 174.881405 417.498088 
z
" style="fill:#0000ff;"/>
   </g>
   <g id="patch_194">
    <path clip-path="url(#p1c6666d855)" d="M 183.848347 435.746824 
L 191.021901 435.746824 
L 191.021901 422.96332 
L 183.848347 422.96332 
z
" style="fill:#0000ff;"/>
   </g>
   <g id="patch_195">
    <path clip-path="url(#p1c6666d855)" d="M 192.815289 435.746824 
L 199.988843 435.746824 
L 199.988843 424.323774 
L 192.815289 424.323774 
z
" style="fill:#0000ff;"/>
   </g>
   <g id="patch_196">
    <path clip-path="url(#p1c6666d855)" d="M 201.782231 435.746824 
L 208.955785 435.746824 
L 208.955785 412.21672 
L 201.782231 412.21672 
z
" style="fill:#0000ff;"/>
   </g>
   <g id="patch_197">
    <path clip-path="url(#p1c6666d855)" d="M 210.749174 435.746824 
L 217.922727 435.746824 
L 217.922727 432.389526 
L 210.749174 432.389526 
z
" style="fill:#0000ff;"/>
   </g>
   <g id="matplotlib.axis_15">
    <g id="xtick_1">
     <g id="line2d_15">
      <defs>
       <path d="M 0 0 
L 0 3.5 
" id="mb49040f724" style="stroke:#000000;stroke-width:0.8;"/>
      </defs>
      <g>
       <use style="stroke:#000000;stroke-width:0.8;" x="43.96405" xlink:href="#mb49040f724" y="441"/>
      </g>
     </g>
     <g id="text_15">
      <!-- 0 -->
      <g transform="translate(40.7828 455.598437)scale(0.1 -0.1)">
       <use xlink:href="#DejaVuSans-30"/>
      </g>
     </g>
    </g>
    <g id="xtick_2">
     <g id="line2d_16">
      <g>
       <use style="stroke:#000000;stroke-width:0.8;" x="88.79876" xlink:href="#mb49040f724" y="441"/>
      </g>
     </g>
     <g id="text_16">
      <!-- 5 -->
      <g transform="translate(85.61751 455.598437)scale(0.1 -0.1)">
       <use xlink:href="#DejaVuSans-35"/>
      </g>
     </g>
    </g>
    <g id="xtick_3">
     <g id="line2d_17">
      <g>
       <use style="stroke:#000000;stroke-width:0.8;" x="133.633471" xlink:href="#mb49040f724" y="441"/>
      </g>
     </g>
     <g id="text_17">
      <!-- 10 -->
      <g transform="translate(127.270971 455.598437)scale(0.1 -0.1)">
       <defs>
        <path d="M 794 531 
L 1825 531 
L 1825 4091 
L 703 3866 
L 703 4441 
L 1819 4666 
L 2450 4666 
L 2450 531 
L 3481 531 
L 3481 0 
L 794 0 
L 794 531 
z
" id="DejaVuSans-31" transform="scale(0.015625)"/>
       </defs>
       <use xlink:href="#DejaVuSans-31"/>
       <use x="63.623047" xlink:href="#DejaVuSans-30"/>
      </g>
     </g>
    </g>
    <g id="xtick_4">
     <g id="line2d_18">
      <g>
       <use style="stroke:#000000;stroke-width:0.8;" x="178.468182" xlink:href="#mb49040f724" y="441"/>
      </g>
     </g>
     <g id="text_18">
      <!-- 15 -->
      <g transform="translate(172.105682 455.598437)scale(0.1 -0.1)">
       <use xlink:href="#DejaVuSans-31"/>
       <use x="63.623047" xlink:href="#DejaVuSans-35"/>
      </g>
     </g>
    </g>
    <g id="xtick_5">
     <g id="line2d_19">
      <g>
       <use style="stroke:#000000;stroke-width:0.8;" x="223.302893" xlink:href="#mb49040f724" y="441"/>
      </g>
     </g>
     <g id="text_19">
      <!-- 20 -->
      <g transform="translate(216.940393 455.598437)scale(0.1 -0.1)">
       <use xlink:href="#DejaVuSans-32"/>
       <use x="63.623047" xlink:href="#DejaVuSans-30"/>
      </g>
     </g>
    </g>
    <g id="text_20">
     <!-- Cycle -->
     <g transform="translate(115.484375 469.276562)scale(0.1 -0.1)">
      <defs>
       <path d="M 4122 4306 
L 4122 3641 
Q 3803 3938 3442 4084 
Q 3081 4231 2675 4231 
Q 1875 4231 1450 3742 
Q 1025 3253 1025 2328 
Q 1025 1406 1450 917 
Q 1875 428 2675 428 
Q 3081 428 3442 575 
Q 3803 722 4122 1019 
L 4122 359 
Q 3791 134 3420 21 
Q 3050 -91 2638 -91 
Q 1578 -91 968 557 
Q 359 1206 359 2328 
Q 359 3453 968 4101 
Q 1578 4750 2638 4750 
Q 3056 4750 3426 4639 
Q 3797 4528 4122 4306 
z
" id="DejaVuSans-43" transform="scale(0.015625)"/>
       <path d="M 2059 -325 
Q 1816 -950 1584 -1140 
Q 1353 -1331 966 -1331 
L 506 -1331 
L 506 -850 
L 844 -850 
Q 1081 -850 1212 -737 
Q 1344 -625 1503 -206 
L 1606 56 
L 191 3500 
L 800 3500 
L 1894 763 
L 2988 3500 
L 3597 3500 
L 2059 -325 
z
" id="DejaVuSans-79" transform="scale(0.015625)"/>
       <path d="M 3122 3366 
L 3122 2828 
Q 2878 2963 2633 3030 
Q 2388 3097 2138 3097 
Q 1578 3097 1268 2742 
Q 959 2388 959 1747 
Q 959 1106 1268 751 
Q 1578 397 2138 397 
Q 2388 397 2633 464 
Q 2878 531 3122 666 
L 3122 134 
Q 2881 22 2623 -34 
Q 2366 -91 2075 -91 
Q 1284 -91 818 406 
Q 353 903 353 1747 
Q 353 2603 823 3093 
Q 1294 3584 2113 3584 
Q 2378 3584 2631 3529 
Q 2884 3475 3122 3366 
z
" id="DejaVuSans-63" transform="scale(0.015625)"/>
       <path d="M 603 4863 
L 1178 4863 
L 1178 0 
L 603 0 
L 603 4863 
z
" id="DejaVuSans-6c" transform="scale(0.015625)"/>
       <path d="M 3597 1894 
L 3597 1613 
L 953 1613 
Q 991 1019 1311 708 
Q 1631 397 2203 397 
Q 2534 397 2845 478 
Q 3156 559 3463 722 
L 3463 178 
Q 3153 47 2828 -22 
Q 2503 -91 2169 -91 
Q 1331 -91 842 396 
Q 353 884 353 1716 
Q 353 2575 817 3079 
Q 1281 3584 2069 3584 
Q 2775 3584 3186 3129 
Q 3597 2675 3597 1894 
z
M 3022 2063 
Q 3016 2534 2758 2815 
Q 2500 3097 2075 3097 
Q 1594 3097 1305 2825 
Q 1016 2553 972 2059 
L 3022 2063 
z
" id="DejaVuSans-65" transform="scale(0.015625)"/>
      </defs>
      <use xlink:href="#DejaVuSans-43"/>
      <use x="69.824219" xlink:href="#DejaVuSans-79"/>
      <use x="129.003906" xlink:href="#DejaVuSans-63"/>
      <use x="183.984375" xlink:href="#DejaVuSans-6c"/>
      <use x="211.767578" xlink:href="#DejaVuSans-65"/>
     </g>
    </g>
   </g>
   <g id="matplotlib.axis_16">
    <g id="ytick_15">
     <g id="line2d_20">
      <g>
       <use style="stroke:#000000;stroke-width:0.8;" x="31.5" xlink:href="#mf4a7704bd8" y="435.746824"/>
      </g>
     </g>
     <g id="text_21">
      <!-- 0 -->
      <g transform="translate(18.1375 439.546043)scale(0.1 -0.1)">
       <use xlink:href="#DejaVuSans-30"/>
      </g>
     </g>
    </g>
    <g id="ytick_16">
     <g id="line2d_21">
      <g>
       <use style="stroke:#000000;stroke-width:0.8;" x="31.5" xlink:href="#mf4a7704bd8" y="405.633913"/>
      </g>
     </g>
     <g id="text_22">
      <!-- 2 -->
      <g transform="translate(18.1375 409.433132)scale(0.1 -0.1)">
       <use xlink:href="#DejaVuSans-32"/>
      </g>
     </g>
    </g>
   </g>
   <g id="patch_198">
    <path d="M 31.5 441 
L 31.5 400.519149 
" style="fill:none;stroke:#000000;stroke-linecap:square;stroke-linejoin:miter;stroke-width:0.8;"/>
   </g>
   <g id="patch_199">
    <path d="M 226.8 441 
L 226.8 400.519149 
" style="fill:none;stroke:#000000;stroke-linecap:square;stroke-linejoin:miter;stroke-width:0.8;"/>
   </g>
   <g id="patch_200">
    <path d="M 31.5 441 
L 226.8 441 
" style="fill:none;stroke:#000000;stroke-linecap:square;stroke-linejoin:miter;stroke-width:0.8;"/>
   </g>
   <g id="patch_201">
    <path d="M 31.5 400.519149 
L 226.8 400.519149 
" style="fill:none;stroke:#000000;stroke-linecap:square;stroke-linejoin:miter;stroke-width:0.8;"/>
   </g>
  </g>
 </g>
 <defs>
  <clipPath id="p82fba054a0">
   <rect height="40.480851" width="195.3" x="31.5" y="60.48"/>
  </clipPath>
  <clipPath id="pe88ae042c3">
   <rect height="40.480851" width="195.3" x="31.5" y="109.057021"/>
  </clipPath>
  <clipPath id="p78616dec44">
   <rect height="40.480851" width="195.3" x="31.5" y="157.634043"/>
  </clipPath>
  <clipPath id="p7778411aa3">
   <rect height="40.480851" width="195.3" x="31.5" y="206.211064"/>
  </clipPath>
  <clipPath id="p5d05cbe07b">
   <rect height="40.480851" width="195.3" x="31.5" y="254.788085"/>
  </clipPath>
  <clipPath id="p7ea7010ef9">
   <rect height="40.480851" width="195.3" x="31.5" y="303.365106"/>
  </clipPath>
  <clipPath id="p1845461a43">
   <rect height="40.480851" width="195.3" x="31.5" y="351.942128"/>
  </clipPath>
  <clipPath id="p1c6666d855">
   <rect height="40.480851" width="195.3" x="31.5" y="400.519149"/>
  </clipPath>
 </defs>
</svg>
