<?xml version="1.0" encoding="utf-8" standalone="no"?>
<!DOCTYPE svg PUBLIC "-//W3C//DTD SVG 1.1//EN"
  "http://www.w3.org/Graphics/SVG/1.1/DTD/svg11.dtd">
<!-- Created with matplotlib (https://matplotlib.org/) -->
<svg height="223.2pt" version="1.1" viewBox="0 0 468 223.2" width="468pt" xmlns="http://www.w3.org/2000/svg" xmlns:xlink="http://www.w3.org/1999/xlink">
 <metadata>
  <rdf:RDF xmlns:cc="http://creativecommons.org/ns#" xmlns:dc="http://purl.org/dc/elements/1.1/" xmlns:rdf="http://www.w3.org/1999/02/22-rdf-syntax-ns#">
   <cc:Work>
    <dc:type rdf:resource="http://purl.org/dc/dcmitype/StillImage"/>
    <dc:date>2023-05-07T12:13:10.902275</dc:date>
    <dc:format>image/svg+xml</dc:format>
    <dc:creator>
     <cc:Agent>
      <dc:title>Matplotlib v3.3.4, https://matplotlib.org/</dc:title>
     </cc:Agent>
    </dc:creator>
   </cc:Work>
  </rdf:RDF>
 </metadata>
 <defs>
  <style type="text/css">*{stroke-linecap:butt;stroke-linejoin:round;}</style>
 </defs>
 <g id="figure_1">
  <g id="patch_1">
   <path d="M 0 223.2 
L 468 223.2 
L 468 0 
L 0 0 
z
" style="fill:none;"/>
  </g>
  <g id="axes_1">
   <g id="patch_2">
    <path d="M 60.55 177.4 
L 228.7875 177.4 
L 228.7875 10.8 
L 60.55 10.8 
z
" style="fill:#ffffff;"/>
   </g>
   <g id="matplotlib.axis_1">
    <g id="xtick_1">
     <g id="line2d_1">
      <defs>
       <path d="M 0 0 
L 0 3.5 
" id="m8625bd2270" style="stroke:#000000;stroke-width:0.8;"/>
      </defs>
      <g>
       <use style="stroke:#000000;stroke-width:0.8;" x="68.197159" xlink:href="#m8625bd2270" y="177.4"/>
      </g>
     </g>
     <g id="text_1">
      <!-- 0 -->
      <g transform="translate(65.015909 191.998438)scale(0.1 -0.1)">
       <defs>
        <path d="M 31.78125 66.40625 
Q 24.171875 66.40625 20.328125 58.90625 
Q 16.5 51.421875 16.5 36.375 
Q 16.5 21.390625 20.328125 13.890625 
Q 24.171875 6.390625 31.78125 6.390625 
Q 39.453125 6.390625 43.28125 13.890625 
Q 47.125 21.390625 47.125 36.375 
Q 47.125 51.421875 43.28125 58.90625 
Q 39.453125 66.40625 31.78125 66.40625 
z
M 31.78125 74.21875 
Q 44.046875 74.21875 50.515625 64.515625 
Q 56.984375 54.828125 56.984375 36.375 
Q 56.984375 17.96875 50.515625 8.265625 
Q 44.046875 -1.421875 31.78125 -1.421875 
Q 19.53125 -1.421875 13.0625 8.265625 
Q 6.59375 17.96875 6.59375 36.375 
Q 6.59375 54.828125 13.0625 64.515625 
Q 19.53125 74.21875 31.78125 74.21875 
z
" id="DejaVuSans-48"/>
       </defs>
       <use xlink:href="#DejaVuSans-48"/>
      </g>
     </g>
    </g>
    <g id="xtick_2">
     <g id="line2d_2">
      <g>
       <use style="stroke:#000000;stroke-width:0.8;" x="119.17822" xlink:href="#m8625bd2270" y="177.4"/>
      </g>
     </g>
     <g id="text_2">
      <!-- 5 -->
      <g transform="translate(115.99697 191.998438)scale(0.1 -0.1)">
       <defs>
        <path d="M 10.796875 72.90625 
L 49.515625 72.90625 
L 49.515625 64.59375 
L 19.828125 64.59375 
L 19.828125 46.734375 
Q 21.96875 47.46875 24.109375 47.828125 
Q 26.265625 48.1875 28.421875 48.1875 
Q 40.625 48.1875 47.75 41.5 
Q 54.890625 34.8125 54.890625 23.390625 
Q 54.890625 11.625 47.5625 5.09375 
Q 40.234375 -1.421875 26.90625 -1.421875 
Q 22.3125 -1.421875 17.546875 -0.640625 
Q 12.796875 0.140625 7.71875 1.703125 
L 7.71875 11.625 
Q 12.109375 9.234375 16.796875 8.0625 
Q 21.484375 6.890625 26.703125 6.890625 
Q 35.15625 6.890625 40.078125 11.328125 
Q 45.015625 15.765625 45.015625 23.390625 
Q 45.015625 31 40.078125 35.4375 
Q 35.15625 39.890625 26.703125 39.890625 
Q 22.75 39.890625 18.8125 39.015625 
Q 14.890625 38.140625 10.796875 36.28125 
z
" id="DejaVuSans-53"/>
       </defs>
       <use xlink:href="#DejaVuSans-53"/>
      </g>
     </g>
    </g>
    <g id="xtick_3">
     <g id="line2d_3">
      <g>
       <use style="stroke:#000000;stroke-width:0.8;" x="170.15928" xlink:href="#m8625bd2270" y="177.4"/>
      </g>
     </g>
     <g id="text_3">
      <!-- 10 -->
      <g transform="translate(163.79678 191.998438)scale(0.1 -0.1)">
       <defs>
        <path d="M 12.40625 8.296875 
L 28.515625 8.296875 
L 28.515625 63.921875 
L 10.984375 60.40625 
L 10.984375 69.390625 
L 28.421875 72.90625 
L 38.28125 72.90625 
L 38.28125 8.296875 
L 54.390625 8.296875 
L 54.390625 0 
L 12.40625 0 
z
" id="DejaVuSans-49"/>
       </defs>
       <use xlink:href="#DejaVuSans-49"/>
       <use x="63.623047" xlink:href="#DejaVuSans-48"/>
      </g>
     </g>
    </g>
    <g id="xtick_4">
     <g id="line2d_4">
      <g>
       <use style="stroke:#000000;stroke-width:0.8;" x="221.140341" xlink:href="#m8625bd2270" y="177.4"/>
      </g>
     </g>
     <g id="text_4">
      <!-- 15 -->
      <g transform="translate(214.777841 191.998438)scale(0.1 -0.1)">
       <use xlink:href="#DejaVuSans-49"/>
       <use x="63.623047" xlink:href="#DejaVuSans-53"/>
      </g>
     </g>
    </g>
    <g id="text_5">
     <!-- No. of energy level -->
     <g transform="translate(97.466406 205.676563)scale(0.1 -0.1)">
      <defs>
       <path d="M 9.8125 72.90625 
L 23.09375 72.90625 
L 55.421875 11.921875 
L 55.421875 72.90625 
L 64.984375 72.90625 
L 64.984375 0 
L 51.703125 0 
L 19.390625 60.984375 
L 19.390625 0 
L 9.8125 0 
z
" id="DejaVuSans-78"/>
       <path d="M 30.609375 48.390625 
Q 23.390625 48.390625 19.1875 42.75 
Q 14.984375 37.109375 14.984375 27.296875 
Q 14.984375 17.484375 19.15625 11.84375 
Q 23.34375 6.203125 30.609375 6.203125 
Q 37.796875 6.203125 41.984375 11.859375 
Q 46.1875 17.53125 46.1875 27.296875 
Q 46.1875 37.015625 41.984375 42.703125 
Q 37.796875 48.390625 30.609375 48.390625 
z
M 30.609375 56 
Q 42.328125 56 49.015625 48.375 
Q 55.71875 40.765625 55.71875 27.296875 
Q 55.71875 13.875 49.015625 6.21875 
Q 42.328125 -1.421875 30.609375 -1.421875 
Q 18.84375 -1.421875 12.171875 6.21875 
Q 5.515625 13.875 5.515625 27.296875 
Q 5.515625 40.765625 12.171875 48.375 
Q 18.84375 56 30.609375 56 
z
" id="DejaVuSans-111"/>
       <path d="M 10.6875 12.40625 
L 21 12.40625 
L 21 0 
L 10.6875 0 
z
" id="DejaVuSans-46"/>
       <path id="DejaVuSans-32"/>
       <path d="M 37.109375 75.984375 
L 37.109375 68.5 
L 28.515625 68.5 
Q 23.6875 68.5 21.796875 66.546875 
Q 19.921875 64.59375 19.921875 59.515625 
L 19.921875 54.6875 
L 34.71875 54.6875 
L 34.71875 47.703125 
L 19.921875 47.703125 
L 19.921875 0 
L 10.890625 0 
L 10.890625 47.703125 
L 2.296875 47.703125 
L 2.296875 54.6875 
L 10.890625 54.6875 
L 10.890625 58.5 
Q 10.890625 67.625 15.140625 71.796875 
Q 19.390625 75.984375 28.609375 75.984375 
z
" id="DejaVuSans-102"/>
       <path d="M 56.203125 29.59375 
L 56.203125 25.203125 
L 14.890625 25.203125 
Q 15.484375 15.921875 20.484375 11.0625 
Q 25.484375 6.203125 34.421875 6.203125 
Q 39.59375 6.203125 44.453125 7.46875 
Q 49.3125 8.734375 54.109375 11.28125 
L 54.109375 2.78125 
Q 49.265625 0.734375 44.1875 -0.34375 
Q 39.109375 -1.421875 33.890625 -1.421875 
Q 20.796875 -1.421875 13.15625 6.1875 
Q 5.515625 13.8125 5.515625 26.8125 
Q 5.515625 40.234375 12.765625 48.109375 
Q 20.015625 56 32.328125 56 
Q 43.359375 56 49.78125 48.890625 
Q 56.203125 41.796875 56.203125 29.59375 
z
M 47.21875 32.234375 
Q 47.125 39.59375 43.09375 43.984375 
Q 39.0625 48.390625 32.421875 48.390625 
Q 24.90625 48.390625 20.390625 44.140625 
Q 15.875 39.890625 15.1875 32.171875 
z
" id="DejaVuSans-101"/>
       <path d="M 54.890625 33.015625 
L 54.890625 0 
L 45.90625 0 
L 45.90625 32.71875 
Q 45.90625 40.484375 42.875 44.328125 
Q 39.84375 48.1875 33.796875 48.1875 
Q 26.515625 48.1875 22.3125 43.546875 
Q 18.109375 38.921875 18.109375 30.90625 
L 18.109375 0 
L 9.078125 0 
L 9.078125 54.6875 
L 18.109375 54.6875 
L 18.109375 46.1875 
Q 21.34375 51.125 25.703125 53.5625 
Q 30.078125 56 35.796875 56 
Q 45.21875 56 50.046875 50.171875 
Q 54.890625 44.34375 54.890625 33.015625 
z
" id="DejaVuSans-110"/>
       <path d="M 41.109375 46.296875 
Q 39.59375 47.171875 37.8125 47.578125 
Q 36.03125 48 33.890625 48 
Q 26.265625 48 22.1875 43.046875 
Q 18.109375 38.09375 18.109375 28.8125 
L 18.109375 0 
L 9.078125 0 
L 9.078125 54.6875 
L 18.109375 54.6875 
L 18.109375 46.1875 
Q 20.953125 51.171875 25.484375 53.578125 
Q 30.03125 56 36.53125 56 
Q 37.453125 56 38.578125 55.875 
Q 39.703125 55.765625 41.0625 55.515625 
z
" id="DejaVuSans-114"/>
       <path d="M 45.40625 27.984375 
Q 45.40625 37.75 41.375 43.109375 
Q 37.359375 48.484375 30.078125 48.484375 
Q 22.859375 48.484375 18.828125 43.109375 
Q 14.796875 37.75 14.796875 27.984375 
Q 14.796875 18.265625 18.828125 12.890625 
Q 22.859375 7.515625 30.078125 7.515625 
Q 37.359375 7.515625 41.375 12.890625 
Q 45.40625 18.265625 45.40625 27.984375 
z
M 54.390625 6.78125 
Q 54.390625 -7.171875 48.1875 -13.984375 
Q 42 -20.796875 29.203125 -20.796875 
Q 24.46875 -20.796875 20.265625 -20.09375 
Q 16.0625 -19.390625 12.109375 -17.921875 
L 12.109375 -9.1875 
Q 16.0625 -11.328125 19.921875 -12.34375 
Q 23.78125 -13.375 27.78125 -13.375 
Q 36.625 -13.375 41.015625 -8.765625 
Q 45.40625 -4.15625 45.40625 5.171875 
L 45.40625 9.625 
Q 42.625 4.78125 38.28125 2.390625 
Q 33.9375 0 27.875 0 
Q 17.828125 0 11.671875 7.65625 
Q 5.515625 15.328125 5.515625 27.984375 
Q 5.515625 40.671875 11.671875 48.328125 
Q 17.828125 56 27.875 56 
Q 33.9375 56 38.28125 53.609375 
Q 42.625 51.21875 45.40625 46.390625 
L 45.40625 54.6875 
L 54.390625 54.6875 
z
" id="DejaVuSans-103"/>
       <path d="M 32.171875 -5.078125 
Q 28.375 -14.84375 24.75 -17.8125 
Q 21.140625 -20.796875 15.09375 -20.796875 
L 7.90625 -20.796875 
L 7.90625 -13.28125 
L 13.1875 -13.28125 
Q 16.890625 -13.28125 18.9375 -11.515625 
Q 21 -9.765625 23.484375 -3.21875 
L 25.09375 0.875 
L 2.984375 54.6875 
L 12.5 54.6875 
L 29.59375 11.921875 
L 46.6875 54.6875 
L 56.203125 54.6875 
z
" id="DejaVuSans-121"/>
       <path d="M 9.421875 75.984375 
L 18.40625 75.984375 
L 18.40625 0 
L 9.421875 0 
z
" id="DejaVuSans-108"/>
       <path d="M 2.984375 54.6875 
L 12.5 54.6875 
L 29.59375 8.796875 
L 46.6875 54.6875 
L 56.203125 54.6875 
L 35.6875 0 
L 23.484375 0 
z
" id="DejaVuSans-118"/>
      </defs>
      <use xlink:href="#DejaVuSans-78"/>
      <use x="74.804688" xlink:href="#DejaVuSans-111"/>
      <use x="134.236328" xlink:href="#DejaVuSans-46"/>
      <use x="166.023438" xlink:href="#DejaVuSans-32"/>
      <use x="197.810547" xlink:href="#DejaVuSans-111"/>
      <use x="258.992188" xlink:href="#DejaVuSans-102"/>
      <use x="294.197266" xlink:href="#DejaVuSans-32"/>
      <use x="325.984375" xlink:href="#DejaVuSans-101"/>
      <use x="387.507812" xlink:href="#DejaVuSans-110"/>
      <use x="450.886719" xlink:href="#DejaVuSans-101"/>
      <use x="512.410156" xlink:href="#DejaVuSans-114"/>
      <use x="551.773438" xlink:href="#DejaVuSans-103"/>
      <use x="615.25" xlink:href="#DejaVuSans-121"/>
      <use x="674.429688" xlink:href="#DejaVuSans-32"/>
      <use x="706.216797" xlink:href="#DejaVuSans-108"/>
      <use x="734" xlink:href="#DejaVuSans-101"/>
      <use x="795.523438" xlink:href="#DejaVuSans-118"/>
      <use x="854.703125" xlink:href="#DejaVuSans-101"/>
      <use x="916.226562" xlink:href="#DejaVuSans-108"/>
     </g>
    </g>
   </g>
   <g id="matplotlib.axis_2">
    <g id="ytick_1">
     <g id="line2d_5">
      <defs>
       <path d="M 0 0 
L -3.5 0 
" id="ma0cc5f68a6" style="stroke:#000000;stroke-width:0.8;"/>
      </defs>
      <g>
       <use style="stroke:#000000;stroke-width:0.8;" x="60.55" xlink:href="#ma0cc5f68a6" y="161.21942"/>
      </g>
     </g>
     <g id="text_6">
      <!-- 0.025 -->
      <g transform="translate(24.921875 165.018639)scale(0.1 -0.1)">
       <defs>
        <path d="M 19.1875 8.296875 
L 53.609375 8.296875 
L 53.609375 0 
L 7.328125 0 
L 7.328125 8.296875 
Q 12.9375 14.109375 22.625 23.890625 
Q 32.328125 33.6875 34.8125 36.53125 
Q 39.546875 41.84375 41.421875 45.53125 
Q 43.3125 49.21875 43.3125 52.78125 
Q 43.3125 58.59375 39.234375 62.25 
Q 35.15625 65.921875 28.609375 65.921875 
Q 23.96875 65.921875 18.8125 64.3125 
Q 13.671875 62.703125 7.8125 59.421875 
L 7.8125 69.390625 
Q 13.765625 71.78125 18.9375 73 
Q 24.125 74.21875 28.421875 74.21875 
Q 39.75 74.21875 46.484375 68.546875 
Q 53.21875 62.890625 53.21875 53.421875 
Q 53.21875 48.921875 51.53125 44.890625 
Q 49.859375 40.875 45.40625 35.40625 
Q 44.1875 33.984375 37.640625 27.21875 
Q 31.109375 20.453125 19.1875 8.296875 
z
" id="DejaVuSans-50"/>
       </defs>
       <use xlink:href="#DejaVuSans-48"/>
       <use x="63.623047" xlink:href="#DejaVuSans-46"/>
       <use x="95.410156" xlink:href="#DejaVuSans-48"/>
       <use x="159.033203" xlink:href="#DejaVuSans-50"/>
       <use x="222.65625" xlink:href="#DejaVuSans-53"/>
      </g>
     </g>
    </g>
    <g id="ytick_2">
     <g id="line2d_6">
      <g>
       <use style="stroke:#000000;stroke-width:0.8;" x="60.55" xlink:href="#ma0cc5f68a6" y="139.06767"/>
      </g>
     </g>
     <g id="text_7">
      <!-- 0.050 -->
      <g transform="translate(24.921875 142.866889)scale(0.1 -0.1)">
       <use xlink:href="#DejaVuSans-48"/>
       <use x="63.623047" xlink:href="#DejaVuSans-46"/>
       <use x="95.410156" xlink:href="#DejaVuSans-48"/>
       <use x="159.033203" xlink:href="#DejaVuSans-53"/>
       <use x="222.65625" xlink:href="#DejaVuSans-48"/>
      </g>
     </g>
    </g>
    <g id="ytick_3">
     <g id="line2d_7">
      <g>
       <use style="stroke:#000000;stroke-width:0.8;" x="60.55" xlink:href="#ma0cc5f68a6" y="116.91592"/>
      </g>
     </g>
     <g id="text_8">
      <!-- 0.075 -->
      <g transform="translate(24.921875 120.715139)scale(0.1 -0.1)">
       <defs>
        <path d="M 8.203125 72.90625 
L 55.078125 72.90625 
L 55.078125 68.703125 
L 28.609375 0 
L 18.3125 0 
L 43.21875 64.59375 
L 8.203125 64.59375 
z
" id="DejaVuSans-55"/>
       </defs>
       <use xlink:href="#DejaVuSans-48"/>
       <use x="63.623047" xlink:href="#DejaVuSans-46"/>
       <use x="95.410156" xlink:href="#DejaVuSans-48"/>
       <use x="159.033203" xlink:href="#DejaVuSans-55"/>
       <use x="222.65625" xlink:href="#DejaVuSans-53"/>
      </g>
     </g>
    </g>
    <g id="ytick_4">
     <g id="line2d_8">
      <g>
       <use style="stroke:#000000;stroke-width:0.8;" x="60.55" xlink:href="#ma0cc5f68a6" y="94.764171"/>
      </g>
     </g>
     <g id="text_9">
      <!-- 0.100 -->
      <g transform="translate(24.921875 98.563389)scale(0.1 -0.1)">
       <use xlink:href="#DejaVuSans-48"/>
       <use x="63.623047" xlink:href="#DejaVuSans-46"/>
       <use x="95.410156" xlink:href="#DejaVuSans-49"/>
       <use x="159.033203" xlink:href="#DejaVuSans-48"/>
       <use x="222.65625" xlink:href="#DejaVuSans-48"/>
      </g>
     </g>
    </g>
    <g id="ytick_5">
     <g id="line2d_9">
      <g>
       <use style="stroke:#000000;stroke-width:0.8;" x="60.55" xlink:href="#ma0cc5f68a6" y="72.612421"/>
      </g>
     </g>
     <g id="text_10">
      <!-- 0.125 -->
      <g transform="translate(24.921875 76.411639)scale(0.1 -0.1)">
       <use xlink:href="#DejaVuSans-48"/>
       <use x="63.623047" xlink:href="#DejaVuSans-46"/>
       <use x="95.410156" xlink:href="#DejaVuSans-49"/>
       <use x="159.033203" xlink:href="#DejaVuSans-50"/>
       <use x="222.65625" xlink:href="#DejaVuSans-53"/>
      </g>
     </g>
    </g>
    <g id="ytick_6">
     <g id="line2d_10">
      <g>
       <use style="stroke:#000000;stroke-width:0.8;" x="60.55" xlink:href="#ma0cc5f68a6" y="50.460671"/>
      </g>
     </g>
     <g id="text_11">
      <!-- 0.150 -->
      <g transform="translate(24.921875 54.25989)scale(0.1 -0.1)">
       <use xlink:href="#DejaVuSans-48"/>
       <use x="63.623047" xlink:href="#DejaVuSans-46"/>
       <use x="95.410156" xlink:href="#DejaVuSans-49"/>
       <use x="159.033203" xlink:href="#DejaVuSans-53"/>
       <use x="222.65625" xlink:href="#DejaVuSans-48"/>
      </g>
     </g>
    </g>
    <g id="ytick_7">
     <g id="line2d_11">
      <g>
       <use style="stroke:#000000;stroke-width:0.8;" x="60.55" xlink:href="#ma0cc5f68a6" y="28.308921"/>
      </g>
     </g>
     <g id="text_12">
      <!-- 0.175 -->
      <g transform="translate(24.921875 32.10814)scale(0.1 -0.1)">
       <use xlink:href="#DejaVuSans-48"/>
       <use x="63.623047" xlink:href="#DejaVuSans-46"/>
       <use x="95.410156" xlink:href="#DejaVuSans-49"/>
       <use x="159.033203" xlink:href="#DejaVuSans-55"/>
       <use x="222.65625" xlink:href="#DejaVuSans-53"/>
      </g>
     </g>
    </g>
    <g id="text_13">
     <!-- Overlap -->
     <g transform="translate(18.842188 113.754687)rotate(-90)scale(0.1 -0.1)">
      <defs>
       <path d="M 39.40625 66.21875 
Q 28.65625 66.21875 22.328125 58.203125 
Q 16.015625 50.203125 16.015625 36.375 
Q 16.015625 22.609375 22.328125 14.59375 
Q 28.65625 6.59375 39.40625 6.59375 
Q 50.140625 6.59375 56.421875 14.59375 
Q 62.703125 22.609375 62.703125 36.375 
Q 62.703125 50.203125 56.421875 58.203125 
Q 50.140625 66.21875 39.40625 66.21875 
z
M 39.40625 74.21875 
Q 54.734375 74.21875 63.90625 63.9375 
Q 73.09375 53.65625 73.09375 36.375 
Q 73.09375 19.140625 63.90625 8.859375 
Q 54.734375 -1.421875 39.40625 -1.421875 
Q 24.03125 -1.421875 14.8125 8.828125 
Q 5.609375 19.09375 5.609375 36.375 
Q 5.609375 53.65625 14.8125 63.9375 
Q 24.03125 74.21875 39.40625 74.21875 
z
" id="DejaVuSans-79"/>
       <path d="M 34.28125 27.484375 
Q 23.390625 27.484375 19.1875 25 
Q 14.984375 22.515625 14.984375 16.5 
Q 14.984375 11.71875 18.140625 8.90625 
Q 21.296875 6.109375 26.703125 6.109375 
Q 34.1875 6.109375 38.703125 11.40625 
Q 43.21875 16.703125 43.21875 25.484375 
L 43.21875 27.484375 
z
M 52.203125 31.203125 
L 52.203125 0 
L 43.21875 0 
L 43.21875 8.296875 
Q 40.140625 3.328125 35.546875 0.953125 
Q 30.953125 -1.421875 24.3125 -1.421875 
Q 15.921875 -1.421875 10.953125 3.296875 
Q 6 8.015625 6 15.921875 
Q 6 25.140625 12.171875 29.828125 
Q 18.359375 34.515625 30.609375 34.515625 
L 43.21875 34.515625 
L 43.21875 35.40625 
Q 43.21875 41.609375 39.140625 45 
Q 35.0625 48.390625 27.6875 48.390625 
Q 23 48.390625 18.546875 47.265625 
Q 14.109375 46.140625 10.015625 43.890625 
L 10.015625 52.203125 
Q 14.9375 54.109375 19.578125 55.046875 
Q 24.21875 56 28.609375 56 
Q 40.484375 56 46.34375 49.84375 
Q 52.203125 43.703125 52.203125 31.203125 
z
" id="DejaVuSans-97"/>
       <path d="M 18.109375 8.203125 
L 18.109375 -20.796875 
L 9.078125 -20.796875 
L 9.078125 54.6875 
L 18.109375 54.6875 
L 18.109375 46.390625 
Q 20.953125 51.265625 25.265625 53.625 
Q 29.59375 56 35.59375 56 
Q 45.5625 56 51.78125 48.09375 
Q 58.015625 40.1875 58.015625 27.296875 
Q 58.015625 14.40625 51.78125 6.484375 
Q 45.5625 -1.421875 35.59375 -1.421875 
Q 29.59375 -1.421875 25.265625 0.953125 
Q 20.953125 3.328125 18.109375 8.203125 
z
M 48.6875 27.296875 
Q 48.6875 37.203125 44.609375 42.84375 
Q 40.53125 48.484375 33.40625 48.484375 
Q 26.265625 48.484375 22.1875 42.84375 
Q 18.109375 37.203125 18.109375 27.296875 
Q 18.109375 17.390625 22.1875 11.75 
Q 26.265625 6.109375 33.40625 6.109375 
Q 40.53125 6.109375 44.609375 11.75 
Q 48.6875 17.390625 48.6875 27.296875 
z
" id="DejaVuSans-112"/>
      </defs>
      <use xlink:href="#DejaVuSans-79"/>
      <use x="78.710938" xlink:href="#DejaVuSans-118"/>
      <use x="137.890625" xlink:href="#DejaVuSans-101"/>
      <use x="199.414062" xlink:href="#DejaVuSans-114"/>
      <use x="240.527344" xlink:href="#DejaVuSans-108"/>
      <use x="268.310547" xlink:href="#DejaVuSans-97"/>
      <use x="329.589844" xlink:href="#DejaVuSans-112"/>
     </g>
    </g>
   </g>
   <g id="line2d_12">
    <path clip-path="url(#pd2729bc861)" d="M 68.197159 18.372727 
L 78.393371 47.058263 
L 88.589583 100.693212 
L 98.785795 100.693212 
L 108.982008 108.703827 
L 119.17822 122.671635 
L 129.374432 133.224454 
L 139.570644 138.807496 
L 149.766856 146.555041 
L 159.963068 146.555041 
L 170.15928 156.341935 
L 180.355492 156.341935 
L 190.551705 165.218289 
L 200.747917 166.97711 
L 210.944129 169.827273 
L 221.140341 169.827273 
" style="fill:none;stroke:#000000;stroke-dasharray:5.55,2.4;stroke-dashoffset:0;stroke-width:1.5;"/>
   </g>
   <g id="line2d_13">
    <path clip-path="url(#pd2729bc861)" d="M 68.197159 25.757447 
L 78.393371 52.591116 
L 88.589583 101.059489 
L 98.785795 101.803144 
L 108.982008 108.041455 
L 119.17822 122.831472 
L 129.374432 131.699443 
L 139.570644 137.563343 
L 149.766856 145.233814 
L 159.963068 145.133209 
L 170.15928 154.879069 
L 180.355492 154.914499 
L 190.551705 163.820579 
L 200.747917 165.630338 
L 210.944129 168.492503 
L 221.140341 168.417802 
" style="fill:none;stroke:#0000ff;stroke-linecap:square;stroke-width:1.5;"/>
    <defs>
     <path d="M 0 4.25 
C 1.127113 4.25 2.208214 3.802193 3.005204 3.005204 
C 3.802193 2.208214 4.25 1.127113 4.25 0 
C 4.25 -1.127113 3.802193 -2.208214 3.005204 -3.005204 
C 2.208214 -3.802193 1.127113 -4.25 0 -4.25 
C -1.127113 -4.25 -2.208214 -3.802193 -3.005204 -3.005204 
C -3.802193 -2.208214 -4.25 -1.127113 -4.25 0 
C -4.25 1.127113 -3.802193 2.208214 -3.005204 3.005204 
C -2.208214 3.802193 -1.127113 4.25 0 4.25 
z
" id="mc2021479f8" style="stroke:#0000ff;"/>
    </defs>
    <g clip-path="url(#pd2729bc861)">
     <use style="fill:#ffffff;stroke:#0000ff;" x="68.197159" xlink:href="#mc2021479f8" y="25.757447"/>
     <use style="fill:#ffffff;stroke:#0000ff;" x="78.393371" xlink:href="#mc2021479f8" y="52.591116"/>
     <use style="fill:#ffffff;stroke:#0000ff;" x="88.589583" xlink:href="#mc2021479f8" y="101.059489"/>
     <use style="fill:#ffffff;stroke:#0000ff;" x="98.785795" xlink:href="#mc2021479f8" y="101.803144"/>
     <use style="fill:#ffffff;stroke:#0000ff;" x="108.982008" xlink:href="#mc2021479f8" y="108.041455"/>
     <use style="fill:#ffffff;stroke:#0000ff;" x="119.17822" xlink:href="#mc2021479f8" y="122.831472"/>
     <use style="fill:#ffffff;stroke:#0000ff;" x="129.374432" xlink:href="#mc2021479f8" y="131.699443"/>
     <use style="fill:#ffffff;stroke:#0000ff;" x="139.570644" xlink:href="#mc2021479f8" y="137.563343"/>
     <use style="fill:#ffffff;stroke:#0000ff;" x="149.766856" xlink:href="#mc2021479f8" y="145.233814"/>
     <use style="fill:#ffffff;stroke:#0000ff;" x="159.963068" xlink:href="#mc2021479f8" y="145.133209"/>
     <use style="fill:#ffffff;stroke:#0000ff;" x="170.15928" xlink:href="#mc2021479f8" y="154.879069"/>
     <use style="fill:#ffffff;stroke:#0000ff;" x="180.355492" xlink:href="#mc2021479f8" y="154.914499"/>
     <use style="fill:#ffffff;stroke:#0000ff;" x="190.551705" xlink:href="#mc2021479f8" y="163.820579"/>
     <use style="fill:#ffffff;stroke:#0000ff;" x="200.747917" xlink:href="#mc2021479f8" y="165.630338"/>
     <use style="fill:#ffffff;stroke:#0000ff;" x="210.944129" xlink:href="#mc2021479f8" y="168.492503"/>
     <use style="fill:#ffffff;stroke:#0000ff;" x="221.140341" xlink:href="#mc2021479f8" y="168.417802"/>
    </g>
   </g>
   <g id="line2d_14">
    <path clip-path="url(#pd2729bc861)" d="M 68.197159 110.007065 
L 78.393371 110.387288 
L 88.589583 119.695801 
L 98.785795 117.904288 
L 108.982008 124.2895 
L 119.17822 120.198284 
L 129.374432 125.961803 
L 139.570644 125.5611 
L 149.766856 131.35075 
L 159.963068 133.382331 
L 170.15928 130.625666 
L 180.355492 133.702833 
L 190.551705 140.501055 
L 200.747917 137.470632 
L 210.944129 141.764079 
L 221.140341 145.066248 
" style="fill:none;stroke:#008000;stroke-linecap:square;stroke-width:1.5;"/>
    <defs>
     <path d="M -0 4.949747 
L 4.949747 0 
L 0 -4.949747 
L -4.949747 -0 
z
" id="mdc2f2d5db4" style="stroke:#008000;stroke-linejoin:miter;"/>
    </defs>
    <g clip-path="url(#pd2729bc861)">
     <use style="fill:#ffffff;stroke:#008000;stroke-linejoin:miter;" x="68.197159" xlink:href="#mdc2f2d5db4" y="110.007065"/>
     <use style="fill:#ffffff;stroke:#008000;stroke-linejoin:miter;" x="78.393371" xlink:href="#mdc2f2d5db4" y="110.387288"/>
     <use style="fill:#ffffff;stroke:#008000;stroke-linejoin:miter;" x="88.589583" xlink:href="#mdc2f2d5db4" y="119.695801"/>
     <use style="fill:#ffffff;stroke:#008000;stroke-linejoin:miter;" x="98.785795" xlink:href="#mdc2f2d5db4" y="117.904288"/>
     <use style="fill:#ffffff;stroke:#008000;stroke-linejoin:miter;" x="108.982008" xlink:href="#mdc2f2d5db4" y="124.2895"/>
     <use style="fill:#ffffff;stroke:#008000;stroke-linejoin:miter;" x="119.17822" xlink:href="#mdc2f2d5db4" y="120.198284"/>
     <use style="fill:#ffffff;stroke:#008000;stroke-linejoin:miter;" x="129.374432" xlink:href="#mdc2f2d5db4" y="125.961803"/>
     <use style="fill:#ffffff;stroke:#008000;stroke-linejoin:miter;" x="139.570644" xlink:href="#mdc2f2d5db4" y="125.5611"/>
     <use style="fill:#ffffff;stroke:#008000;stroke-linejoin:miter;" x="149.766856" xlink:href="#mdc2f2d5db4" y="131.35075"/>
     <use style="fill:#ffffff;stroke:#008000;stroke-linejoin:miter;" x="159.963068" xlink:href="#mdc2f2d5db4" y="133.382331"/>
     <use style="fill:#ffffff;stroke:#008000;stroke-linejoin:miter;" x="170.15928" xlink:href="#mdc2f2d5db4" y="130.625666"/>
     <use style="fill:#ffffff;stroke:#008000;stroke-linejoin:miter;" x="180.355492" xlink:href="#mdc2f2d5db4" y="133.702833"/>
     <use style="fill:#ffffff;stroke:#008000;stroke-linejoin:miter;" x="190.551705" xlink:href="#mdc2f2d5db4" y="140.501055"/>
     <use style="fill:#ffffff;stroke:#008000;stroke-linejoin:miter;" x="200.747917" xlink:href="#mdc2f2d5db4" y="137.470632"/>
     <use style="fill:#ffffff;stroke:#008000;stroke-linejoin:miter;" x="210.944129" xlink:href="#mdc2f2d5db4" y="141.764079"/>
     <use style="fill:#ffffff;stroke:#008000;stroke-linejoin:miter;" x="221.140341" xlink:href="#mdc2f2d5db4" y="145.066248"/>
    </g>
   </g>
   <g id="line2d_15">
    <path clip-path="url(#pd2729bc861)" d="M 68.197159 30.633811 
L 78.393371 55.328611 
L 88.589583 103.460818 
L 98.785795 101.743775 
L 108.982008 110.729663 
L 119.17822 123.96831 
L 129.374432 131.77239 
L 139.570644 139.942457 
L 149.766856 143.73054 
L 159.963068 144.429061 
L 170.15928 155.767819 
L 180.355492 150.674757 
L 190.551705 160.790753 
L 200.747917 164.32558 
L 210.944129 165.798065 
L 221.140341 164.772314 
" style="fill:none;stroke:#ff0000;stroke-linecap:square;stroke-width:1.5;"/>
    <defs>
     <path d="M -3.75 3.75 
L 3.75 3.75 
L 3.75 -3.75 
L -3.75 -3.75 
z
" id="m615261a95e" style="stroke:#ff0000;stroke-linejoin:miter;"/>
    </defs>
    <g clip-path="url(#pd2729bc861)">
     <use style="fill:#ffffff;stroke:#ff0000;stroke-linejoin:miter;" x="68.197159" xlink:href="#m615261a95e" y="30.633811"/>
     <use style="fill:#ffffff;stroke:#ff0000;stroke-linejoin:miter;" x="78.393371" xlink:href="#m615261a95e" y="55.328611"/>
     <use style="fill:#ffffff;stroke:#ff0000;stroke-linejoin:miter;" x="88.589583" xlink:href="#m615261a95e" y="103.460818"/>
     <use style="fill:#ffffff;stroke:#ff0000;stroke-linejoin:miter;" x="98.785795" xlink:href="#m615261a95e" y="101.743775"/>
     <use style="fill:#ffffff;stroke:#ff0000;stroke-linejoin:miter;" x="108.982008" xlink:href="#m615261a95e" y="110.729663"/>
     <use style="fill:#ffffff;stroke:#ff0000;stroke-linejoin:miter;" x="119.17822" xlink:href="#m615261a95e" y="123.96831"/>
     <use style="fill:#ffffff;stroke:#ff0000;stroke-linejoin:miter;" x="129.374432" xlink:href="#m615261a95e" y="131.77239"/>
     <use style="fill:#ffffff;stroke:#ff0000;stroke-linejoin:miter;" x="139.570644" xlink:href="#m615261a95e" y="139.942457"/>
     <use style="fill:#ffffff;stroke:#ff0000;stroke-linejoin:miter;" x="149.766856" xlink:href="#m615261a95e" y="143.73054"/>
     <use style="fill:#ffffff;stroke:#ff0000;stroke-linejoin:miter;" x="159.963068" xlink:href="#m615261a95e" y="144.429061"/>
     <use style="fill:#ffffff;stroke:#ff0000;stroke-linejoin:miter;" x="170.15928" xlink:href="#m615261a95e" y="155.767819"/>
     <use style="fill:#ffffff;stroke:#ff0000;stroke-linejoin:miter;" x="180.355492" xlink:href="#m615261a95e" y="150.674757"/>
     <use style="fill:#ffffff;stroke:#ff0000;stroke-linejoin:miter;" x="190.551705" xlink:href="#m615261a95e" y="160.790753"/>
     <use style="fill:#ffffff;stroke:#ff0000;stroke-linejoin:miter;" x="200.747917" xlink:href="#m615261a95e" y="164.32558"/>
     <use style="fill:#ffffff;stroke:#ff0000;stroke-linejoin:miter;" x="210.944129" xlink:href="#m615261a95e" y="165.798065"/>
     <use style="fill:#ffffff;stroke:#ff0000;stroke-linejoin:miter;" x="221.140341" xlink:href="#m615261a95e" y="164.772314"/>
    </g>
   </g>
   <g id="patch_3">
    <path d="M 60.55 177.4 
L 60.55 10.8 
" style="fill:none;stroke:#000000;stroke-linecap:square;stroke-linejoin:miter;stroke-width:0.8;"/>
   </g>
   <g id="patch_4">
    <path d="M 228.7875 177.4 
L 228.7875 10.8 
" style="fill:none;stroke:#000000;stroke-linecap:square;stroke-linejoin:miter;stroke-width:0.8;"/>
   </g>
   <g id="patch_5">
    <path d="M 60.55 177.4 
L 228.7875 177.4 
" style="fill:none;stroke:#000000;stroke-linecap:square;stroke-linejoin:miter;stroke-width:0.8;"/>
   </g>
   <g id="patch_6">
    <path d="M 60.55 10.8 
L 228.7875 10.8 
" style="fill:none;stroke:#000000;stroke-linecap:square;stroke-linejoin:miter;stroke-width:0.8;"/>
   </g>
   <g id="legend_1">
    <g id="patch_7">
     <path d="M 118.33125 77.5125 
L 221.7875 77.5125 
Q 223.7875 77.5125 223.7875 75.5125 
L 223.7875 17.8 
Q 223.7875 15.8 221.7875 15.8 
L 118.33125 15.8 
Q 116.33125 15.8 116.33125 17.8 
L 116.33125 75.5125 
Q 116.33125 77.5125 118.33125 77.5125 
z
" style="fill:#ffffff;opacity:0.8;stroke:#cccccc;stroke-linejoin:miter;"/>
    </g>
    <g id="line2d_16">
     <path d="M 120.33125 23.898438 
L 140.33125 23.898438 
" style="fill:none;stroke:#000000;stroke-dasharray:5.55,2.4;stroke-dashoffset:0;stroke-width:1.5;"/>
    </g>
    <g id="line2d_17"/>
    <g id="text_14">
     <!-- exact -->
     <g transform="translate(148.33125 27.398438)scale(0.1 -0.1)">
      <defs>
       <path d="M 54.890625 54.6875 
L 35.109375 28.078125 
L 55.90625 0 
L 45.3125 0 
L 29.390625 21.484375 
L 13.484375 0 
L 2.875 0 
L 24.125 28.609375 
L 4.6875 54.6875 
L 15.28125 54.6875 
L 29.78125 35.203125 
L 44.28125 54.6875 
z
" id="DejaVuSans-120"/>
       <path d="M 48.78125 52.59375 
L 48.78125 44.1875 
Q 44.96875 46.296875 41.140625 47.34375 
Q 37.3125 48.390625 33.40625 48.390625 
Q 24.65625 48.390625 19.8125 42.84375 
Q 14.984375 37.3125 14.984375 27.296875 
Q 14.984375 17.28125 19.8125 11.734375 
Q 24.65625 6.203125 33.40625 6.203125 
Q 37.3125 6.203125 41.140625 7.25 
Q 44.96875 8.296875 48.78125 10.40625 
L 48.78125 2.09375 
Q 45.015625 0.34375 40.984375 -0.53125 
Q 36.96875 -1.421875 32.421875 -1.421875 
Q 20.0625 -1.421875 12.78125 6.34375 
Q 5.515625 14.109375 5.515625 27.296875 
Q 5.515625 40.671875 12.859375 48.328125 
Q 20.21875 56 33.015625 56 
Q 37.15625 56 41.109375 55.140625 
Q 45.0625 54.296875 48.78125 52.59375 
z
" id="DejaVuSans-99"/>
       <path d="M 18.3125 70.21875 
L 18.3125 54.6875 
L 36.8125 54.6875 
L 36.8125 47.703125 
L 18.3125 47.703125 
L 18.3125 18.015625 
Q 18.3125 11.328125 20.140625 9.421875 
Q 21.96875 7.515625 27.59375 7.515625 
L 36.8125 7.515625 
L 36.8125 0 
L 27.59375 0 
Q 17.1875 0 13.234375 3.875 
Q 9.28125 7.765625 9.28125 18.015625 
L 9.28125 47.703125 
L 2.6875 47.703125 
L 2.6875 54.6875 
L 9.28125 54.6875 
L 9.28125 70.21875 
z
" id="DejaVuSans-116"/>
      </defs>
      <use xlink:href="#DejaVuSans-101"/>
      <use x="59.773438" xlink:href="#DejaVuSans-120"/>
      <use x="118.953125" xlink:href="#DejaVuSans-97"/>
      <use x="180.232422" xlink:href="#DejaVuSans-99"/>
      <use x="235.212891" xlink:href="#DejaVuSans-116"/>
     </g>
    </g>
    <g id="line2d_18">
     <path d="M 120.33125 38.576563 
L 140.33125 38.576563 
" style="fill:none;stroke:#0000ff;stroke-linecap:square;stroke-width:1.5;"/>
    </g>
    <g id="line2d_19">
     <g>
      <use style="fill:#ffffff;stroke:#0000ff;" x="130.33125" xlink:href="#mc2021479f8" y="38.576563"/>
     </g>
    </g>
    <g id="text_15">
     <!-- avrg noiseless -->
     <g transform="translate(148.33125 42.076563)scale(0.1 -0.1)">
      <defs>
       <path d="M 9.421875 54.6875 
L 18.40625 54.6875 
L 18.40625 0 
L 9.421875 0 
z
M 9.421875 75.984375 
L 18.40625 75.984375 
L 18.40625 64.59375 
L 9.421875 64.59375 
z
" id="DejaVuSans-105"/>
       <path d="M 44.28125 53.078125 
L 44.28125 44.578125 
Q 40.484375 46.53125 36.375 47.5 
Q 32.28125 48.484375 27.875 48.484375 
Q 21.1875 48.484375 17.84375 46.4375 
Q 14.5 44.390625 14.5 40.28125 
Q 14.5 37.15625 16.890625 35.375 
Q 19.28125 33.59375 26.515625 31.984375 
L 29.59375 31.296875 
Q 39.15625 29.25 43.1875 25.515625 
Q 47.21875 21.78125 47.21875 15.09375 
Q 47.21875 7.46875 41.1875 3.015625 
Q 35.15625 -1.421875 24.609375 -1.421875 
Q 20.21875 -1.421875 15.453125 -0.5625 
Q 10.6875 0.296875 5.421875 2 
L 5.421875 11.28125 
Q 10.40625 8.6875 15.234375 7.390625 
Q 20.0625 6.109375 24.8125 6.109375 
Q 31.15625 6.109375 34.5625 8.28125 
Q 37.984375 10.453125 37.984375 14.40625 
Q 37.984375 18.0625 35.515625 20.015625 
Q 33.0625 21.96875 24.703125 23.78125 
L 21.578125 24.515625 
Q 13.234375 26.265625 9.515625 29.90625 
Q 5.8125 33.546875 5.8125 39.890625 
Q 5.8125 47.609375 11.28125 51.796875 
Q 16.75 56 26.8125 56 
Q 31.78125 56 36.171875 55.265625 
Q 40.578125 54.546875 44.28125 53.078125 
z
" id="DejaVuSans-115"/>
      </defs>
      <use xlink:href="#DejaVuSans-97"/>
      <use x="61.279297" xlink:href="#DejaVuSans-118"/>
      <use x="120.458984" xlink:href="#DejaVuSans-114"/>
      <use x="159.822266" xlink:href="#DejaVuSans-103"/>
      <use x="223.298828" xlink:href="#DejaVuSans-32"/>
      <use x="255.085938" xlink:href="#DejaVuSans-110"/>
      <use x="318.464844" xlink:href="#DejaVuSans-111"/>
      <use x="379.646484" xlink:href="#DejaVuSans-105"/>
      <use x="407.429688" xlink:href="#DejaVuSans-115"/>
      <use x="459.529297" xlink:href="#DejaVuSans-101"/>
      <use x="521.052734" xlink:href="#DejaVuSans-108"/>
      <use x="548.835938" xlink:href="#DejaVuSans-101"/>
      <use x="610.359375" xlink:href="#DejaVuSans-115"/>
      <use x="662.458984" xlink:href="#DejaVuSans-115"/>
     </g>
    </g>
    <g id="line2d_20">
     <path d="M 120.33125 53.254688 
L 140.33125 53.254688 
" style="fill:none;stroke:#008000;stroke-linecap:square;stroke-width:1.5;"/>
    </g>
    <g id="line2d_21">
     <g>
      <use style="fill:#ffffff;stroke:#008000;stroke-linejoin:miter;" x="130.33125" xlink:href="#mdc2f2d5db4" y="53.254688"/>
     </g>
    </g>
    <g id="text_16">
     <!-- avrg noisy -->
     <g transform="translate(148.33125 56.754688)scale(0.1 -0.1)">
      <use xlink:href="#DejaVuSans-97"/>
      <use x="61.279297" xlink:href="#DejaVuSans-118"/>
      <use x="120.458984" xlink:href="#DejaVuSans-114"/>
      <use x="159.822266" xlink:href="#DejaVuSans-103"/>
      <use x="223.298828" xlink:href="#DejaVuSans-32"/>
      <use x="255.085938" xlink:href="#DejaVuSans-110"/>
      <use x="318.464844" xlink:href="#DejaVuSans-111"/>
      <use x="379.646484" xlink:href="#DejaVuSans-105"/>
      <use x="407.429688" xlink:href="#DejaVuSans-115"/>
      <use x="459.529297" xlink:href="#DejaVuSans-121"/>
     </g>
    </g>
    <g id="line2d_22">
     <path d="M 120.33125 67.932813 
L 140.33125 67.932813 
" style="fill:none;stroke:#ff0000;stroke-linecap:square;stroke-width:1.5;"/>
    </g>
    <g id="line2d_23">
     <g>
      <use style="fill:#ffffff;stroke:#ff0000;stroke-linejoin:miter;" x="130.33125" xlink:href="#m615261a95e" y="67.932813"/>
     </g>
    </g>
    <g id="text_17">
     <!-- optm noisy -->
     <g transform="translate(148.33125 71.432813)scale(0.1 -0.1)">
      <defs>
       <path d="M 52 44.1875 
Q 55.375 50.25 60.0625 53.125 
Q 64.75 56 71.09375 56 
Q 79.640625 56 84.28125 50.015625 
Q 88.921875 44.046875 88.921875 33.015625 
L 88.921875 0 
L 79.890625 0 
L 79.890625 32.71875 
Q 79.890625 40.578125 77.09375 44.375 
Q 74.3125 48.1875 68.609375 48.1875 
Q 61.625 48.1875 57.5625 43.546875 
Q 53.515625 38.921875 53.515625 30.90625 
L 53.515625 0 
L 44.484375 0 
L 44.484375 32.71875 
Q 44.484375 40.625 41.703125 44.40625 
Q 38.921875 48.1875 33.109375 48.1875 
Q 26.21875 48.1875 22.15625 43.53125 
Q 18.109375 38.875 18.109375 30.90625 
L 18.109375 0 
L 9.078125 0 
L 9.078125 54.6875 
L 18.109375 54.6875 
L 18.109375 46.1875 
Q 21.1875 51.21875 25.484375 53.609375 
Q 29.78125 56 35.6875 56 
Q 41.65625 56 45.828125 52.96875 
Q 50 49.953125 52 44.1875 
z
" id="DejaVuSans-109"/>
      </defs>
      <use xlink:href="#DejaVuSans-111"/>
      <use x="61.181641" xlink:href="#DejaVuSans-112"/>
      <use x="124.658203" xlink:href="#DejaVuSans-116"/>
      <use x="163.867188" xlink:href="#DejaVuSans-109"/>
      <use x="261.279297" xlink:href="#DejaVuSans-32"/>
      <use x="293.066406" xlink:href="#DejaVuSans-110"/>
      <use x="356.445312" xlink:href="#DejaVuSans-111"/>
      <use x="417.626953" xlink:href="#DejaVuSans-105"/>
      <use x="445.410156" xlink:href="#DejaVuSans-115"/>
      <use x="497.509766" xlink:href="#DejaVuSans-121"/>
     </g>
    </g>
   </g>
  </g>
  <g id="axes_2">
   <g id="patch_8">
    <path d="M 288.9625 177.4 
L 457.2 177.4 
L 457.2 10.8 
L 288.9625 10.8 
z
" style="fill:#ffffff;"/>
   </g>
   <g id="matplotlib.axis_3">
    <g id="xtick_5">
     <g id="line2d_24">
      <g>
       <use style="stroke:#000000;stroke-width:0.8;" x="296.609659" xlink:href="#m8625bd2270" y="177.4"/>
      </g>
     </g>
     <g id="text_18">
      <!-- 0 -->
      <g transform="translate(293.428409 191.998438)scale(0.1 -0.1)">
       <use xlink:href="#DejaVuSans-48"/>
      </g>
     </g>
    </g>
    <g id="xtick_6">
     <g id="line2d_25">
      <g>
       <use style="stroke:#000000;stroke-width:0.8;" x="347.59072" xlink:href="#m8625bd2270" y="177.4"/>
      </g>
     </g>
     <g id="text_19">
      <!-- 1 -->
      <g transform="translate(344.40947 191.998438)scale(0.1 -0.1)">
       <use xlink:href="#DejaVuSans-49"/>
      </g>
     </g>
    </g>
    <g id="xtick_7">
     <g id="line2d_26">
      <g>
       <use style="stroke:#000000;stroke-width:0.8;" x="398.57178" xlink:href="#m8625bd2270" y="177.4"/>
      </g>
     </g>
     <g id="text_20">
      <!-- 2 -->
      <g transform="translate(395.39053 191.998438)scale(0.1 -0.1)">
       <use xlink:href="#DejaVuSans-50"/>
      </g>
     </g>
    </g>
    <g id="xtick_8">
     <g id="line2d_27">
      <g>
       <use style="stroke:#000000;stroke-width:0.8;" x="449.552841" xlink:href="#m8625bd2270" y="177.4"/>
      </g>
     </g>
     <g id="text_21">
      <!-- 3 -->
      <g transform="translate(446.371591 191.998438)scale(0.1 -0.1)">
       <defs>
        <path d="M 40.578125 39.3125 
Q 47.65625 37.796875 51.625 33 
Q 55.609375 28.21875 55.609375 21.1875 
Q 55.609375 10.40625 48.1875 4.484375 
Q 40.765625 -1.421875 27.09375 -1.421875 
Q 22.515625 -1.421875 17.65625 -0.515625 
Q 12.796875 0.390625 7.625 2.203125 
L 7.625 11.71875 
Q 11.71875 9.328125 16.59375 8.109375 
Q 21.484375 6.890625 26.8125 6.890625 
Q 36.078125 6.890625 40.9375 10.546875 
Q 45.796875 14.203125 45.796875 21.1875 
Q 45.796875 27.640625 41.28125 31.265625 
Q 36.765625 34.90625 28.71875 34.90625 
L 20.21875 34.90625 
L 20.21875 43.015625 
L 29.109375 43.015625 
Q 36.375 43.015625 40.234375 45.921875 
Q 44.09375 48.828125 44.09375 54.296875 
Q 44.09375 59.90625 40.109375 62.90625 
Q 36.140625 65.921875 28.71875 65.921875 
Q 24.65625 65.921875 20.015625 65.03125 
Q 15.375 64.15625 9.8125 62.3125 
L 9.8125 71.09375 
Q 15.4375 72.65625 20.34375 73.4375 
Q 25.25 74.21875 29.59375 74.21875 
Q 40.828125 74.21875 47.359375 69.109375 
Q 53.90625 64.015625 53.90625 55.328125 
Q 53.90625 49.265625 50.4375 45.09375 
Q 46.96875 40.921875 40.578125 39.3125 
z
" id="DejaVuSans-51"/>
       </defs>
       <use xlink:href="#DejaVuSans-51"/>
      </g>
     </g>
    </g>
    <g id="text_22">
     <!-- Inv. temperature $\beta$ -->
     <g transform="translate(325.98125 205.778125)scale(0.1 -0.1)">
      <defs>
       <path d="M 9.8125 72.90625 
L 19.671875 72.90625 
L 19.671875 0 
L 9.8125 0 
z
" id="DejaVuSans-73"/>
       <path d="M 8.5 21.578125 
L 8.5 54.6875 
L 17.484375 54.6875 
L 17.484375 21.921875 
Q 17.484375 14.15625 20.5 10.265625 
Q 23.53125 6.390625 29.59375 6.390625 
Q 36.859375 6.390625 41.078125 11.03125 
Q 45.3125 15.671875 45.3125 23.6875 
L 45.3125 54.6875 
L 54.296875 54.6875 
L 54.296875 0 
L 45.3125 0 
L 45.3125 8.40625 
Q 42.046875 3.421875 37.71875 1 
Q 33.40625 -1.421875 27.6875 -1.421875 
Q 18.265625 -1.421875 13.375 4.4375 
Q 8.5 10.296875 8.5 21.578125 
z
M 31.109375 56 
z
" id="DejaVuSans-117"/>
       <path d="M 13.625 3.375 
L 8.9375 -20.796875 
L -0.09375 -20.796875 
L 14.5 54.34375 
Q 18.84375 76.609375 39.65625 76.609375 
Q 60.75 76.609375 57.171875 57.8125 
Q 54.734375 44.4375 45.21875 39.546875 
Q 58.015625 35.15625 55.515625 22.125 
Q 51.125 -1.078125 27.484375 -1.03125 
Q 17.140625 -0.984375 13.625 3.375 
z
M 15.921875 15.09375 
Q 19.671875 6.59375 29.296875 6.640625 
Q 43.359375 6.640625 46.34375 21.96875 
Q 49.03125 35.75 26.171875 34.671875 
L 27.78125 42.96875 
Q 45.453125 42.671875 48.53125 58.59375 
Q 50.640625 69.34375 39.203125 69.28125 
Q 26.421875 69.28125 23.484375 54.046875 
z
" id="DejaVuSans-Oblique-946"/>
      </defs>
      <use transform="translate(0 0.390625)" xlink:href="#DejaVuSans-73"/>
      <use transform="translate(29.492188 0.390625)" xlink:href="#DejaVuSans-110"/>
      <use transform="translate(92.871094 0.390625)" xlink:href="#DejaVuSans-118"/>
      <use transform="translate(152.050781 0.390625)" xlink:href="#DejaVuSans-46"/>
      <use transform="translate(183.837891 0.390625)" xlink:href="#DejaVuSans-32"/>
      <use transform="translate(215.625 0.390625)" xlink:href="#DejaVuSans-116"/>
      <use transform="translate(254.833984 0.390625)" xlink:href="#DejaVuSans-101"/>
      <use transform="translate(316.357422 0.390625)" xlink:href="#DejaVuSans-109"/>
      <use transform="translate(413.769531 0.390625)" xlink:href="#DejaVuSans-112"/>
      <use transform="translate(477.246094 0.390625)" xlink:href="#DejaVuSans-101"/>
      <use transform="translate(538.769531 0.390625)" xlink:href="#DejaVuSans-114"/>
      <use transform="translate(579.882812 0.390625)" xlink:href="#DejaVuSans-97"/>
      <use transform="translate(641.162109 0.390625)" xlink:href="#DejaVuSans-116"/>
      <use transform="translate(680.371094 0.390625)" xlink:href="#DejaVuSans-117"/>
      <use transform="translate(743.75 0.390625)" xlink:href="#DejaVuSans-114"/>
      <use transform="translate(784.863281 0.390625)" xlink:href="#DejaVuSans-101"/>
      <use transform="translate(846.386719 0.390625)" xlink:href="#DejaVuSans-32"/>
      <use transform="translate(878.173828 0.390625)" xlink:href="#DejaVuSans-Oblique-946"/>
     </g>
    </g>
   </g>
   <g id="matplotlib.axis_4">
    <g id="ytick_8">
     <g id="line2d_28">
      <g>
       <use style="stroke:#000000;stroke-width:0.8;" x="288.9625" xlink:href="#ma0cc5f68a6" y="163.316119"/>
      </g>
     </g>
     <g id="text_23">
      <!-- −2.5 -->
      <g transform="translate(257.679688 167.115338)scale(0.1 -0.1)">
       <defs>
        <path d="M 10.59375 35.5 
L 73.1875 35.5 
L 73.1875 27.203125 
L 10.59375 27.203125 
z
" id="DejaVuSans-8722"/>
       </defs>
       <use xlink:href="#DejaVuSans-8722"/>
       <use x="83.789062" xlink:href="#DejaVuSans-50"/>
       <use x="147.412109" xlink:href="#DejaVuSans-46"/>
       <use x="179.199219" xlink:href="#DejaVuSans-53"/>
      </g>
     </g>
    </g>
    <g id="ytick_9">
     <g id="line2d_29">
      <g>
       <use style="stroke:#000000;stroke-width:0.8;" x="288.9625" xlink:href="#ma0cc5f68a6" y="134.327441"/>
      </g>
     </g>
     <g id="text_24">
      <!-- −2.0 -->
      <g transform="translate(257.679688 138.12666)scale(0.1 -0.1)">
       <use xlink:href="#DejaVuSans-8722"/>
       <use x="83.789062" xlink:href="#DejaVuSans-50"/>
       <use x="147.412109" xlink:href="#DejaVuSans-46"/>
       <use x="179.199219" xlink:href="#DejaVuSans-48"/>
      </g>
     </g>
    </g>
    <g id="ytick_10">
     <g id="line2d_30">
      <g>
       <use style="stroke:#000000;stroke-width:0.8;" x="288.9625" xlink:href="#ma0cc5f68a6" y="105.338762"/>
      </g>
     </g>
     <g id="text_25">
      <!-- −1.5 -->
      <g transform="translate(257.679688 109.137981)scale(0.1 -0.1)">
       <use xlink:href="#DejaVuSans-8722"/>
       <use x="83.789062" xlink:href="#DejaVuSans-49"/>
       <use x="147.412109" xlink:href="#DejaVuSans-46"/>
       <use x="179.199219" xlink:href="#DejaVuSans-53"/>
      </g>
     </g>
    </g>
    <g id="ytick_11">
     <g id="line2d_31">
      <g>
       <use style="stroke:#000000;stroke-width:0.8;" x="288.9625" xlink:href="#ma0cc5f68a6" y="76.350084"/>
      </g>
     </g>
     <g id="text_26">
      <!-- −1.0 -->
      <g transform="translate(257.679688 80.149303)scale(0.1 -0.1)">
       <use xlink:href="#DejaVuSans-8722"/>
       <use x="83.789062" xlink:href="#DejaVuSans-49"/>
       <use x="147.412109" xlink:href="#DejaVuSans-46"/>
       <use x="179.199219" xlink:href="#DejaVuSans-48"/>
      </g>
     </g>
    </g>
    <g id="ytick_12">
     <g id="line2d_32">
      <g>
       <use style="stroke:#000000;stroke-width:0.8;" x="288.9625" xlink:href="#ma0cc5f68a6" y="47.361406"/>
      </g>
     </g>
     <g id="text_27">
      <!-- −0.5 -->
      <g transform="translate(257.679688 51.160624)scale(0.1 -0.1)">
       <use xlink:href="#DejaVuSans-8722"/>
       <use x="83.789062" xlink:href="#DejaVuSans-48"/>
       <use x="147.412109" xlink:href="#DejaVuSans-46"/>
       <use x="179.199219" xlink:href="#DejaVuSans-53"/>
      </g>
     </g>
    </g>
    <g id="ytick_13">
     <g id="line2d_33">
      <g>
       <use style="stroke:#000000;stroke-width:0.8;" x="288.9625" xlink:href="#ma0cc5f68a6" y="18.372727"/>
      </g>
     </g>
     <g id="text_28">
      <!-- 0.0 -->
      <g transform="translate(266.059375 22.171946)scale(0.1 -0.1)">
       <use xlink:href="#DejaVuSans-48"/>
       <use x="63.623047" xlink:href="#DejaVuSans-46"/>
       <use x="95.410156" xlink:href="#DejaVuSans-48"/>
      </g>
     </g>
    </g>
    <g id="text_29">
     <!-- Energy $E(\beta)$ -->
     <g transform="translate(251.579688 123.55)rotate(-90)scale(0.1 -0.1)">
      <defs>
       <path d="M 9.8125 72.90625 
L 55.90625 72.90625 
L 55.90625 64.59375 
L 19.671875 64.59375 
L 19.671875 43.015625 
L 54.390625 43.015625 
L 54.390625 34.71875 
L 19.671875 34.71875 
L 19.671875 8.296875 
L 56.78125 8.296875 
L 56.78125 0 
L 9.8125 0 
z
" id="DejaVuSans-69"/>
       <path d="M 16.890625 72.90625 
L 62.984375 72.90625 
L 61.375 64.59375 
L 25.09375 64.59375 
L 20.90625 43.015625 
L 55.71875 43.015625 
L 54.109375 34.71875 
L 19.28125 34.71875 
L 14.203125 8.296875 
L 51.3125 8.296875 
L 49.703125 0 
L 2.6875 0 
z
" id="DejaVuSans-Oblique-69"/>
       <path d="M 31 75.875 
Q 24.46875 64.65625 21.28125 53.65625 
Q 18.109375 42.671875 18.109375 31.390625 
Q 18.109375 20.125 21.3125 9.0625 
Q 24.515625 -2 31 -13.1875 
L 23.1875 -13.1875 
Q 15.875 -1.703125 12.234375 9.375 
Q 8.59375 20.453125 8.59375 31.390625 
Q 8.59375 42.28125 12.203125 53.3125 
Q 15.828125 64.359375 23.1875 75.875 
z
" id="DejaVuSans-40"/>
       <path d="M 8.015625 75.875 
L 15.828125 75.875 
Q 23.140625 64.359375 26.78125 53.3125 
Q 30.421875 42.28125 30.421875 31.390625 
Q 30.421875 20.453125 26.78125 9.375 
Q 23.140625 -1.703125 15.828125 -13.1875 
L 8.015625 -13.1875 
Q 14.5 -2 17.703125 9.0625 
Q 20.90625 20.125 20.90625 31.390625 
Q 20.90625 42.671875 17.703125 53.65625 
Q 14.5 64.65625 8.015625 75.875 
z
" id="DejaVuSans-41"/>
      </defs>
      <use transform="translate(0 0.390625)" xlink:href="#DejaVuSans-69"/>
      <use transform="translate(63.183594 0.390625)" xlink:href="#DejaVuSans-110"/>
      <use transform="translate(126.5625 0.390625)" xlink:href="#DejaVuSans-101"/>
      <use transform="translate(188.085938 0.390625)" xlink:href="#DejaVuSans-114"/>
      <use transform="translate(229.199219 0.390625)" xlink:href="#DejaVuSans-103"/>
      <use transform="translate(292.675781 0.390625)" xlink:href="#DejaVuSans-121"/>
      <use transform="translate(351.855469 0.390625)" xlink:href="#DejaVuSans-32"/>
      <use transform="translate(383.642578 0.390625)" xlink:href="#DejaVuSans-Oblique-69"/>
      <use transform="translate(446.826172 0.390625)" xlink:href="#DejaVuSans-40"/>
      <use transform="translate(485.839844 0.390625)" xlink:href="#DejaVuSans-Oblique-946"/>
      <use transform="translate(549.658203 0.390625)" xlink:href="#DejaVuSans-41"/>
     </g>
    </g>
   </g>
   <g id="line2d_34">
    <path clip-path="url(#p1e8ddc2935)" d="M 296.609659 18.372727 
L 322.100189 82.000577 
L 347.59072 125.037575 
L 373.08125 148.184467 
L 398.57178 160.092291 
L 424.062311 166.359366 
L 449.552841 169.827273 
" style="fill:none;stroke:#000000;stroke-dasharray:5.55,2.4;stroke-dashoffset:0;stroke-width:1.5;"/>
   </g>
   <g id="line2d_35">
    <path clip-path="url(#p1e8ddc2935)" d="M 296.609659 18.372727 
L 322.100189 78.842575 
L 347.59072 116.807188 
L 373.08125 136.072868 
L 398.57178 145.734135 
L 424.062311 151.00693 
L 449.552841 154.125179 
" style="fill:none;stroke:#0000ff;stroke-linecap:square;stroke-width:1.5;"/>
    <g clip-path="url(#p1e8ddc2935)">
     <use style="fill:#ffffff;stroke:#0000ff;" x="296.609659" xlink:href="#mc2021479f8" y="18.372727"/>
     <use style="fill:#ffffff;stroke:#0000ff;" x="322.100189" xlink:href="#mc2021479f8" y="78.842575"/>
     <use style="fill:#ffffff;stroke:#0000ff;" x="347.59072" xlink:href="#mc2021479f8" y="116.807188"/>
     <use style="fill:#ffffff;stroke:#0000ff;" x="373.08125" xlink:href="#mc2021479f8" y="136.072868"/>
     <use style="fill:#ffffff;stroke:#0000ff;" x="398.57178" xlink:href="#mc2021479f8" y="145.734135"/>
     <use style="fill:#ffffff;stroke:#0000ff;" x="424.062311" xlink:href="#mc2021479f8" y="151.00693"/>
     <use style="fill:#ffffff;stroke:#0000ff;" x="449.552841" xlink:href="#mc2021479f8" y="154.125179"/>
    </g>
   </g>
   <g id="line2d_36">
    <path clip-path="url(#p1e8ddc2935)" d="M 296.609659 18.372727 
L 322.100189 34.395701 
L 347.59072 42.166121 
L 373.08125 46.151119 
L 398.57178 48.254763 
L 424.062311 49.691933 
L 449.552841 49.977524 
" style="fill:none;stroke:#008000;stroke-linecap:square;stroke-width:1.5;"/>
    <g clip-path="url(#p1e8ddc2935)">
     <use style="fill:#ffffff;stroke:#008000;stroke-linejoin:miter;" x="296.609659" xlink:href="#mdc2f2d5db4" y="18.372727"/>
     <use style="fill:#ffffff;stroke:#008000;stroke-linejoin:miter;" x="322.100189" xlink:href="#mdc2f2d5db4" y="34.395701"/>
     <use style="fill:#ffffff;stroke:#008000;stroke-linejoin:miter;" x="347.59072" xlink:href="#mdc2f2d5db4" y="42.166121"/>
     <use style="fill:#ffffff;stroke:#008000;stroke-linejoin:miter;" x="373.08125" xlink:href="#mdc2f2d5db4" y="46.151119"/>
     <use style="fill:#ffffff;stroke:#008000;stroke-linejoin:miter;" x="398.57178" xlink:href="#mdc2f2d5db4" y="48.254763"/>
     <use style="fill:#ffffff;stroke:#008000;stroke-linejoin:miter;" x="424.062311" xlink:href="#mdc2f2d5db4" y="49.691933"/>
     <use style="fill:#ffffff;stroke:#008000;stroke-linejoin:miter;" x="449.552841" xlink:href="#mdc2f2d5db4" y="49.977524"/>
    </g>
   </g>
   <g id="line2d_37">
    <path clip-path="url(#p1e8ddc2935)" d="M 296.609659 18.372727 
L 322.100189 75.399246 
L 347.59072 102.761745 
L 373.08125 128.615184 
L 398.57178 126.806968 
L 424.062311 123.249627 
L 449.552841 129.041638 
" style="fill:none;stroke:#ff0000;stroke-linecap:square;stroke-width:1.5;"/>
    <g clip-path="url(#p1e8ddc2935)">
     <use style="fill:#ffffff;stroke:#ff0000;stroke-linejoin:miter;" x="296.609659" xlink:href="#m615261a95e" y="18.372727"/>
     <use style="fill:#ffffff;stroke:#ff0000;stroke-linejoin:miter;" x="322.100189" xlink:href="#m615261a95e" y="75.399246"/>
     <use style="fill:#ffffff;stroke:#ff0000;stroke-linejoin:miter;" x="347.59072" xlink:href="#m615261a95e" y="102.761745"/>
     <use style="fill:#ffffff;stroke:#ff0000;stroke-linejoin:miter;" x="373.08125" xlink:href="#m615261a95e" y="128.615184"/>
     <use style="fill:#ffffff;stroke:#ff0000;stroke-linejoin:miter;" x="398.57178" xlink:href="#m615261a95e" y="126.806968"/>
     <use style="fill:#ffffff;stroke:#ff0000;stroke-linejoin:miter;" x="424.062311" xlink:href="#m615261a95e" y="123.249627"/>
     <use style="fill:#ffffff;stroke:#ff0000;stroke-linejoin:miter;" x="449.552841" xlink:href="#m615261a95e" y="129.041638"/>
    </g>
   </g>
   <g id="patch_9">
    <path d="M 288.9625 177.4 
L 288.9625 10.8 
" style="fill:none;stroke:#000000;stroke-linecap:square;stroke-linejoin:miter;stroke-width:0.8;"/>
   </g>
   <g id="patch_10">
    <path d="M 457.2 177.4 
L 457.2 10.8 
" style="fill:none;stroke:#000000;stroke-linecap:square;stroke-linejoin:miter;stroke-width:0.8;"/>
   </g>
   <g id="patch_11">
    <path d="M 288.9625 177.4 
L 457.2 177.4 
" style="fill:none;stroke:#000000;stroke-linecap:square;stroke-linejoin:miter;stroke-width:0.8;"/>
   </g>
   <g id="patch_12">
    <path d="M 288.9625 10.8 
L 457.2 10.8 
" style="fill:none;stroke:#000000;stroke-linecap:square;stroke-linejoin:miter;stroke-width:0.8;"/>
   </g>
  </g>
 </g>
 <defs>
  <clipPath id="pd2729bc861">
   <rect height="166.6" width="168.2375" x="60.55" y="10.8"/>
  </clipPath>
  <clipPath id="p1e8ddc2935">
   <rect height="166.6" width="168.2375" x="288.9625" y="10.8"/>
  </clipPath>
 </defs>
</svg>
