<svg xmlns="http://www.w3.org/2000/svg" xmlns:xlink="http://www.w3.org/1999/xlink" width="624" height="297.6" version="1.1" viewBox="0 0 468 223.2"><metadata><rdf:RDF xmlns:cc="http://creativecommons.org/ns#" xmlns:dc="http://purl.org/dc/elements/1.1/" xmlns:rdf="http://www.w3.org/1999/02/22-rdf-syntax-ns#"><cc:Work><dc:type rdf:resource="http://purl.org/dc/dcmitype/StillImage"/><dc:date>2021-12-16T09:46:00.613481</dc:date><dc:format>image/svg+xml</dc:format><dc:creator><cc:Agent><dc:title>Matplotlib v3.4.3, https://matplotlib.org/</dc:title></cc:Agent></dc:creator></cc:Work></rdf:RDF></metadata><defs><style type="text/css">*{stroke-linecap:butt;stroke-linejoin:round}</style></defs><g id="figure_1"><g id="patch_1"><path d="M 0 223.2 L 468 223.2 L 468 0 L 0 0 z" style="fill:none"/></g><g id="axes_1"><g id="patch_2"><path d="M 58.05 177.4 L 227.5375 177.4 L 227.5375 10.8 L 58.05 10.8 z" style="fill:#fff"/></g><g id="matplotlib.axis_1"><g id="xtick_1"><g id="line2d_1"><defs><path id="mb5d6d83312" d="M 0 0 L 0 3.5" style="stroke:#000;stroke-width:.8"/></defs><g><use style="stroke:#000;stroke-width:.8" x="65.754" y="177.4" xlink:href="#mb5d6d83312"/></g></g><g id="text_1"><g transform="translate(62.572727 191.998438)scale(0.1 -0.1)"><defs><path id="DejaVuSans-30" d="M 2034 4250 Q 1547 4250 1301 3770 Q 1056 3291 1056 2328 Q 1056 1369 1301 889 Q 1547 409 2034 409 Q 2525 409 2770 889 Q 3016 1369 3016 2328 Q 3016 3291 2770 3770 Q 2525 4250 2034 4250 z M 2034 4750 Q 2819 4750 3233 4129 Q 3647 3509 3647 2328 Q 3647 1150 3233 529 Q 2819 -91 2034 -91 Q 1250 -91 836 529 Q 422 1150 422 2328 Q 422 3509 836 4129 Q 1250 4750 2034 4750 z" transform="scale(0.015625)"/></defs><use xlink:href="#DejaVuSans-30"/></g></g></g><g id="xtick_2"><g id="line2d_2"><g><use style="stroke:#000;stroke-width:.8" x="109.777" y="177.4" xlink:href="#mb5d6d83312"/></g></g><g id="text_2"><g transform="translate(106.595455 191.998438)scale(0.1 -0.1)"><defs><path id="DejaVuSans-32" d="M 1228 531 L 3431 531 L 3431 0 L 469 0 L 469 531 Q 828 903 1448 1529 Q 2069 2156 2228 2338 Q 2531 2678 2651 2914 Q 2772 3150 2772 3378 Q 2772 3750 2511 3984 Q 2250 4219 1831 4219 Q 1534 4219 1204 4116 Q 875 4013 500 3803 L 500 4441 Q 881 4594 1212 4672 Q 1544 4750 1819 4750 Q 2544 4750 2975 4387 Q 3406 4025 3406 3419 Q 3406 3131 3298 2873 Q 3191 2616 2906 2266 Q 2828 2175 2409 1742 Q 1991 1309 1228 531 z" transform="scale(0.015625)"/></defs><use xlink:href="#DejaVuSans-32"/></g></g></g><g id="xtick_3"><g id="line2d_3"><g><use style="stroke:#000;stroke-width:.8" x="153.799" y="177.4" xlink:href="#mb5d6d83312"/></g></g><g id="text_3"><g transform="translate(150.618182 191.998438)scale(0.1 -0.1)"><defs><path id="DejaVuSans-34" d="M 2419 4116 L 825 1625 L 2419 1625 L 2419 4116 z M 2253 4666 L 3047 4666 L 3047 1625 L 3713 1625 L 3713 1100 L 3047 1100 L 3047 0 L 2419 0 L 2419 1100 L 313 1100 L 313 1709 L 2253 4666 z" transform="scale(0.015625)"/></defs><use xlink:href="#DejaVuSans-34"/></g></g></g><g id="xtick_4"><g id="line2d_4"><g><use style="stroke:#000;stroke-width:.8" x="197.822" y="177.4" xlink:href="#mb5d6d83312"/></g></g><g id="text_4"><g transform="translate(194.640909 191.998438)scale(0.1 -0.1)"><defs><path id="DejaVuSans-36" d="M 2113 2584 Q 1688 2584 1439 2293 Q 1191 2003 1191 1497 Q 1191 994 1439 701 Q 1688 409 2113 409 Q 2538 409 2786 701 Q 3034 994 3034 1497 Q 3034 2003 2786 2293 Q 2538 2584 2113 2584 z M 3366 4563 L 3366 3988 Q 3128 4100 2886 4159 Q 2644 4219 2406 4219 Q 1781 4219 1451 3797 Q 1122 3375 1075 2522 Q 1259 2794 1537 2939 Q 1816 3084 2150 3084 Q 2853 3084 3261 2657 Q 3669 2231 3669 1497 Q 3669 778 3244 343 Q 2819 -91 2113 -91 Q 1303 -91 875 529 Q 447 1150 447 2328 Q 447 3434 972 4092 Q 1497 4750 2381 4750 Q 2619 4750 2861 4703 Q 3103 4656 3366 4563 z" transform="scale(0.015625)"/></defs><use xlink:href="#DejaVuSans-36"/></g></g></g><g id="text_5"><g transform="translate(95.69375 205.778125)scale(0.1 -0.1)"><defs><path id="DejaVuSans-49" d="M 628 4666 L 1259 4666 L 1259 0 L 628 0 L 628 4666 z" transform="scale(0.015625)"/><path id="DejaVuSans-6e" d="M 3513 2113 L 3513 0 L 2938 0 L 2938 2094 Q 2938 2591 2744 2837 Q 2550 3084 2163 3084 Q 1697 3084 1428 2787 Q 1159 2491 1159 1978 L 1159 0 L 581 0 L 581 3500 L 1159 3500 L 1159 2956 Q 1366 3272 1645 3428 Q 1925 3584 2291 3584 Q 2894 3584 3203 3211 Q 3513 2838 3513 2113 z" transform="scale(0.015625)"/><path id="DejaVuSans-76" d="M 191 3500 L 800 3500 L 1894 563 L 2988 3500 L 3597 3500 L 2284 0 L 1503 0 L 191 3500 z" transform="scale(0.015625)"/><path id="DejaVuSans-2e" d="M 684 794 L 1344 794 L 1344 0 L 684 0 L 684 794 z" transform="scale(0.015625)"/><path id="DejaVuSans-20" transform="scale(0.015625)"/><path id="DejaVuSans-74" d="M 1172 4494 L 1172 3500 L 2356 3500 L 2356 3053 L 1172 3053 L 1172 1153 Q 1172 725 1289 603 Q 1406 481 1766 481 L 2356 481 L 2356 0 L 1766 0 Q 1100 0 847 248 Q 594 497 594 1153 L 594 3053 L 172 3053 L 172 3500 L 594 3500 L 594 4494 L 1172 4494 z" transform="scale(0.015625)"/><path id="DejaVuSans-65" d="M 3597 1894 L 3597 1613 L 953 1613 Q 991 1019 1311 708 Q 1631 397 2203 397 Q 2534 397 2845 478 Q 3156 559 3463 722 L 3463 178 Q 3153 47 2828 -22 Q 2503 -91 2169 -91 Q 1331 -91 842 396 Q 353 884 353 1716 Q 353 2575 817 3079 Q 1281 3584 2069 3584 Q 2775 3584 3186 3129 Q 3597 2675 3597 1894 z M 3022 2063 Q 3016 2534 2758 2815 Q 2500 3097 2075 3097 Q 1594 3097 1305 2825 Q 1016 2553 972 2059 L 3022 2063 z" transform="scale(0.015625)"/><path id="DejaVuSans-6d" d="M 3328 2828 Q 3544 3216 3844 3400 Q 4144 3584 4550 3584 Q 5097 3584 5394 3201 Q 5691 2819 5691 2113 L 5691 0 L 5113 0 L 5113 2094 Q 5113 2597 4934 2840 Q 4756 3084 4391 3084 Q 3944 3084 3684 2787 Q 3425 2491 3425 1978 L 3425 0 L 2847 0 L 2847 2094 Q 2847 2600 2669 2842 Q 2491 3084 2119 3084 Q 1678 3084 1418 2786 Q 1159 2488 1159 1978 L 1159 0 L 581 0 L 581 3500 L 1159 3500 L 1159 2956 Q 1356 3278 1631 3431 Q 1906 3584 2284 3584 Q 2666 3584 2933 3390 Q 3200 3197 3328 2828 z" transform="scale(0.015625)"/><path id="DejaVuSans-70" d="M 1159 525 L 1159 -1331 L 581 -1331 L 581 3500 L 1159 3500 L 1159 2969 Q 1341 3281 1617 3432 Q 1894 3584 2278 3584 Q 2916 3584 3314 3078 Q 3713 2572 3713 1747 Q 3713 922 3314 415 Q 2916 -91 2278 -91 Q 1894 -91 1617 61 Q 1341 213 1159 525 z M 3116 1747 Q 3116 2381 2855 2742 Q 2594 3103 2138 3103 Q 1681 3103 1420 2742 Q 1159 2381 1159 1747 Q 1159 1113 1420 752 Q 1681 391 2138 391 Q 2594 391 2855 752 Q 3116 1113 3116 1747 z" transform="scale(0.015625)"/><path id="DejaVuSans-72" d="M 2631 2963 Q 2534 3019 2420 3045 Q 2306 3072 2169 3072 Q 1681 3072 1420 2755 Q 1159 2438 1159 1844 L 1159 0 L 581 0 L 581 3500 L 1159 3500 L 1159 2956 Q 1341 3275 1631 3429 Q 1922 3584 2338 3584 Q 2397 3584 2469 3576 Q 2541 3569 2628 3553 L 2631 2963 z" transform="scale(0.015625)"/><path id="DejaVuSans-61" d="M 2194 1759 Q 1497 1759 1228 1600 Q 959 1441 959 1056 Q 959 750 1161 570 Q 1363 391 1709 391 Q 2188 391 2477 730 Q 2766 1069 2766 1631 L 2766 1759 L 2194 1759 z M 3341 1997 L 3341 0 L 2766 0 L 2766 531 Q 2569 213 2275 61 Q 1981 -91 1556 -91 Q 1019 -91 701 211 Q 384 513 384 1019 Q 384 1609 779 1909 Q 1175 2209 1959 2209 L 2766 2209 L 2766 2266 Q 2766 2663 2505 2880 Q 2244 3097 1772 3097 Q 1472 3097 1187 3025 Q 903 2953 641 2809 L 641 3341 Q 956 3463 1253 3523 Q 1550 3584 1831 3584 Q 2591 3584 2966 3190 Q 3341 2797 3341 1997 z" transform="scale(0.015625)"/><path id="DejaVuSans-75" d="M 544 1381 L 544 3500 L 1119 3500 L 1119 1403 Q 1119 906 1312 657 Q 1506 409 1894 409 Q 2359 409 2629 706 Q 2900 1003 2900 1516 L 2900 3500 L 3475 3500 L 3475 0 L 2900 0 L 2900 538 Q 2691 219 2414 64 Q 2138 -91 1772 -91 Q 1169 -91 856 284 Q 544 659 544 1381 z M 1991 3584 L 1991 3584 z" transform="scale(0.015625)"/><path id="DejaVuSans-Oblique-3b2" d="M 872 216 L 572 -1331 L -6 -1331 L 928 3478 Q 1206 4903 2538 4903 Q 3888 4903 3659 3700 Q 3503 2844 2894 2531 Q 3713 2250 3553 1416 Q 3272 -69 1759 -66 Q 1097 -63 872 216 z M 1019 966 Q 1259 422 1875 425 Q 2775 425 2966 1406 Q 3138 2288 1675 2219 L 1778 2750 Q 2909 2731 3106 3750 Q 3241 4438 2509 4434 Q 1691 4434 1503 3459 L 1019 966 z" transform="scale(0.015625)"/></defs><use transform="translate(0 0.390625)" xlink:href="#DejaVuSans-49"/><use transform="translate(29.492188 0.390625)" xlink:href="#DejaVuSans-6e"/><use transform="translate(92.871094 0.390625)" xlink:href="#DejaVuSans-76"/><use transform="translate(152.050781 0.390625)" xlink:href="#DejaVuSans-2e"/><use transform="translate(183.837891 0.390625)" xlink:href="#DejaVuSans-20"/><use transform="translate(215.625 0.390625)" xlink:href="#DejaVuSans-74"/><use transform="translate(254.833984 0.390625)" xlink:href="#DejaVuSans-65"/><use transform="translate(316.357422 0.390625)" xlink:href="#DejaVuSans-6d"/><use transform="translate(413.769531 0.390625)" xlink:href="#DejaVuSans-70"/><use transform="translate(477.246094 0.390625)" xlink:href="#DejaVuSans-65"/><use transform="translate(538.769531 0.390625)" xlink:href="#DejaVuSans-72"/><use transform="translate(579.882812 0.390625)" xlink:href="#DejaVuSans-61"/><use transform="translate(641.162109 0.390625)" xlink:href="#DejaVuSans-74"/><use transform="translate(680.371094 0.390625)" xlink:href="#DejaVuSans-75"/><use transform="translate(743.75 0.390625)" xlink:href="#DejaVuSans-72"/><use transform="translate(784.863281 0.390625)" xlink:href="#DejaVuSans-65"/><use transform="translate(846.386719 0.390625)" xlink:href="#DejaVuSans-20"/><use transform="translate(878.173828 0.390625)" xlink:href="#DejaVuSans-Oblique-3b2"/></g></g></g><g id="matplotlib.axis_2"><g id="ytick_1"><g id="line2d_5"><defs><path id="m8953794e6b" d="M 0 0 L -3.5 0" style="stroke:#000;stroke-width:.8"/></defs><g><use style="stroke:#000;stroke-width:.8" x="58.05" y="177.288" xlink:href="#m8953794e6b"/></g></g><g id="text_6"><g transform="translate(28.784375 181.087242)scale(0.1 -0.1)"><use xlink:href="#DejaVuSans-30"/><use x="63.623" xlink:href="#DejaVuSans-2e"/><use x="95.41" xlink:href="#DejaVuSans-30"/><use x="159.033" xlink:href="#DejaVuSans-30"/></g></g></g><g id="ytick_2"><g id="line2d_6"><g><use style="stroke:#000;stroke-width:.8" x="58.05" y="153.22" xlink:href="#m8953794e6b"/></g></g><g id="text_7"><g transform="translate(28.784375 157.019597)scale(0.1 -0.1)"><defs><path id="DejaVuSans-35" d="M 691 4666 L 3169 4666 L 3169 4134 L 1269 4134 L 1269 2991 Q 1406 3038 1543 3061 Q 1681 3084 1819 3084 Q 2600 3084 3056 2656 Q 3513 2228 3513 1497 Q 3513 744 3044 326 Q 2575 -91 1722 -91 Q 1428 -91 1123 -41 Q 819 9 494 109 L 494 744 Q 775 591 1075 516 Q 1375 441 1709 441 Q 2250 441 2565 725 Q 2881 1009 2881 1497 Q 2881 1984 2565 2268 Q 2250 2553 1709 2553 Q 1456 2553 1204 2497 Q 953 2441 691 2322 L 691 4666 z" transform="scale(0.015625)"/></defs><use xlink:href="#DejaVuSans-30"/><use x="63.623" xlink:href="#DejaVuSans-2e"/><use x="95.41" xlink:href="#DejaVuSans-30"/><use x="159.033" xlink:href="#DejaVuSans-35"/></g></g></g><g id="ytick_3"><g id="line2d_7"><g><use style="stroke:#000;stroke-width:.8" x="58.05" y="129.153" xlink:href="#m8953794e6b"/></g></g><g id="text_8"><g transform="translate(28.784375 132.951952)scale(0.1 -0.1)"><defs><path id="DejaVuSans-31" d="M 794 531 L 1825 531 L 1825 4091 L 703 3866 L 703 4441 L 1819 4666 L 2450 4666 L 2450 531 L 3481 531 L 3481 0 L 794 0 L 794 531 z" transform="scale(0.015625)"/></defs><use xlink:href="#DejaVuSans-30"/><use x="63.623" xlink:href="#DejaVuSans-2e"/><use x="95.41" xlink:href="#DejaVuSans-31"/><use x="159.033" xlink:href="#DejaVuSans-30"/></g></g></g><g id="ytick_4"><g id="line2d_8"><g><use style="stroke:#000;stroke-width:.8" x="58.05" y="105.085" xlink:href="#m8953794e6b"/></g></g><g id="text_9"><g transform="translate(28.784375 108.884307)scale(0.1 -0.1)"><use xlink:href="#DejaVuSans-30"/><use x="63.623" xlink:href="#DejaVuSans-2e"/><use x="95.41" xlink:href="#DejaVuSans-31"/><use x="159.033" xlink:href="#DejaVuSans-35"/></g></g></g><g id="ytick_5"><g id="line2d_9"><g><use style="stroke:#000;stroke-width:.8" x="58.05" y="81.017" xlink:href="#m8953794e6b"/></g></g><g id="text_10"><g transform="translate(28.784375 84.816662)scale(0.1 -0.1)"><use xlink:href="#DejaVuSans-30"/><use x="63.623" xlink:href="#DejaVuSans-2e"/><use x="95.41" xlink:href="#DejaVuSans-32"/><use x="159.033" xlink:href="#DejaVuSans-30"/></g></g></g><g id="ytick_6"><g id="line2d_10"><g><use style="stroke:#000;stroke-width:.8" x="58.05" y="56.95" xlink:href="#m8953794e6b"/></g></g><g id="text_11"><g transform="translate(28.784375 60.749016)scale(0.1 -0.1)"><use xlink:href="#DejaVuSans-30"/><use x="63.623" xlink:href="#DejaVuSans-2e"/><use x="95.41" xlink:href="#DejaVuSans-32"/><use x="159.033" xlink:href="#DejaVuSans-35"/></g></g></g><g id="ytick_7"><g id="line2d_11"><g><use style="stroke:#000;stroke-width:.8" x="58.05" y="32.882" xlink:href="#m8953794e6b"/></g></g><g id="text_12"><g transform="translate(28.784375 36.681371)scale(0.1 -0.1)"><defs><path id="DejaVuSans-33" d="M 2597 2516 Q 3050 2419 3304 2112 Q 3559 1806 3559 1356 Q 3559 666 3084 287 Q 2609 -91 1734 -91 Q 1441 -91 1130 -33 Q 819 25 488 141 L 488 750 Q 750 597 1062 519 Q 1375 441 1716 441 Q 2309 441 2620 675 Q 2931 909 2931 1356 Q 2931 1769 2642 2001 Q 2353 2234 1838 2234 L 1294 2234 L 1294 2753 L 1863 2753 Q 2328 2753 2575 2939 Q 2822 3125 2822 3475 Q 2822 3834 2567 4026 Q 2313 4219 1838 4219 Q 1578 4219 1281 4162 Q 984 4106 628 3988 L 628 4550 Q 988 4650 1302 4700 Q 1616 4750 1894 4750 Q 2613 4750 3031 4423 Q 3450 4097 3450 3541 Q 3450 3153 3228 2886 Q 3006 2619 2597 2516 z" transform="scale(0.015625)"/></defs><use xlink:href="#DejaVuSans-30"/><use x="63.623" xlink:href="#DejaVuSans-2e"/><use x="95.41" xlink:href="#DejaVuSans-33"/><use x="159.033" xlink:href="#DejaVuSans-30"/></g></g></g><g id="text_13"><g transform="translate(22.684375 123.55)rotate(-90)scale(0.1 -0.1)"><defs><path id="DejaVuSans-45" d="M 628 4666 L 3578 4666 L 3578 4134 L 1259 4134 L 1259 2753 L 3481 2753 L 3481 2222 L 1259 2222 L 1259 531 L 3634 531 L 3634 0 L 628 0 L 628 4666 z" transform="scale(0.015625)"/><path id="DejaVuSans-67" d="M 2906 1791 Q 2906 2416 2648 2759 Q 2391 3103 1925 3103 Q 1463 3103 1205 2759 Q 947 2416 947 1791 Q 947 1169 1205 825 Q 1463 481 1925 481 Q 2391 481 2648 825 Q 2906 1169 2906 1791 z M 3481 434 Q 3481 -459 3084 -895 Q 2688 -1331 1869 -1331 Q 1566 -1331 1297 -1286 Q 1028 -1241 775 -1147 L 775 -588 Q 1028 -725 1275 -790 Q 1522 -856 1778 -856 Q 2344 -856 2625 -561 Q 2906 -266 2906 331 L 2906 616 Q 2728 306 2450 153 Q 2172 0 1784 0 Q 1141 0 747 490 Q 353 981 353 1791 Q 353 2603 747 3093 Q 1141 3584 1784 3584 Q 2172 3584 2450 3431 Q 2728 3278 2906 2969 L 2906 3500 L 3481 3500 L 3481 434 z" transform="scale(0.015625)"/><path id="DejaVuSans-79" d="M 2059 -325 Q 1816 -950 1584 -1140 Q 1353 -1331 966 -1331 L 506 -1331 L 506 -850 L 844 -850 Q 1081 -850 1212 -737 Q 1344 -625 1503 -206 L 1606 56 L 191 3500 L 800 3500 L 1894 763 L 2988 3500 L 3597 3500 L 2059 -325 z" transform="scale(0.015625)"/><path id="DejaVuSans-Oblique-45" d="M 1081 4666 L 4031 4666 L 3928 4134 L 1606 4134 L 1338 2753 L 3566 2753 L 3463 2222 L 1234 2222 L 909 531 L 3284 531 L 3181 0 L 172 0 L 1081 4666 z" transform="scale(0.015625)"/><path id="DejaVuSans-28" d="M 1984 4856 Q 1566 4138 1362 3434 Q 1159 2731 1159 2009 Q 1159 1288 1364 580 Q 1569 -128 1984 -844 L 1484 -844 Q 1016 -109 783 600 Q 550 1309 550 2009 Q 550 2706 781 3412 Q 1013 4119 1484 4856 L 1984 4856 z" transform="scale(0.015625)"/><path id="DejaVuSans-29" d="M 513 4856 L 1013 4856 Q 1481 4119 1714 3412 Q 1947 2706 1947 2009 Q 1947 1309 1714 600 Q 1481 -109 1013 -844 L 513 -844 Q 928 -128 1133 580 Q 1338 1288 1338 2009 Q 1338 2731 1133 3434 Q 928 4138 513 4856 z" transform="scale(0.015625)"/></defs><use transform="translate(0 0.390625)" xlink:href="#DejaVuSans-45"/><use transform="translate(63.183594 0.390625)" xlink:href="#DejaVuSans-6e"/><use transform="translate(126.5625 0.390625)" xlink:href="#DejaVuSans-65"/><use transform="translate(188.085938 0.390625)" xlink:href="#DejaVuSans-72"/><use transform="translate(229.199219 0.390625)" xlink:href="#DejaVuSans-67"/><use transform="translate(292.675781 0.390625)" xlink:href="#DejaVuSans-79"/><use transform="translate(351.855469 0.390625)" xlink:href="#DejaVuSans-20"/><use transform="translate(383.642578 0.390625)" xlink:href="#DejaVuSans-Oblique-45"/><use transform="translate(446.826172 0.390625)" xlink:href="#DejaVuSans-28"/><use transform="translate(485.839844 0.390625)" xlink:href="#DejaVuSans-Oblique-3b2"/><use transform="translate(549.658203 0.390625)" xlink:href="#DejaVuSans-29"/></g></g></g><g id="line2d_12"><path d="M 65.753977 18.372727 L 87.765341 77.51261 L 109.776705 118.951532 L 131.788068 119.578627 L 153.799432 142.583471 L 175.810795 143.932919 L 197.822159 146.192126 L 219.833523 169.827273" clip-path="url(#p119cda675f)" style="fill:none;stroke:#000;stroke-dasharray:5.55,2.4;stroke-dashoffset:0;stroke-width:1.5"/></g><g id="line2d_13"><path d="M 65.753977 85.61093 L 87.765341 115.155598 L 109.776705 122.270888 L 131.788068 122.575683 L 153.799432 117.049528 L 175.810795 116.107063 L 197.822159 122.922731 L 219.833523 135.258865" clip-path="url(#p119cda675f)" style="fill:none;stroke:#00f;stroke-linecap:square;stroke-width:1.5"/><defs><path id="m1e95b653c0" d="M 0 4.25 C 1.127113 4.25 2.208214 3.802193 3.005204 3.005204 C 3.802193 2.208214 4.25 1.127113 4.25 0 C 4.25 -1.127113 3.802193 -2.208214 3.005204 -3.005204 C 2.208214 -3.802193 1.127113 -4.25 0 -4.25 C -1.127113 -4.25 -2.208214 -3.802193 -3.005204 -3.005204 C -3.802193 -2.208214 -4.25 -1.127113 -4.25 0 C -4.25 1.127113 -3.802193 2.208214 -3.005204 3.005204 C -2.208214 3.802193 -1.127113 4.25 0 4.25 z" style="stroke:#00f"/></defs><g clip-path="url(#p119cda675f)"><use style="fill:#fff;stroke:#00f" x="65.754" y="85.611" xlink:href="#m1e95b653c0"/><use style="fill:#fff;stroke:#00f" x="87.765" y="115.156" xlink:href="#m1e95b653c0"/><use style="fill:#fff;stroke:#00f" x="109.777" y="122.271" xlink:href="#m1e95b653c0"/><use style="fill:#fff;stroke:#00f" x="131.788" y="122.576" xlink:href="#m1e95b653c0"/><use style="fill:#fff;stroke:#00f" x="153.799" y="117.05" xlink:href="#m1e95b653c0"/><use style="fill:#fff;stroke:#00f" x="175.811" y="116.107" xlink:href="#m1e95b653c0"/><use style="fill:#fff;stroke:#00f" x="197.822" y="122.923" xlink:href="#m1e95b653c0"/><use style="fill:#fff;stroke:#00f" x="219.834" y="135.259" xlink:href="#m1e95b653c0"/></g></g><g id="line2d_14"><path d="M 65.753977 105.899236 L 87.765341 113.269831 L 109.776705 117.011561 L 131.788068 116.978665 L 153.799432 118.67987 L 175.810795 118.069332 L 197.822159 119.665042 L 219.833523 127.377748" clip-path="url(#p119cda675f)" style="fill:none;stroke:green;stroke-linecap:square;stroke-width:1.5"/><defs><path id="m6391f9ba23" d="M -0 4.949747 L 4.949747 0 L 0 -4.949747 L -4.949747 -0 z" style="stroke:green;stroke-linejoin:miter"/></defs><g clip-path="url(#p119cda675f)"><use style="fill:#fff;stroke:green;stroke-linejoin:miter" x="65.754" y="105.899" xlink:href="#m6391f9ba23"/><use style="fill:#fff;stroke:green;stroke-linejoin:miter" x="87.765" y="113.27" xlink:href="#m6391f9ba23"/><use style="fill:#fff;stroke:green;stroke-linejoin:miter" x="109.777" y="117.012" xlink:href="#m6391f9ba23"/><use style="fill:#fff;stroke:green;stroke-linejoin:miter" x="131.788" y="116.979" xlink:href="#m6391f9ba23"/><use style="fill:#fff;stroke:green;stroke-linejoin:miter" x="153.799" y="118.68" xlink:href="#m6391f9ba23"/><use style="fill:#fff;stroke:green;stroke-linejoin:miter" x="175.811" y="118.069" xlink:href="#m6391f9ba23"/><use style="fill:#fff;stroke:green;stroke-linejoin:miter" x="197.822" y="119.665" xlink:href="#m6391f9ba23"/><use style="fill:#fff;stroke:green;stroke-linejoin:miter" x="219.834" y="127.378" xlink:href="#m6391f9ba23"/></g></g><g id="line2d_15"><path d="M 65.753977 23.57422 L 87.765341 79.573467 L 109.776705 118.904508 L 131.788068 118.202737 L 153.799432 144.237456 L 175.810795 141.512674 L 197.822159 142.352981 L 219.833523 168.593242" clip-path="url(#p119cda675f)" style="fill:none;stroke:red;stroke-linecap:square;stroke-width:1.5"/><defs><path id="me26ff08f12" d="M -3.75 3.75 L 3.75 3.75 L 3.75 -3.75 L -3.75 -3.75 z" style="stroke:red;stroke-linejoin:miter"/></defs><g clip-path="url(#p119cda675f)"><use style="fill:#fff;stroke:red;stroke-linejoin:miter" x="65.754" y="23.574" xlink:href="#me26ff08f12"/><use style="fill:#fff;stroke:red;stroke-linejoin:miter" x="87.765" y="79.573" xlink:href="#me26ff08f12"/><use style="fill:#fff;stroke:red;stroke-linejoin:miter" x="109.777" y="118.905" xlink:href="#me26ff08f12"/><use style="fill:#fff;stroke:red;stroke-linejoin:miter" x="131.788" y="118.203" xlink:href="#me26ff08f12"/><use style="fill:#fff;stroke:red;stroke-linejoin:miter" x="153.799" y="144.237" xlink:href="#me26ff08f12"/><use style="fill:#fff;stroke:red;stroke-linejoin:miter" x="175.811" y="141.513" xlink:href="#me26ff08f12"/><use style="fill:#fff;stroke:red;stroke-linejoin:miter" x="197.822" y="142.353" xlink:href="#me26ff08f12"/><use style="fill:#fff;stroke:red;stroke-linejoin:miter" x="219.834" y="168.593" xlink:href="#me26ff08f12"/></g></g><g id="patch_3"><path d="M 58.05 177.4 L 58.05 10.8" style="fill:none;stroke:#000;stroke-linecap:square;stroke-linejoin:miter;stroke-width:.8"/></g><g id="patch_4"><path d="M 227.5375 177.4 L 227.5375 10.8" style="fill:none;stroke:#000;stroke-linecap:square;stroke-linejoin:miter;stroke-width:.8"/></g><g id="patch_5"><path d="M 58.05 177.4 L 227.5375 177.4" style="fill:none;stroke:#000;stroke-linecap:square;stroke-linejoin:miter;stroke-width:.8"/></g><g id="patch_6"><path d="M 58.05 10.8 L 227.5375 10.8" style="fill:none;stroke:#000;stroke-linecap:square;stroke-linejoin:miter;stroke-width:.8"/></g></g><g id="axes_2"><g id="patch_7"><path d="M 287.7125 177.4 L 457.2 177.4 L 457.2 10.8 L 287.7125 10.8 z" style="fill:#fff"/></g><g id="matplotlib.axis_3"><g id="xtick_5"><g id="line2d_16"><g><use style="stroke:#000;stroke-width:.8" x="295.416" y="177.4" xlink:href="#mb5d6d83312"/></g></g><g id="text_14"><g transform="translate(292.235227 191.998438)scale(0.1 -0.1)"><use xlink:href="#DejaVuSans-30"/></g></g></g><g id="xtick_6"><g id="line2d_17"><g><use style="stroke:#000;stroke-width:.8" x="346.776" y="177.4" xlink:href="#mb5d6d83312"/></g></g><g id="text_15"><g transform="translate(343.595076 191.998438)scale(0.1 -0.1)"><use xlink:href="#DejaVuSans-31"/></g></g></g><g id="xtick_7"><g id="line2d_18"><g><use style="stroke:#000;stroke-width:.8" x="398.136" y="177.4" xlink:href="#mb5d6d83312"/></g></g><g id="text_16"><g transform="translate(394.954924 191.998438)scale(0.1 -0.1)"><use xlink:href="#DejaVuSans-32"/></g></g></g><g id="xtick_8"><g id="line2d_19"><g><use style="stroke:#000;stroke-width:.8" x="449.496" y="177.4" xlink:href="#mb5d6d83312"/></g></g><g id="text_17"><g transform="translate(446.314773 191.998438)scale(0.1 -0.1)"><use xlink:href="#DejaVuSans-33"/></g></g></g><g id="text_18"><g transform="translate(325.35625 205.778125)scale(0.1 -0.1)"><use transform="translate(0 0.390625)" xlink:href="#DejaVuSans-49"/><use transform="translate(29.492188 0.390625)" xlink:href="#DejaVuSans-6e"/><use transform="translate(92.871094 0.390625)" xlink:href="#DejaVuSans-76"/><use transform="translate(152.050781 0.390625)" xlink:href="#DejaVuSans-2e"/><use transform="translate(183.837891 0.390625)" xlink:href="#DejaVuSans-20"/><use transform="translate(215.625 0.390625)" xlink:href="#DejaVuSans-74"/><use transform="translate(254.833984 0.390625)" xlink:href="#DejaVuSans-65"/><use transform="translate(316.357422 0.390625)" xlink:href="#DejaVuSans-6d"/><use transform="translate(413.769531 0.390625)" xlink:href="#DejaVuSans-70"/><use transform="translate(477.246094 0.390625)" xlink:href="#DejaVuSans-65"/><use transform="translate(538.769531 0.390625)" xlink:href="#DejaVuSans-72"/><use transform="translate(579.882812 0.390625)" xlink:href="#DejaVuSans-61"/><use transform="translate(641.162109 0.390625)" xlink:href="#DejaVuSans-74"/><use transform="translate(680.371094 0.390625)" xlink:href="#DejaVuSans-75"/><use transform="translate(743.75 0.390625)" xlink:href="#DejaVuSans-72"/><use transform="translate(784.863281 0.390625)" xlink:href="#DejaVuSans-65"/><use transform="translate(846.386719 0.390625)" xlink:href="#DejaVuSans-20"/><use transform="translate(878.173828 0.390625)" xlink:href="#DejaVuSans-Oblique-3b2"/></g></g></g><g id="matplotlib.axis_4"><g id="ytick_8"><g id="line2d_20"><g><use style="stroke:#000;stroke-width:.8" x="287.712" y="169.819" xlink:href="#m8953794e6b"/></g></g><g id="text_19"><g transform="translate(256.429688 173.618335)scale(0.1 -0.1)"><defs><path id="DejaVuSans-2212" d="M 678 2272 L 4684 2272 L 4684 1741 L 678 1741 L 678 2272 z" transform="scale(0.015625)"/></defs><use xlink:href="#DejaVuSans-2212"/><use x="83.789" xlink:href="#DejaVuSans-32"/><use x="147.412" xlink:href="#DejaVuSans-2e"/><use x="179.199" xlink:href="#DejaVuSans-35"/></g></g></g><g id="ytick_9"><g id="line2d_21"><g><use style="stroke:#000;stroke-width:.8" x="287.712" y="139.53" xlink:href="#m8953794e6b"/></g></g><g id="text_20"><g transform="translate(256.429688 143.329057)scale(0.1 -0.1)"><use xlink:href="#DejaVuSans-2212"/><use x="83.789" xlink:href="#DejaVuSans-32"/><use x="147.412" xlink:href="#DejaVuSans-2e"/><use x="179.199" xlink:href="#DejaVuSans-30"/></g></g></g><g id="ytick_10"><g id="line2d_22"><g><use style="stroke:#000;stroke-width:.8" x="287.712" y="109.241" xlink:href="#m8953794e6b"/></g></g><g id="text_21"><g transform="translate(256.429688 113.039779)scale(0.1 -0.1)"><use xlink:href="#DejaVuSans-2212"/><use x="83.789" xlink:href="#DejaVuSans-31"/><use x="147.412" xlink:href="#DejaVuSans-2e"/><use x="179.199" xlink:href="#DejaVuSans-35"/></g></g></g><g id="ytick_11"><g id="line2d_23"><g><use style="stroke:#000;stroke-width:.8" x="287.712" y="78.951" xlink:href="#m8953794e6b"/></g></g><g id="text_22"><g transform="translate(256.429688 82.750502)scale(0.1 -0.1)"><use xlink:href="#DejaVuSans-2212"/><use x="83.789" xlink:href="#DejaVuSans-31"/><use x="147.412" xlink:href="#DejaVuSans-2e"/><use x="179.199" xlink:href="#DejaVuSans-30"/></g></g></g><g id="ytick_12"><g id="line2d_24"><g><use style="stroke:#000;stroke-width:.8" x="287.712" y="48.662" xlink:href="#m8953794e6b"/></g></g><g id="text_23"><g transform="translate(256.429688 52.461224)scale(0.1 -0.1)"><use xlink:href="#DejaVuSans-2212"/><use x="83.789" xlink:href="#DejaVuSans-30"/><use x="147.412" xlink:href="#DejaVuSans-2e"/><use x="179.199" xlink:href="#DejaVuSans-35"/></g></g></g><g id="ytick_13"><g id="line2d_25"><g><use style="stroke:#000;stroke-width:.8" x="287.712" y="18.373" xlink:href="#m8953794e6b"/></g></g><g id="text_24"><g transform="translate(264.809375 22.171946)scale(0.1 -0.1)"><use xlink:href="#DejaVuSans-30"/><use x="63.623" xlink:href="#DejaVuSans-2e"/><use x="95.41" xlink:href="#DejaVuSans-30"/></g></g></g><g id="text_25"><g transform="translate(250.329688 123.55)rotate(-90)scale(0.1 -0.1)"><use transform="translate(0 0.390625)" xlink:href="#DejaVuSans-45"/><use transform="translate(63.183594 0.390625)" xlink:href="#DejaVuSans-6e"/><use transform="translate(126.5625 0.390625)" xlink:href="#DejaVuSans-65"/><use transform="translate(188.085938 0.390625)" xlink:href="#DejaVuSans-72"/><use transform="translate(229.199219 0.390625)" xlink:href="#DejaVuSans-67"/><use transform="translate(292.675781 0.390625)" xlink:href="#DejaVuSans-79"/><use transform="translate(351.855469 0.390625)" xlink:href="#DejaVuSans-20"/><use transform="translate(383.642578 0.390625)" xlink:href="#DejaVuSans-Oblique-45"/><use transform="translate(446.826172 0.390625)" xlink:href="#DejaVuSans-28"/><use transform="translate(485.839844 0.390625)" xlink:href="#DejaVuSans-Oblique-3b2"/><use transform="translate(549.658203 0.390625)" xlink:href="#DejaVuSans-29"/></g></g></g><g id="line2d_26"><path d="M 295.416477 18.372727 L 321.096402 87.627203 L 346.776326 128.878976 L 372.45625 151.040189 L 398.136174 161.803945 L 423.816098 167.077134 L 449.496023 169.827273" clip-path="url(#p84719cf1b1)" style="fill:none;stroke:#000;stroke-dasharray:5.55,2.4;stroke-dashoffset:0;stroke-width:1.5"/></g><g id="line2d_27"><path d="M 295.416477 18.372727 L 321.096402 36.758021 L 346.776326 53.778504 L 372.45625 60.961131 L 398.136174 64.527593 L 423.816098 65.877832 L 449.496023 67.074126" clip-path="url(#p84719cf1b1)" style="fill:none;stroke:#00f;stroke-linecap:square;stroke-width:1.5"/><g clip-path="url(#p84719cf1b1)"><use style="fill:#fff;stroke:#00f" x="295.416" y="18.373" xlink:href="#m1e95b653c0"/><use style="fill:#fff;stroke:#00f" x="321.096" y="36.758" xlink:href="#m1e95b653c0"/><use style="fill:#fff;stroke:#00f" x="346.776" y="53.779" xlink:href="#m1e95b653c0"/><use style="fill:#fff;stroke:#00f" x="372.456" y="60.961" xlink:href="#m1e95b653c0"/><use style="fill:#fff;stroke:#00f" x="398.136" y="64.528" xlink:href="#m1e95b653c0"/><use style="fill:#fff;stroke:#00f" x="423.816" y="65.878" xlink:href="#m1e95b653c0"/><use style="fill:#fff;stroke:#00f" x="449.496" y="67.074" xlink:href="#m1e95b653c0"/></g></g><g id="line2d_28"><path d="M 295.416477 18.372727 L 321.096402 27.773748 L 346.776326 32.394755 L 372.45625 33.449426 L 398.136174 35.676678 L 423.816098 34.508176 L 449.496023 36.171512" clip-path="url(#p84719cf1b1)" style="fill:none;stroke:green;stroke-linecap:square;stroke-width:1.5"/><g clip-path="url(#p84719cf1b1)"><use style="fill:#fff;stroke:green;stroke-linejoin:miter" x="295.416" y="18.373" xlink:href="#m6391f9ba23"/><use style="fill:#fff;stroke:green;stroke-linejoin:miter" x="321.096" y="27.774" xlink:href="#m6391f9ba23"/><use style="fill:#fff;stroke:green;stroke-linejoin:miter" x="346.776" y="32.395" xlink:href="#m6391f9ba23"/><use style="fill:#fff;stroke:green;stroke-linejoin:miter" x="372.456" y="33.449" xlink:href="#m6391f9ba23"/><use style="fill:#fff;stroke:green;stroke-linejoin:miter" x="398.136" y="35.677" xlink:href="#m6391f9ba23"/><use style="fill:#fff;stroke:green;stroke-linejoin:miter" x="423.816" y="34.508" xlink:href="#m6391f9ba23"/><use style="fill:#fff;stroke:green;stroke-linejoin:miter" x="449.496" y="36.172" xlink:href="#m6391f9ba23"/></g></g><g id="line2d_29"><path d="M 295.416477 18.372727 L 321.096402 84.661964 L 346.776326 123.226892 L 372.45625 138.258417 L 398.136174 148.617481 L 423.816098 150.519976 L 449.496023 150.691477" clip-path="url(#p84719cf1b1)" style="fill:none;stroke:red;stroke-linecap:square;stroke-width:1.5"/><g clip-path="url(#p84719cf1b1)"><use style="fill:#fff;stroke:red;stroke-linejoin:miter" x="295.416" y="18.373" xlink:href="#me26ff08f12"/><use style="fill:#fff;stroke:red;stroke-linejoin:miter" x="321.096" y="84.662" xlink:href="#me26ff08f12"/><use style="fill:#fff;stroke:red;stroke-linejoin:miter" x="346.776" y="123.227" xlink:href="#me26ff08f12"/><use style="fill:#fff;stroke:red;stroke-linejoin:miter" x="372.456" y="138.258" xlink:href="#me26ff08f12"/><use style="fill:#fff;stroke:red;stroke-linejoin:miter" x="398.136" y="148.617" xlink:href="#me26ff08f12"/><use style="fill:#fff;stroke:red;stroke-linejoin:miter" x="423.816" y="150.52" xlink:href="#me26ff08f12"/><use style="fill:#fff;stroke:red;stroke-linejoin:miter" x="449.496" y="150.691" xlink:href="#me26ff08f12"/></g></g><g id="patch_8"><path d="M 287.7125 177.4 L 287.7125 10.8" style="fill:none;stroke:#000;stroke-linecap:square;stroke-linejoin:miter;stroke-width:.8"/></g><g id="patch_9"><path d="M 457.2 177.4 L 457.2 10.8" style="fill:none;stroke:#000;stroke-linecap:square;stroke-linejoin:miter;stroke-width:.8"/></g><g id="patch_10"><path d="M 287.7125 177.4 L 457.2 177.4" style="fill:none;stroke:#000;stroke-linecap:square;stroke-linejoin:miter;stroke-width:.8"/></g><g id="patch_11"><path d="M 287.7125 10.8 L 457.2 10.8" style="fill:none;stroke:#000;stroke-linecap:square;stroke-linejoin:miter;stroke-width:.8"/></g></g></g><defs><clipPath id="p119cda675f"><rect width="169.488" height="166.6" x="58.05" y="10.8"/></clipPath><clipPath id="p84719cf1b1"><rect width="169.488" height="166.6" x="287.712" y="10.8"/></clipPath></defs></svg>