<?xml version="1.0" encoding="utf-8" standalone="no"?>
<!DOCTYPE svg PUBLIC "-//W3C//DTD SVG 1.1//EN"
  "http://www.w3.org/Graphics/SVG/1.1/DTD/svg11.dtd">
<svg xmlns:xlink="http://www.w3.org/1999/xlink" width="720pt" height="288pt" viewBox="0 0 720 288" xmlns="http://www.w3.org/2000/svg" version="1.1">
 <metadata>
  <rdf:RDF xmlns:dc="http://purl.org/dc/elements/1.1/" xmlns:cc="http://creativecommons.org/ns#" xmlns:rdf="http://www.w3.org/1999/02/22-rdf-syntax-ns#">
   <cc:Work>
    <dc:type rdf:resource="http://purl.org/dc/dcmitype/StillImage"/>
    <dc:date>2022-09-07T16:39:09.896938</dc:date>
    <dc:format>image/svg+xml</dc:format>
    <dc:creator>
     <cc:Agent>
      <dc:title>Matplotlib v3.5.2, https://matplotlib.org/</dc:title>
     </cc:Agent>
    </dc:creator>
   </cc:Work>
  </rdf:RDF>
 </metadata>
 <defs>
  <style type="text/css">*{stroke-linejoin: round; stroke-linecap: butt}</style>
 </defs>
 <g id="figure_1">
  <g id="patch_1">
   <path d="M 0 288 
L 720 288 
L 720 0 
L 0 0 
L 0 288 
z
" style="fill: none"/>
  </g>
  <g id="axes_1">
   <g id="patch_2">
    <path d="M 71.12 233.88 
L 378.69 233.88 
L 378.69 15.12 
L 71.12 15.12 
z
" style="fill: #ffffff"/>
   </g>
   <g id="matplotlib.axis_1">
    <g id="xtick_1">
     <g id="line2d_1">
      <defs>
       <path id="ma94d18cfff" d="M 0 0 
L 0 3.5 
" style="stroke: #000000; stroke-width: 0.8"/>
      </defs>
      <g>
       <use xlink:href="#ma94d18cfff" x="85.100455" y="233.88" style="stroke: #000000; stroke-width: 0.8"/>
      </g>
     </g>
     <g id="text_1">
      <!-- 1 -->
      <g transform="translate(80.646705 251.517812)scale(0.14 -0.14)">
       <defs>
        <path id="DejaVuSans-31" d="M 794 531 
L 1825 531 
L 1825 4091 
L 703 3866 
L 703 4441 
L 1819 4666 
L 2450 4666 
L 2450 531 
L 3481 531 
L 3481 0 
L 794 0 
L 794 531 
z
" transform="scale(0.015625)"/>
       </defs>
       <use xlink:href="#DejaVuSans-31"/>
      </g>
     </g>
    </g>
    <g id="xtick_2">
     <g id="line2d_2">
      <g>
       <use xlink:href="#ma94d18cfff" x="103.741061" y="233.88" style="stroke: #000000; stroke-width: 0.8"/>
      </g>
     </g>
     <g id="text_2">
      <!-- 2 -->
      <g transform="translate(99.287311 251.517812)scale(0.14 -0.14)">
       <defs>
        <path id="DejaVuSans-32" d="M 1228 531 
L 3431 531 
L 3431 0 
L 469 0 
L 469 531 
Q 828 903 1448 1529 
Q 2069 2156 2228 2338 
Q 2531 2678 2651 2914 
Q 2772 3150 2772 3378 
Q 2772 3750 2511 3984 
Q 2250 4219 1831 4219 
Q 1534 4219 1204 4116 
Q 875 4013 500 3803 
L 500 4441 
Q 881 4594 1212 4672 
Q 1544 4750 1819 4750 
Q 2544 4750 2975 4387 
Q 3406 4025 3406 3419 
Q 3406 3131 3298 2873 
Q 3191 2616 2906 2266 
Q 2828 2175 2409 1742 
Q 1991 1309 1228 531 
z
" transform="scale(0.015625)"/>
       </defs>
       <use xlink:href="#DejaVuSans-32"/>
      </g>
     </g>
    </g>
    <g id="xtick_3">
     <g id="line2d_3">
      <g>
       <use xlink:href="#ma94d18cfff" x="141.022273" y="233.88" style="stroke: #000000; stroke-width: 0.8"/>
      </g>
     </g>
     <g id="text_3">
      <!-- 4 -->
      <g transform="translate(136.568523 251.517812)scale(0.14 -0.14)">
       <defs>
        <path id="DejaVuSans-34" d="M 2419 4116 
L 825 1625 
L 2419 1625 
L 2419 4116 
z
M 2253 4666 
L 3047 4666 
L 3047 1625 
L 3713 1625 
L 3713 1100 
L 3047 1100 
L 3047 0 
L 2419 0 
L 2419 1100 
L 313 1100 
L 313 1709 
L 2253 4666 
z
" transform="scale(0.015625)"/>
       </defs>
       <use xlink:href="#DejaVuSans-34"/>
      </g>
     </g>
    </g>
    <g id="xtick_4">
     <g id="line2d_4">
      <g>
       <use xlink:href="#ma94d18cfff" x="178.303485" y="233.88" style="stroke: #000000; stroke-width: 0.8"/>
      </g>
     </g>
     <g id="text_4">
      <!-- 6 -->
      <g transform="translate(173.849735 251.517812)scale(0.14 -0.14)">
       <defs>
        <path id="DejaVuSans-36" d="M 2113 2584 
Q 1688 2584 1439 2293 
Q 1191 2003 1191 1497 
Q 1191 994 1439 701 
Q 1688 409 2113 409 
Q 2538 409 2786 701 
Q 3034 994 3034 1497 
Q 3034 2003 2786 2293 
Q 2538 2584 2113 2584 
z
M 3366 4563 
L 3366 3988 
Q 3128 4100 2886 4159 
Q 2644 4219 2406 4219 
Q 1781 4219 1451 3797 
Q 1122 3375 1075 2522 
Q 1259 2794 1537 2939 
Q 1816 3084 2150 3084 
Q 2853 3084 3261 2657 
Q 3669 2231 3669 1497 
Q 3669 778 3244 343 
Q 2819 -91 2113 -91 
Q 1303 -91 875 529 
Q 447 1150 447 2328 
Q 447 3434 972 4092 
Q 1497 4750 2381 4750 
Q 2619 4750 2861 4703 
Q 3103 4656 3366 4563 
z
" transform="scale(0.015625)"/>
       </defs>
       <use xlink:href="#DejaVuSans-36"/>
      </g>
     </g>
    </g>
    <g id="xtick_5">
     <g id="line2d_5">
      <g>
       <use xlink:href="#ma94d18cfff" x="215.584697" y="233.88" style="stroke: #000000; stroke-width: 0.8"/>
      </g>
     </g>
     <g id="text_5">
      <!-- 8 -->
      <g transform="translate(211.130947 251.517812)scale(0.14 -0.14)">
       <defs>
        <path id="DejaVuSans-38" d="M 2034 2216 
Q 1584 2216 1326 1975 
Q 1069 1734 1069 1313 
Q 1069 891 1326 650 
Q 1584 409 2034 409 
Q 2484 409 2743 651 
Q 3003 894 3003 1313 
Q 3003 1734 2745 1975 
Q 2488 2216 2034 2216 
z
M 1403 2484 
Q 997 2584 770 2862 
Q 544 3141 544 3541 
Q 544 4100 942 4425 
Q 1341 4750 2034 4750 
Q 2731 4750 3128 4425 
Q 3525 4100 3525 3541 
Q 3525 3141 3298 2862 
Q 3072 2584 2669 2484 
Q 3125 2378 3379 2068 
Q 3634 1759 3634 1313 
Q 3634 634 3220 271 
Q 2806 -91 2034 -91 
Q 1263 -91 848 271 
Q 434 634 434 1313 
Q 434 1759 690 2068 
Q 947 2378 1403 2484 
z
M 1172 3481 
Q 1172 3119 1398 2916 
Q 1625 2713 2034 2713 
Q 2441 2713 2670 2916 
Q 2900 3119 2900 3481 
Q 2900 3844 2670 4047 
Q 2441 4250 2034 4250 
Q 1625 4250 1398 4047 
Q 1172 3844 1172 3481 
z
" transform="scale(0.015625)"/>
       </defs>
       <use xlink:href="#DejaVuSans-38"/>
      </g>
     </g>
    </g>
    <g id="xtick_6">
     <g id="line2d_6">
      <g>
       <use xlink:href="#ma94d18cfff" x="252.865909" y="233.88" style="stroke: #000000; stroke-width: 0.8"/>
      </g>
     </g>
     <g id="text_6">
      <!-- 10 -->
      <g transform="translate(243.958409 251.517812)scale(0.14 -0.14)">
       <defs>
        <path id="DejaVuSans-30" d="M 2034 4250 
Q 1547 4250 1301 3770 
Q 1056 3291 1056 2328 
Q 1056 1369 1301 889 
Q 1547 409 2034 409 
Q 2525 409 2770 889 
Q 3016 1369 3016 2328 
Q 3016 3291 2770 3770 
Q 2525 4250 2034 4250 
z
M 2034 4750 
Q 2819 4750 3233 4129 
Q 3647 3509 3647 2328 
Q 3647 1150 3233 529 
Q 2819 -91 2034 -91 
Q 1250 -91 836 529 
Q 422 1150 422 2328 
Q 422 3509 836 4129 
Q 1250 4750 2034 4750 
z
" transform="scale(0.015625)"/>
       </defs>
       <use xlink:href="#DejaVuSans-31"/>
       <use xlink:href="#DejaVuSans-30" x="63.623047"/>
      </g>
     </g>
    </g>
    <g id="xtick_7">
     <g id="line2d_7">
      <g>
       <use xlink:href="#ma94d18cfff" x="290.147121" y="233.88" style="stroke: #000000; stroke-width: 0.8"/>
      </g>
     </g>
     <g id="text_7">
      <!-- 12 -->
      <g transform="translate(281.239621 251.517812)scale(0.14 -0.14)">
       <use xlink:href="#DejaVuSans-31"/>
       <use xlink:href="#DejaVuSans-32" x="63.623047"/>
      </g>
     </g>
    </g>
    <g id="xtick_8">
     <g id="line2d_8">
      <g>
       <use xlink:href="#ma94d18cfff" x="327.428333" y="233.88" style="stroke: #000000; stroke-width: 0.8"/>
      </g>
     </g>
     <g id="text_8">
      <!-- 14 -->
      <g transform="translate(318.520833 251.517812)scale(0.14 -0.14)">
       <use xlink:href="#DejaVuSans-31"/>
       <use xlink:href="#DejaVuSans-34" x="63.623047"/>
      </g>
     </g>
    </g>
    <g id="xtick_9">
     <g id="line2d_9">
      <g>
       <use xlink:href="#ma94d18cfff" x="364.709545" y="233.88" style="stroke: #000000; stroke-width: 0.8"/>
      </g>
     </g>
     <g id="text_9">
      <!-- 16 -->
      <g transform="translate(355.802045 251.517812)scale(0.14 -0.14)">
       <use xlink:href="#DejaVuSans-31"/>
       <use xlink:href="#DejaVuSans-36" x="63.623047"/>
      </g>
     </g>
    </g>
    <g id="text_10">
     <!-- Index of eigenstate -->
     <g transform="translate(157.264219 269.067187)scale(0.14 -0.14)">
      <defs>
       <path id="DejaVuSans-49" d="M 628 4666 
L 1259 4666 
L 1259 0 
L 628 0 
L 628 4666 
z
" transform="scale(0.015625)"/>
       <path id="DejaVuSans-6e" d="M 3513 2113 
L 3513 0 
L 2938 0 
L 2938 2094 
Q 2938 2591 2744 2837 
Q 2550 3084 2163 3084 
Q 1697 3084 1428 2787 
Q 1159 2491 1159 1978 
L 1159 0 
L 581 0 
L 581 3500 
L 1159 3500 
L 1159 2956 
Q 1366 3272 1645 3428 
Q 1925 3584 2291 3584 
Q 2894 3584 3203 3211 
Q 3513 2838 3513 2113 
z
" transform="scale(0.015625)"/>
       <path id="DejaVuSans-64" d="M 2906 2969 
L 2906 4863 
L 3481 4863 
L 3481 0 
L 2906 0 
L 2906 525 
Q 2725 213 2448 61 
Q 2172 -91 1784 -91 
Q 1150 -91 751 415 
Q 353 922 353 1747 
Q 353 2572 751 3078 
Q 1150 3584 1784 3584 
Q 2172 3584 2448 3432 
Q 2725 3281 2906 2969 
z
M 947 1747 
Q 947 1113 1208 752 
Q 1469 391 1925 391 
Q 2381 391 2643 752 
Q 2906 1113 2906 1747 
Q 2906 2381 2643 2742 
Q 2381 3103 1925 3103 
Q 1469 3103 1208 2742 
Q 947 2381 947 1747 
z
" transform="scale(0.015625)"/>
       <path id="DejaVuSans-65" d="M 3597 1894 
L 3597 1613 
L 953 1613 
Q 991 1019 1311 708 
Q 1631 397 2203 397 
Q 2534 397 2845 478 
Q 3156 559 3463 722 
L 3463 178 
Q 3153 47 2828 -22 
Q 2503 -91 2169 -91 
Q 1331 -91 842 396 
Q 353 884 353 1716 
Q 353 2575 817 3079 
Q 1281 3584 2069 3584 
Q 2775 3584 3186 3129 
Q 3597 2675 3597 1894 
z
M 3022 2063 
Q 3016 2534 2758 2815 
Q 2500 3097 2075 3097 
Q 1594 3097 1305 2825 
Q 1016 2553 972 2059 
L 3022 2063 
z
" transform="scale(0.015625)"/>
       <path id="DejaVuSans-78" d="M 3513 3500 
L 2247 1797 
L 3578 0 
L 2900 0 
L 1881 1375 
L 863 0 
L 184 0 
L 1544 1831 
L 300 3500 
L 978 3500 
L 1906 2253 
L 2834 3500 
L 3513 3500 
z
" transform="scale(0.015625)"/>
       <path id="DejaVuSans-20" transform="scale(0.015625)"/>
       <path id="DejaVuSans-6f" d="M 1959 3097 
Q 1497 3097 1228 2736 
Q 959 2375 959 1747 
Q 959 1119 1226 758 
Q 1494 397 1959 397 
Q 2419 397 2687 759 
Q 2956 1122 2956 1747 
Q 2956 2369 2687 2733 
Q 2419 3097 1959 3097 
z
M 1959 3584 
Q 2709 3584 3137 3096 
Q 3566 2609 3566 1747 
Q 3566 888 3137 398 
Q 2709 -91 1959 -91 
Q 1206 -91 779 398 
Q 353 888 353 1747 
Q 353 2609 779 3096 
Q 1206 3584 1959 3584 
z
" transform="scale(0.015625)"/>
       <path id="DejaVuSans-66" d="M 2375 4863 
L 2375 4384 
L 1825 4384 
Q 1516 4384 1395 4259 
Q 1275 4134 1275 3809 
L 1275 3500 
L 2222 3500 
L 2222 3053 
L 1275 3053 
L 1275 0 
L 697 0 
L 697 3053 
L 147 3053 
L 147 3500 
L 697 3500 
L 697 3744 
Q 697 4328 969 4595 
Q 1241 4863 1831 4863 
L 2375 4863 
z
" transform="scale(0.015625)"/>
       <path id="DejaVuSans-69" d="M 603 3500 
L 1178 3500 
L 1178 0 
L 603 0 
L 603 3500 
z
M 603 4863 
L 1178 4863 
L 1178 4134 
L 603 4134 
L 603 4863 
z
" transform="scale(0.015625)"/>
       <path id="DejaVuSans-67" d="M 2906 1791 
Q 2906 2416 2648 2759 
Q 2391 3103 1925 3103 
Q 1463 3103 1205 2759 
Q 947 2416 947 1791 
Q 947 1169 1205 825 
Q 1463 481 1925 481 
Q 2391 481 2648 825 
Q 2906 1169 2906 1791 
z
M 3481 434 
Q 3481 -459 3084 -895 
Q 2688 -1331 1869 -1331 
Q 1566 -1331 1297 -1286 
Q 1028 -1241 775 -1147 
L 775 -588 
Q 1028 -725 1275 -790 
Q 1522 -856 1778 -856 
Q 2344 -856 2625 -561 
Q 2906 -266 2906 331 
L 2906 616 
Q 2728 306 2450 153 
Q 2172 0 1784 0 
Q 1141 0 747 490 
Q 353 981 353 1791 
Q 353 2603 747 3093 
Q 1141 3584 1784 3584 
Q 2172 3584 2450 3431 
Q 2728 3278 2906 2969 
L 2906 3500 
L 3481 3500 
L 3481 434 
z
" transform="scale(0.015625)"/>
       <path id="DejaVuSans-73" d="M 2834 3397 
L 2834 2853 
Q 2591 2978 2328 3040 
Q 2066 3103 1784 3103 
Q 1356 3103 1142 2972 
Q 928 2841 928 2578 
Q 928 2378 1081 2264 
Q 1234 2150 1697 2047 
L 1894 2003 
Q 2506 1872 2764 1633 
Q 3022 1394 3022 966 
Q 3022 478 2636 193 
Q 2250 -91 1575 -91 
Q 1294 -91 989 -36 
Q 684 19 347 128 
L 347 722 
Q 666 556 975 473 
Q 1284 391 1588 391 
Q 1994 391 2212 530 
Q 2431 669 2431 922 
Q 2431 1156 2273 1281 
Q 2116 1406 1581 1522 
L 1381 1569 
Q 847 1681 609 1914 
Q 372 2147 372 2553 
Q 372 3047 722 3315 
Q 1072 3584 1716 3584 
Q 2034 3584 2315 3537 
Q 2597 3491 2834 3397 
z
" transform="scale(0.015625)"/>
       <path id="DejaVuSans-74" d="M 1172 4494 
L 1172 3500 
L 2356 3500 
L 2356 3053 
L 1172 3053 
L 1172 1153 
Q 1172 725 1289 603 
Q 1406 481 1766 481 
L 2356 481 
L 2356 0 
L 1766 0 
Q 1100 0 847 248 
Q 594 497 594 1153 
L 594 3053 
L 172 3053 
L 172 3500 
L 594 3500 
L 594 4494 
L 1172 4494 
z
" transform="scale(0.015625)"/>
       <path id="DejaVuSans-61" d="M 2194 1759 
Q 1497 1759 1228 1600 
Q 959 1441 959 1056 
Q 959 750 1161 570 
Q 1363 391 1709 391 
Q 2188 391 2477 730 
Q 2766 1069 2766 1631 
L 2766 1759 
L 2194 1759 
z
M 3341 1997 
L 3341 0 
L 2766 0 
L 2766 531 
Q 2569 213 2275 61 
Q 1981 -91 1556 -91 
Q 1019 -91 701 211 
Q 384 513 384 1019 
Q 384 1609 779 1909 
Q 1175 2209 1959 2209 
L 2766 2209 
L 2766 2266 
Q 2766 2663 2505 2880 
Q 2244 3097 1772 3097 
Q 1472 3097 1187 3025 
Q 903 2953 641 2809 
L 641 3341 
Q 956 3463 1253 3523 
Q 1550 3584 1831 3584 
Q 2591 3584 2966 3190 
Q 3341 2797 3341 1997 
z
" transform="scale(0.015625)"/>
      </defs>
      <use xlink:href="#DejaVuSans-49"/>
      <use xlink:href="#DejaVuSans-6e" x="29.492188"/>
      <use xlink:href="#DejaVuSans-64" x="92.871094"/>
      <use xlink:href="#DejaVuSans-65" x="156.347656"/>
      <use xlink:href="#DejaVuSans-78" x="216.121094"/>
      <use xlink:href="#DejaVuSans-20" x="275.300781"/>
      <use xlink:href="#DejaVuSans-6f" x="307.087891"/>
      <use xlink:href="#DejaVuSans-66" x="368.269531"/>
      <use xlink:href="#DejaVuSans-20" x="403.474609"/>
      <use xlink:href="#DejaVuSans-65" x="435.261719"/>
      <use xlink:href="#DejaVuSans-69" x="496.785156"/>
      <use xlink:href="#DejaVuSans-67" x="524.568359"/>
      <use xlink:href="#DejaVuSans-65" x="588.044922"/>
      <use xlink:href="#DejaVuSans-6e" x="649.568359"/>
      <use xlink:href="#DejaVuSans-73" x="712.947266"/>
      <use xlink:href="#DejaVuSans-74" x="765.046875"/>
      <use xlink:href="#DejaVuSans-61" x="804.255859"/>
      <use xlink:href="#DejaVuSans-74" x="865.535156"/>
      <use xlink:href="#DejaVuSans-65" x="904.744141"/>
     </g>
    </g>
   </g>
   <g id="matplotlib.axis_2">
    <g id="ytick_1">
     <g id="line2d_10">
      <defs>
       <path id="m6a66939f9c" d="M 0 0 
L -3.5 0 
" style="stroke: #000000; stroke-width: 0.8"/>
      </defs>
      <g>
       <use xlink:href="#m6a66939f9c" x="71.12" y="233.88" style="stroke: #000000; stroke-width: 0.8"/>
      </g>
     </g>
     <g id="text_11">
      <!-- 0.00 -->
      <g transform="translate(32.948125 239.198906)scale(0.14 -0.14)">
       <defs>
        <path id="DejaVuSans-2e" d="M 684 794 
L 1344 794 
L 1344 0 
L 684 0 
L 684 794 
z
" transform="scale(0.015625)"/>
       </defs>
       <use xlink:href="#DejaVuSans-30"/>
       <use xlink:href="#DejaVuSans-2e" x="63.623047"/>
       <use xlink:href="#DejaVuSans-30" x="95.410156"/>
       <use xlink:href="#DejaVuSans-30" x="159.033203"/>
      </g>
     </g>
    </g>
    <g id="ytick_2">
     <g id="line2d_11">
      <g>
       <use xlink:href="#m6a66939f9c" x="71.12" y="181.794286" style="stroke: #000000; stroke-width: 0.8"/>
      </g>
     </g>
     <g id="text_12">
      <!-- 0.05 -->
      <g transform="translate(32.948125 187.113192)scale(0.14 -0.14)">
       <defs>
        <path id="DejaVuSans-35" d="M 691 4666 
L 3169 4666 
L 3169 4134 
L 1269 4134 
L 1269 2991 
Q 1406 3038 1543 3061 
Q 1681 3084 1819 3084 
Q 2600 3084 3056 2656 
Q 3513 2228 3513 1497 
Q 3513 744 3044 326 
Q 2575 -91 1722 -91 
Q 1428 -91 1123 -41 
Q 819 9 494 109 
L 494 744 
Q 775 591 1075 516 
Q 1375 441 1709 441 
Q 2250 441 2565 725 
Q 2881 1009 2881 1497 
Q 2881 1984 2565 2268 
Q 2250 2553 1709 2553 
Q 1456 2553 1204 2497 
Q 953 2441 691 2322 
L 691 4666 
z
" transform="scale(0.015625)"/>
       </defs>
       <use xlink:href="#DejaVuSans-30"/>
       <use xlink:href="#DejaVuSans-2e" x="63.623047"/>
       <use xlink:href="#DejaVuSans-30" x="95.410156"/>
       <use xlink:href="#DejaVuSans-35" x="159.033203"/>
      </g>
     </g>
    </g>
    <g id="ytick_3">
     <g id="line2d_12">
      <g>
       <use xlink:href="#m6a66939f9c" x="71.12" y="129.708571" style="stroke: #000000; stroke-width: 0.8"/>
      </g>
     </g>
     <g id="text_13">
      <!-- 0.10 -->
      <g transform="translate(32.948125 135.027478)scale(0.14 -0.14)">
       <use xlink:href="#DejaVuSans-30"/>
       <use xlink:href="#DejaVuSans-2e" x="63.623047"/>
       <use xlink:href="#DejaVuSans-31" x="95.410156"/>
       <use xlink:href="#DejaVuSans-30" x="159.033203"/>
      </g>
     </g>
    </g>
    <g id="ytick_4">
     <g id="line2d_13">
      <g>
       <use xlink:href="#m6a66939f9c" x="71.12" y="77.622857" style="stroke: #000000; stroke-width: 0.8"/>
      </g>
     </g>
     <g id="text_14">
      <!-- 0.15 -->
      <g transform="translate(32.948125 82.941763)scale(0.14 -0.14)">
       <use xlink:href="#DejaVuSans-30"/>
       <use xlink:href="#DejaVuSans-2e" x="63.623047"/>
       <use xlink:href="#DejaVuSans-31" x="95.410156"/>
       <use xlink:href="#DejaVuSans-35" x="159.033203"/>
      </g>
     </g>
    </g>
    <g id="ytick_5">
     <g id="line2d_14">
      <g>
       <use xlink:href="#m6a66939f9c" x="71.12" y="25.537143" style="stroke: #000000; stroke-width: 0.8"/>
      </g>
     </g>
     <g id="text_15">
      <!-- 0.20 -->
      <g transform="translate(32.948125 30.856049)scale(0.14 -0.14)">
       <use xlink:href="#DejaVuSans-30"/>
       <use xlink:href="#DejaVuSans-2e" x="63.623047"/>
       <use xlink:href="#DejaVuSans-32" x="95.410156"/>
       <use xlink:href="#DejaVuSans-30" x="159.033203"/>
      </g>
     </g>
    </g>
    <g id="text_16">
     <!-- Sampling probability -->
     <g transform="translate(26.036563 196.83625)rotate(-90)scale(0.14 -0.14)">
      <defs>
       <path id="DejaVuSans-53" d="M 3425 4513 
L 3425 3897 
Q 3066 4069 2747 4153 
Q 2428 4238 2131 4238 
Q 1616 4238 1336 4038 
Q 1056 3838 1056 3469 
Q 1056 3159 1242 3001 
Q 1428 2844 1947 2747 
L 2328 2669 
Q 3034 2534 3370 2195 
Q 3706 1856 3706 1288 
Q 3706 609 3251 259 
Q 2797 -91 1919 -91 
Q 1588 -91 1214 -16 
Q 841 59 441 206 
L 441 856 
Q 825 641 1194 531 
Q 1563 422 1919 422 
Q 2459 422 2753 634 
Q 3047 847 3047 1241 
Q 3047 1584 2836 1778 
Q 2625 1972 2144 2069 
L 1759 2144 
Q 1053 2284 737 2584 
Q 422 2884 422 3419 
Q 422 4038 858 4394 
Q 1294 4750 2059 4750 
Q 2388 4750 2728 4690 
Q 3069 4631 3425 4513 
z
" transform="scale(0.015625)"/>
       <path id="DejaVuSans-6d" d="M 3328 2828 
Q 3544 3216 3844 3400 
Q 4144 3584 4550 3584 
Q 5097 3584 5394 3201 
Q 5691 2819 5691 2113 
L 5691 0 
L 5113 0 
L 5113 2094 
Q 5113 2597 4934 2840 
Q 4756 3084 4391 3084 
Q 3944 3084 3684 2787 
Q 3425 2491 3425 1978 
L 3425 0 
L 2847 0 
L 2847 2094 
Q 2847 2600 2669 2842 
Q 2491 3084 2119 3084 
Q 1678 3084 1418 2786 
Q 1159 2488 1159 1978 
L 1159 0 
L 581 0 
L 581 3500 
L 1159 3500 
L 1159 2956 
Q 1356 3278 1631 3431 
Q 1906 3584 2284 3584 
Q 2666 3584 2933 3390 
Q 3200 3197 3328 2828 
z
" transform="scale(0.015625)"/>
       <path id="DejaVuSans-70" d="M 1159 525 
L 1159 -1331 
L 581 -1331 
L 581 3500 
L 1159 3500 
L 1159 2969 
Q 1341 3281 1617 3432 
Q 1894 3584 2278 3584 
Q 2916 3584 3314 3078 
Q 3713 2572 3713 1747 
Q 3713 922 3314 415 
Q 2916 -91 2278 -91 
Q 1894 -91 1617 61 
Q 1341 213 1159 525 
z
M 3116 1747 
Q 3116 2381 2855 2742 
Q 2594 3103 2138 3103 
Q 1681 3103 1420 2742 
Q 1159 2381 1159 1747 
Q 1159 1113 1420 752 
Q 1681 391 2138 391 
Q 2594 391 2855 752 
Q 3116 1113 3116 1747 
z
" transform="scale(0.015625)"/>
       <path id="DejaVuSans-6c" d="M 603 4863 
L 1178 4863 
L 1178 0 
L 603 0 
L 603 4863 
z
" transform="scale(0.015625)"/>
       <path id="DejaVuSans-72" d="M 2631 2963 
Q 2534 3019 2420 3045 
Q 2306 3072 2169 3072 
Q 1681 3072 1420 2755 
Q 1159 2438 1159 1844 
L 1159 0 
L 581 0 
L 581 3500 
L 1159 3500 
L 1159 2956 
Q 1341 3275 1631 3429 
Q 1922 3584 2338 3584 
Q 2397 3584 2469 3576 
Q 2541 3569 2628 3553 
L 2631 2963 
z
" transform="scale(0.015625)"/>
       <path id="DejaVuSans-62" d="M 3116 1747 
Q 3116 2381 2855 2742 
Q 2594 3103 2138 3103 
Q 1681 3103 1420 2742 
Q 1159 2381 1159 1747 
Q 1159 1113 1420 752 
Q 1681 391 2138 391 
Q 2594 391 2855 752 
Q 3116 1113 3116 1747 
z
M 1159 2969 
Q 1341 3281 1617 3432 
Q 1894 3584 2278 3584 
Q 2916 3584 3314 3078 
Q 3713 2572 3713 1747 
Q 3713 922 3314 415 
Q 2916 -91 2278 -91 
Q 1894 -91 1617 61 
Q 1341 213 1159 525 
L 1159 0 
L 581 0 
L 581 4863 
L 1159 4863 
L 1159 2969 
z
" transform="scale(0.015625)"/>
       <path id="DejaVuSans-79" d="M 2059 -325 
Q 1816 -950 1584 -1140 
Q 1353 -1331 966 -1331 
L 506 -1331 
L 506 -850 
L 844 -850 
Q 1081 -850 1212 -737 
Q 1344 -625 1503 -206 
L 1606 56 
L 191 3500 
L 800 3500 
L 1894 763 
L 2988 3500 
L 3597 3500 
L 2059 -325 
z
" transform="scale(0.015625)"/>
      </defs>
      <use xlink:href="#DejaVuSans-53"/>
      <use xlink:href="#DejaVuSans-61" x="63.476562"/>
      <use xlink:href="#DejaVuSans-6d" x="124.755859"/>
      <use xlink:href="#DejaVuSans-70" x="222.167969"/>
      <use xlink:href="#DejaVuSans-6c" x="285.644531"/>
      <use xlink:href="#DejaVuSans-69" x="313.427734"/>
      <use xlink:href="#DejaVuSans-6e" x="341.210938"/>
      <use xlink:href="#DejaVuSans-67" x="404.589844"/>
      <use xlink:href="#DejaVuSans-20" x="468.066406"/>
      <use xlink:href="#DejaVuSans-70" x="499.853516"/>
      <use xlink:href="#DejaVuSans-72" x="563.330078"/>
      <use xlink:href="#DejaVuSans-6f" x="602.193359"/>
      <use xlink:href="#DejaVuSans-62" x="663.375"/>
      <use xlink:href="#DejaVuSans-61" x="726.851562"/>
      <use xlink:href="#DejaVuSans-62" x="788.130859"/>
      <use xlink:href="#DejaVuSans-69" x="851.607422"/>
      <use xlink:href="#DejaVuSans-6c" x="879.390625"/>
      <use xlink:href="#DejaVuSans-69" x="907.173828"/>
      <use xlink:href="#DejaVuSans-74" x="934.957031"/>
      <use xlink:href="#DejaVuSans-79" x="974.166016"/>
     </g>
    </g>
   </g>
   <g id="line2d_15">
    <path d="M 85.100455 39.898445 
L 103.741061 73.622793 
L 122.381667 136.67909 
L 141.022273 136.67909 
L 159.662879 146.096825 
L 178.303485 162.518174 
L 196.944091 174.924668 
L 215.584697 181.48841 
L 234.225303 190.596865 
L 252.865909 190.596865 
L 271.506515 202.102894 
L 290.147121 202.102894 
L 308.787727 212.538441 
L 327.428333 214.606211 
L 346.068939 217.957024 
L 364.709545 217.957024 
" clip-path="url(#p416ee26f00)" style="fill: none; stroke-dasharray: 5.55,2.4; stroke-dashoffset: 0; stroke: #000000; stroke-width: 1.5"/>
   </g>
   <g id="line2d_16">
    <path d="M 85.100455 48.580342 
L 103.741061 80.127529 
L 122.381667 137.983989 
L 141.022273 137.109706 
L 159.662879 145.318102 
L 178.303485 162.706088 
L 196.944091 173.131779 
L 215.584697 180.025713 
L 234.225303 188.998447 
L 252.865909 188.970386 
L 271.506515 200.383065 
L 290.147121 200.424719 
L 308.787727 210.895214 
L 327.428333 213.022869 
L 346.068939 216.387793 
L 364.709545 216.299971 
" clip-path="url(#p416ee26f00)" style="fill: none; stroke: #0000ff; stroke-width: 1.5; stroke-linecap: square"/>
    <defs>
     <path id="md1f93f1f10" d="M 0 4.75 
C 1.259715 4.75 2.468004 4.24951 3.358757 3.358757 
C 4.24951 2.468004 4.75 1.259715 4.75 0 
C 4.75 -1.259715 4.24951 -2.468004 3.358757 -3.358757 
C 2.468004 -4.24951 1.259715 -4.75 0 -4.75 
C -1.259715 -4.75 -2.468004 -4.24951 -3.358757 -3.358757 
C -4.24951 -2.468004 -4.75 -1.259715 -4.75 0 
C -4.75 1.259715 -4.24951 2.468004 -3.358757 3.358757 
C -2.468004 4.24951 -1.259715 4.75 0 4.75 
z
" style="stroke: #0000ff"/>
    </defs>
    <g clip-path="url(#p416ee26f00)">
     <use xlink:href="#md1f93f1f10" x="85.100455" y="48.580342" style="fill: #ffffff; stroke: #0000ff"/>
     <use xlink:href="#md1f93f1f10" x="103.741061" y="80.127529" style="fill: #ffffff; stroke: #0000ff"/>
     <use xlink:href="#md1f93f1f10" x="122.381667" y="137.983989" style="fill: #ffffff; stroke: #0000ff"/>
     <use xlink:href="#md1f93f1f10" x="141.022273" y="137.109706" style="fill: #ffffff; stroke: #0000ff"/>
     <use xlink:href="#md1f93f1f10" x="159.662879" y="145.318102" style="fill: #ffffff; stroke: #0000ff"/>
     <use xlink:href="#md1f93f1f10" x="178.303485" y="162.706088" style="fill: #ffffff; stroke: #0000ff"/>
     <use xlink:href="#md1f93f1f10" x="196.944091" y="173.131779" style="fill: #ffffff; stroke: #0000ff"/>
     <use xlink:href="#md1f93f1f10" x="215.584697" y="180.025713" style="fill: #ffffff; stroke: #0000ff"/>
     <use xlink:href="#md1f93f1f10" x="234.225303" y="188.998447" style="fill: #ffffff; stroke: #0000ff"/>
     <use xlink:href="#md1f93f1f10" x="252.865909" y="188.970386" style="fill: #ffffff; stroke: #0000ff"/>
     <use xlink:href="#md1f93f1f10" x="271.506515" y="200.383065" style="fill: #ffffff; stroke: #0000ff"/>
     <use xlink:href="#md1f93f1f10" x="290.147121" y="200.424719" style="fill: #ffffff; stroke: #0000ff"/>
     <use xlink:href="#md1f93f1f10" x="308.787727" y="210.895214" style="fill: #ffffff; stroke: #0000ff"/>
     <use xlink:href="#md1f93f1f10" x="327.428333" y="213.022869" style="fill: #ffffff; stroke: #0000ff"/>
     <use xlink:href="#md1f93f1f10" x="346.068939" y="216.387793" style="fill: #ffffff; stroke: #0000ff"/>
     <use xlink:href="#md1f93f1f10" x="364.709545" y="216.299971" style="fill: #ffffff; stroke: #0000ff"/>
    </g>
   </g>
   <g id="line2d_17">
    <path d="M 85.100455 147.628985 
L 103.741061 148.075997 
L 122.381667 156.91341 
L 141.022273 159.019614 
L 159.662879 164.420229 
L 178.303485 159.610362 
L 196.944091 166.386283 
L 215.584697 165.915193 
L 234.225303 173.632729 
L 252.865909 174.199384 
L 271.506515 171.869386 
L 290.147121 175.487078 
L 308.787727 183.479455 
L 327.428333 179.916717 
L 346.068939 184.964337 
L 364.709545 188.846555 
" clip-path="url(#p416ee26f00)" style="fill: none; stroke: #008000; stroke-width: 1.5; stroke-linecap: square"/>
    <defs>
     <path id="m1aaf8fbed3" d="M -0 5.656854 
L 5.656854 0 
L 0 -5.656854 
L -5.656854 -0 
z
" style="stroke: #008000; stroke-linejoin: miter"/>
    </defs>
    <g clip-path="url(#p416ee26f00)">
     <use xlink:href="#m1aaf8fbed3" x="85.100455" y="147.628985" style="fill: #ffffff; stroke: #008000; stroke-linejoin: miter"/>
     <use xlink:href="#m1aaf8fbed3" x="103.741061" y="148.075997" style="fill: #ffffff; stroke: #008000; stroke-linejoin: miter"/>
     <use xlink:href="#m1aaf8fbed3" x="122.381667" y="156.91341" style="fill: #ffffff; stroke: #008000; stroke-linejoin: miter"/>
     <use xlink:href="#m1aaf8fbed3" x="141.022273" y="159.019614" style="fill: #ffffff; stroke: #008000; stroke-linejoin: miter"/>
     <use xlink:href="#m1aaf8fbed3" x="159.662879" y="164.420229" style="fill: #ffffff; stroke: #008000; stroke-linejoin: miter"/>
     <use xlink:href="#m1aaf8fbed3" x="178.303485" y="159.610362" style="fill: #ffffff; stroke: #008000; stroke-linejoin: miter"/>
     <use xlink:href="#m1aaf8fbed3" x="196.944091" y="166.386283" style="fill: #ffffff; stroke: #008000; stroke-linejoin: miter"/>
     <use xlink:href="#m1aaf8fbed3" x="215.584697" y="165.915193" style="fill: #ffffff; stroke: #008000; stroke-linejoin: miter"/>
     <use xlink:href="#m1aaf8fbed3" x="234.225303" y="173.632729" style="fill: #ffffff; stroke: #008000; stroke-linejoin: miter"/>
     <use xlink:href="#m1aaf8fbed3" x="252.865909" y="174.199384" style="fill: #ffffff; stroke: #008000; stroke-linejoin: miter"/>
     <use xlink:href="#m1aaf8fbed3" x="271.506515" y="171.869386" style="fill: #ffffff; stroke: #008000; stroke-linejoin: miter"/>
     <use xlink:href="#m1aaf8fbed3" x="290.147121" y="175.487078" style="fill: #ffffff; stroke: #008000; stroke-linejoin: miter"/>
     <use xlink:href="#m1aaf8fbed3" x="308.787727" y="183.479455" style="fill: #ffffff; stroke: #008000; stroke-linejoin: miter"/>
     <use xlink:href="#m1aaf8fbed3" x="327.428333" y="179.916717" style="fill: #ffffff; stroke: #008000; stroke-linejoin: miter"/>
     <use xlink:href="#m1aaf8fbed3" x="346.068939" y="184.964337" style="fill: #ffffff; stroke: #008000; stroke-linejoin: miter"/>
     <use xlink:href="#m1aaf8fbed3" x="364.709545" y="188.846555" style="fill: #ffffff; stroke: #008000; stroke-linejoin: miter"/>
    </g>
   </g>
   <g id="line2d_18">
    <path d="M 85.100455 54.313272 
L 103.741061 83.345885 
L 122.381667 137.914191 
L 141.022273 139.932845 
L 159.662879 148.478512 
L 178.303485 164.042619 
L 196.944091 173.217539 
L 215.584697 182.822735 
L 234.225303 187.418506 
L 252.865909 187.955157 
L 271.506515 201.427931 
L 290.147121 195.440237 
L 308.787727 207.333177 
L 327.428333 211.488922 
L 346.068939 213.220059 
L 364.709545 212.014128 
" clip-path="url(#p416ee26f00)" style="fill: none; stroke: #ff0000; stroke-width: 1.5; stroke-linecap: square"/>
    <defs>
     <path id="m44f4b860a1" d="M -4.25 4.25 
L 4.25 4.25 
L 4.25 -4.25 
L -4.25 -4.25 
z
" style="stroke: #ff0000; stroke-linejoin: miter"/>
    </defs>
    <g clip-path="url(#p416ee26f00)">
     <use xlink:href="#m44f4b860a1" x="85.100455" y="54.313272" style="fill: #ffffff; stroke: #ff0000; stroke-linejoin: miter"/>
     <use xlink:href="#m44f4b860a1" x="103.741061" y="83.345885" style="fill: #ffffff; stroke: #ff0000; stroke-linejoin: miter"/>
     <use xlink:href="#m44f4b860a1" x="122.381667" y="137.914191" style="fill: #ffffff; stroke: #ff0000; stroke-linejoin: miter"/>
     <use xlink:href="#m44f4b860a1" x="141.022273" y="139.932845" style="fill: #ffffff; stroke: #ff0000; stroke-linejoin: miter"/>
     <use xlink:href="#m44f4b860a1" x="159.662879" y="148.478512" style="fill: #ffffff; stroke: #ff0000; stroke-linejoin: miter"/>
     <use xlink:href="#m44f4b860a1" x="178.303485" y="164.042619" style="fill: #ffffff; stroke: #ff0000; stroke-linejoin: miter"/>
     <use xlink:href="#m44f4b860a1" x="196.944091" y="173.217539" style="fill: #ffffff; stroke: #ff0000; stroke-linejoin: miter"/>
     <use xlink:href="#m44f4b860a1" x="215.584697" y="182.822735" style="fill: #ffffff; stroke: #ff0000; stroke-linejoin: miter"/>
     <use xlink:href="#m44f4b860a1" x="234.225303" y="187.418506" style="fill: #ffffff; stroke: #ff0000; stroke-linejoin: miter"/>
     <use xlink:href="#m44f4b860a1" x="252.865909" y="187.955157" style="fill: #ffffff; stroke: #ff0000; stroke-linejoin: miter"/>
     <use xlink:href="#m44f4b860a1" x="271.506515" y="201.427931" style="fill: #ffffff; stroke: #ff0000; stroke-linejoin: miter"/>
     <use xlink:href="#m44f4b860a1" x="290.147121" y="195.440237" style="fill: #ffffff; stroke: #ff0000; stroke-linejoin: miter"/>
     <use xlink:href="#m44f4b860a1" x="308.787727" y="207.333177" style="fill: #ffffff; stroke: #ff0000; stroke-linejoin: miter"/>
     <use xlink:href="#m44f4b860a1" x="327.428333" y="211.488922" style="fill: #ffffff; stroke: #ff0000; stroke-linejoin: miter"/>
     <use xlink:href="#m44f4b860a1" x="346.068939" y="213.220059" style="fill: #ffffff; stroke: #ff0000; stroke-linejoin: miter"/>
     <use xlink:href="#m44f4b860a1" x="364.709545" y="212.014128" style="fill: #ffffff; stroke: #ff0000; stroke-linejoin: miter"/>
    </g>
   </g>
   <g id="patch_3">
    <path d="M 71.12 233.88 
L 71.12 15.12 
" style="fill: none; stroke: #000000; stroke-width: 0.8; stroke-linejoin: miter; stroke-linecap: square"/>
   </g>
   <g id="patch_4">
    <path d="M 378.69 233.88 
L 378.69 15.12 
" style="fill: none; stroke: #000000; stroke-width: 0.8; stroke-linejoin: miter; stroke-linecap: square"/>
   </g>
   <g id="patch_5">
    <path d="M 71.12 233.88 
L 378.69 233.88 
" style="fill: none; stroke: #000000; stroke-width: 0.8; stroke-linejoin: miter; stroke-linecap: square"/>
   </g>
   <g id="patch_6">
    <path d="M 71.12 15.12 
L 378.69 15.12 
" style="fill: none; stroke: #000000; stroke-width: 0.8; stroke-linejoin: miter; stroke-linecap: square"/>
   </g>
   <g id="legend_1">
    <g id="patch_7">
     <path d="M 224.05125 108.5175 
L 368.89 108.5175 
Q 371.69 108.5175 371.69 105.7175 
L 371.69 24.92 
Q 371.69 22.12 368.89 22.12 
L 224.05125 22.12 
Q 221.25125 22.12 221.25125 24.92 
L 221.25125 105.7175 
Q 221.25125 108.5175 224.05125 108.5175 
z
" style="fill: #ffffff; opacity: 0.8; stroke: #cccccc; stroke-linejoin: miter"/>
    </g>
    <g id="line2d_19">
     <path d="M 226.85125 33.457812 
L 240.85125 33.457812 
L 254.85125 33.457812 
" style="fill: none; stroke-dasharray: 5.55,2.4; stroke-dashoffset: 0; stroke: #000000; stroke-width: 1.5"/>
    </g>
    <g id="text_17">
     <!-- exact -->
     <g transform="translate(266.05125 38.357812)scale(0.14 -0.14)">
      <defs>
       <path id="DejaVuSans-63" d="M 3122 3366 
L 3122 2828 
Q 2878 2963 2633 3030 
Q 2388 3097 2138 3097 
Q 1578 3097 1268 2742 
Q 959 2388 959 1747 
Q 959 1106 1268 751 
Q 1578 397 2138 397 
Q 2388 397 2633 464 
Q 2878 531 3122 666 
L 3122 134 
Q 2881 22 2623 -34 
Q 2366 -91 2075 -91 
Q 1284 -91 818 406 
Q 353 903 353 1747 
Q 353 2603 823 3093 
Q 1294 3584 2113 3584 
Q 2378 3584 2631 3529 
Q 2884 3475 3122 3366 
z
" transform="scale(0.015625)"/>
      </defs>
      <use xlink:href="#DejaVuSans-65"/>
      <use xlink:href="#DejaVuSans-78" x="59.773438"/>
      <use xlink:href="#DejaVuSans-61" x="118.953125"/>
      <use xlink:href="#DejaVuSans-63" x="180.232422"/>
      <use xlink:href="#DejaVuSans-74" x="235.212891"/>
     </g>
    </g>
    <g id="line2d_20">
     <path d="M 226.85125 54.007187 
L 240.85125 54.007187 
L 254.85125 54.007187 
" style="fill: none; stroke: #0000ff; stroke-width: 1.5; stroke-linecap: square"/>
     <g>
      <use xlink:href="#md1f93f1f10" x="240.85125" y="54.007187" style="fill: #ffffff; stroke: #0000ff"/>
     </g>
    </g>
    <g id="text_18">
     <!-- avrg noiseless -->
     <g transform="translate(266.05125 58.907187)scale(0.14 -0.14)">
      <defs>
       <path id="DejaVuSans-76" d="M 191 3500 
L 800 3500 
L 1894 563 
L 2988 3500 
L 3597 3500 
L 2284 0 
L 1503 0 
L 191 3500 
z
" transform="scale(0.015625)"/>
      </defs>
      <use xlink:href="#DejaVuSans-61"/>
      <use xlink:href="#DejaVuSans-76" x="61.279297"/>
      <use xlink:href="#DejaVuSans-72" x="120.458984"/>
      <use xlink:href="#DejaVuSans-67" x="159.822266"/>
      <use xlink:href="#DejaVuSans-20" x="223.298828"/>
      <use xlink:href="#DejaVuSans-6e" x="255.085938"/>
      <use xlink:href="#DejaVuSans-6f" x="318.464844"/>
      <use xlink:href="#DejaVuSans-69" x="379.646484"/>
      <use xlink:href="#DejaVuSans-73" x="407.429688"/>
      <use xlink:href="#DejaVuSans-65" x="459.529297"/>
      <use xlink:href="#DejaVuSans-6c" x="521.052734"/>
      <use xlink:href="#DejaVuSans-65" x="548.835938"/>
      <use xlink:href="#DejaVuSans-73" x="610.359375"/>
      <use xlink:href="#DejaVuSans-73" x="662.458984"/>
     </g>
    </g>
    <g id="line2d_21">
     <path d="M 226.85125 74.556562 
L 240.85125 74.556562 
L 254.85125 74.556562 
" style="fill: none; stroke: #008000; stroke-width: 1.5; stroke-linecap: square"/>
     <g>
      <use xlink:href="#m1aaf8fbed3" x="240.85125" y="74.556562" style="fill: #ffffff; stroke: #008000; stroke-linejoin: miter"/>
     </g>
    </g>
    <g id="text_19">
     <!-- avrg noisy -->
     <g transform="translate(266.05125 79.456562)scale(0.14 -0.14)">
      <use xlink:href="#DejaVuSans-61"/>
      <use xlink:href="#DejaVuSans-76" x="61.279297"/>
      <use xlink:href="#DejaVuSans-72" x="120.458984"/>
      <use xlink:href="#DejaVuSans-67" x="159.822266"/>
      <use xlink:href="#DejaVuSans-20" x="223.298828"/>
      <use xlink:href="#DejaVuSans-6e" x="255.085938"/>
      <use xlink:href="#DejaVuSans-6f" x="318.464844"/>
      <use xlink:href="#DejaVuSans-69" x="379.646484"/>
      <use xlink:href="#DejaVuSans-73" x="407.429688"/>
      <use xlink:href="#DejaVuSans-79" x="459.529297"/>
     </g>
    </g>
    <g id="line2d_22">
     <path d="M 226.85125 95.105937 
L 240.85125 95.105937 
L 254.85125 95.105937 
" style="fill: none; stroke: #ff0000; stroke-width: 1.5; stroke-linecap: square"/>
     <g>
      <use xlink:href="#m44f4b860a1" x="240.85125" y="95.105937" style="fill: #ffffff; stroke: #ff0000; stroke-linejoin: miter"/>
     </g>
    </g>
    <g id="text_20">
     <!-- optm noisy -->
     <g transform="translate(266.05125 100.005937)scale(0.14 -0.14)">
      <use xlink:href="#DejaVuSans-6f"/>
      <use xlink:href="#DejaVuSans-70" x="61.181641"/>
      <use xlink:href="#DejaVuSans-74" x="124.658203"/>
      <use xlink:href="#DejaVuSans-6d" x="163.867188"/>
      <use xlink:href="#DejaVuSans-20" x="261.279297"/>
      <use xlink:href="#DejaVuSans-6e" x="293.066406"/>
      <use xlink:href="#DejaVuSans-6f" x="356.445312"/>
      <use xlink:href="#DejaVuSans-69" x="417.626953"/>
      <use xlink:href="#DejaVuSans-73" x="445.410156"/>
      <use xlink:href="#DejaVuSans-79" x="497.509766"/>
     </g>
    </g>
   </g>
  </g>
  <g id="axes_2">
   <g id="patch_8">
    <path d="M 397.31 233.88 
L 704.88 233.88 
L 704.88 15.12 
L 397.31 15.12 
z
" style="fill: #ffffff"/>
   </g>
   <g id="matplotlib.axis_3">
    <g id="xtick_10">
     <g id="line2d_23">
      <g>
       <use xlink:href="#ma94d18cfff" x="411.290455" y="233.88" style="stroke: #000000; stroke-width: 0.8"/>
      </g>
     </g>
     <g id="text_21">
      <!-- 1 -->
      <g transform="translate(406.836705 251.517812)scale(0.14 -0.14)">
       <use xlink:href="#DejaVuSans-31"/>
      </g>
     </g>
    </g>
    <g id="xtick_11">
     <g id="line2d_24">
      <g>
       <use xlink:href="#ma94d18cfff" x="429.931061" y="233.88" style="stroke: #000000; stroke-width: 0.8"/>
      </g>
     </g>
     <g id="text_22">
      <!-- 2 -->
      <g transform="translate(425.477311 251.517812)scale(0.14 -0.14)">
       <use xlink:href="#DejaVuSans-32"/>
      </g>
     </g>
    </g>
    <g id="xtick_12">
     <g id="line2d_25">
      <g>
       <use xlink:href="#ma94d18cfff" x="467.212273" y="233.88" style="stroke: #000000; stroke-width: 0.8"/>
      </g>
     </g>
     <g id="text_23">
      <!-- 4 -->
      <g transform="translate(462.758523 251.517812)scale(0.14 -0.14)">
       <use xlink:href="#DejaVuSans-34"/>
      </g>
     </g>
    </g>
    <g id="xtick_13">
     <g id="line2d_26">
      <g>
       <use xlink:href="#ma94d18cfff" x="504.493485" y="233.88" style="stroke: #000000; stroke-width: 0.8"/>
      </g>
     </g>
     <g id="text_24">
      <!-- 6 -->
      <g transform="translate(500.039735 251.517812)scale(0.14 -0.14)">
       <use xlink:href="#DejaVuSans-36"/>
      </g>
     </g>
    </g>
    <g id="xtick_14">
     <g id="line2d_27">
      <g>
       <use xlink:href="#ma94d18cfff" x="541.774697" y="233.88" style="stroke: #000000; stroke-width: 0.8"/>
      </g>
     </g>
     <g id="text_25">
      <!-- 8 -->
      <g transform="translate(537.320947 251.517812)scale(0.14 -0.14)">
       <use xlink:href="#DejaVuSans-38"/>
      </g>
     </g>
    </g>
    <g id="xtick_15">
     <g id="line2d_28">
      <g>
       <use xlink:href="#ma94d18cfff" x="579.055909" y="233.88" style="stroke: #000000; stroke-width: 0.8"/>
      </g>
     </g>
     <g id="text_26">
      <!-- 10 -->
      <g transform="translate(570.148409 251.517812)scale(0.14 -0.14)">
       <use xlink:href="#DejaVuSans-31"/>
       <use xlink:href="#DejaVuSans-30" x="63.623047"/>
      </g>
     </g>
    </g>
    <g id="xtick_16">
     <g id="line2d_29">
      <g>
       <use xlink:href="#ma94d18cfff" x="616.337121" y="233.88" style="stroke: #000000; stroke-width: 0.8"/>
      </g>
     </g>
     <g id="text_27">
      <!-- 12 -->
      <g transform="translate(607.429621 251.517812)scale(0.14 -0.14)">
       <use xlink:href="#DejaVuSans-31"/>
       <use xlink:href="#DejaVuSans-32" x="63.623047"/>
      </g>
     </g>
    </g>
    <g id="xtick_17">
     <g id="line2d_30">
      <g>
       <use xlink:href="#ma94d18cfff" x="653.618333" y="233.88" style="stroke: #000000; stroke-width: 0.8"/>
      </g>
     </g>
     <g id="text_28">
      <!-- 14 -->
      <g transform="translate(644.710833 251.517812)scale(0.14 -0.14)">
       <use xlink:href="#DejaVuSans-31"/>
       <use xlink:href="#DejaVuSans-34" x="63.623047"/>
      </g>
     </g>
    </g>
    <g id="xtick_18">
     <g id="line2d_31">
      <g>
       <use xlink:href="#ma94d18cfff" x="690.899545" y="233.88" style="stroke: #000000; stroke-width: 0.8"/>
      </g>
     </g>
     <g id="text_29">
      <!-- 16 -->
      <g transform="translate(681.992045 251.517812)scale(0.14 -0.14)">
       <use xlink:href="#DejaVuSans-31"/>
       <use xlink:href="#DejaVuSans-36" x="63.623047"/>
      </g>
     </g>
    </g>
    <g id="text_30">
     <!-- Index of eigenstate -->
     <g transform="translate(483.454219 269.067187)scale(0.14 -0.14)">
      <use xlink:href="#DejaVuSans-49"/>
      <use xlink:href="#DejaVuSans-6e" x="29.492188"/>
      <use xlink:href="#DejaVuSans-64" x="92.871094"/>
      <use xlink:href="#DejaVuSans-65" x="156.347656"/>
      <use xlink:href="#DejaVuSans-78" x="216.121094"/>
      <use xlink:href="#DejaVuSans-20" x="275.300781"/>
      <use xlink:href="#DejaVuSans-6f" x="307.087891"/>
      <use xlink:href="#DejaVuSans-66" x="368.269531"/>
      <use xlink:href="#DejaVuSans-20" x="403.474609"/>
      <use xlink:href="#DejaVuSans-65" x="435.261719"/>
      <use xlink:href="#DejaVuSans-69" x="496.785156"/>
      <use xlink:href="#DejaVuSans-67" x="524.568359"/>
      <use xlink:href="#DejaVuSans-65" x="588.044922"/>
      <use xlink:href="#DejaVuSans-6e" x="649.568359"/>
      <use xlink:href="#DejaVuSans-73" x="712.947266"/>
      <use xlink:href="#DejaVuSans-74" x="765.046875"/>
      <use xlink:href="#DejaVuSans-61" x="804.255859"/>
      <use xlink:href="#DejaVuSans-74" x="865.535156"/>
      <use xlink:href="#DejaVuSans-65" x="904.744141"/>
     </g>
    </g>
   </g>
   <g id="matplotlib.axis_4"/>
   <g id="line2d_32">
    <path d="M 411.290455 39.898445 
L 429.931061 73.622793 
L 448.571667 136.67909 
L 467.212273 136.67909 
L 485.852879 146.096825 
L 504.493485 162.518174 
L 523.134091 174.924668 
L 541.774697 181.48841 
L 560.415303 190.596865 
L 579.055909 190.596865 
L 597.696515 202.102894 
L 616.337121 202.102894 
L 634.977727 212.538441 
L 653.618333 214.606211 
L 672.258939 217.957024 
L 690.899545 217.957024 
" clip-path="url(#p26430158c7)" style="fill: none; stroke-dasharray: 5.55,2.4; stroke-dashoffset: 0; stroke: #000000; stroke-width: 1.5"/>
   </g>
   <g id="line2d_33">
    <path d="M 411.290455 45.12885 
L 429.931061 76.880288 
L 448.571667 136.800771 
L 467.212273 137.666723 
L 485.852879 147.33938 
L 504.493485 161.912277 
L 523.134091 174.409536 
L 541.774697 180.693562 
L 560.415303 189.597987 
L 579.055909 189.633613 
L 597.696515 200.573238 
L 616.337121 200.804085 
L 634.977727 211.517905 
L 653.618333 213.338256 
L 672.258939 216.926181 
L 690.899545 217.143064 
" clip-path="url(#p26430158c7)" style="fill: none; stroke: #0000ff; stroke-width: 1.5; stroke-linecap: square"/>
    <g clip-path="url(#p26430158c7)">
     <use xlink:href="#md1f93f1f10" x="411.290455" y="45.12885" style="fill: #ffffff; stroke: #0000ff"/>
     <use xlink:href="#md1f93f1f10" x="429.931061" y="76.880288" style="fill: #ffffff; stroke: #0000ff"/>
     <use xlink:href="#md1f93f1f10" x="448.571667" y="136.800771" style="fill: #ffffff; stroke: #0000ff"/>
     <use xlink:href="#md1f93f1f10" x="467.212273" y="137.666723" style="fill: #ffffff; stroke: #0000ff"/>
     <use xlink:href="#md1f93f1f10" x="485.852879" y="147.33938" style="fill: #ffffff; stroke: #0000ff"/>
     <use xlink:href="#md1f93f1f10" x="504.493485" y="161.912277" style="fill: #ffffff; stroke: #0000ff"/>
     <use xlink:href="#md1f93f1f10" x="523.134091" y="174.409536" style="fill: #ffffff; stroke: #0000ff"/>
     <use xlink:href="#md1f93f1f10" x="541.774697" y="180.693562" style="fill: #ffffff; stroke: #0000ff"/>
     <use xlink:href="#md1f93f1f10" x="560.415303" y="189.597987" style="fill: #ffffff; stroke: #0000ff"/>
     <use xlink:href="#md1f93f1f10" x="579.055909" y="189.633613" style="fill: #ffffff; stroke: #0000ff"/>
     <use xlink:href="#md1f93f1f10" x="597.696515" y="200.573238" style="fill: #ffffff; stroke: #0000ff"/>
     <use xlink:href="#md1f93f1f10" x="616.337121" y="200.804085" style="fill: #ffffff; stroke: #0000ff"/>
     <use xlink:href="#md1f93f1f10" x="634.977727" y="211.517905" style="fill: #ffffff; stroke: #0000ff"/>
     <use xlink:href="#md1f93f1f10" x="653.618333" y="213.338256" style="fill: #ffffff; stroke: #0000ff"/>
     <use xlink:href="#md1f93f1f10" x="672.258939" y="216.926181" style="fill: #ffffff; stroke: #0000ff"/>
     <use xlink:href="#md1f93f1f10" x="690.899545" y="217.143064" style="fill: #ffffff; stroke: #0000ff"/>
    </g>
   </g>
   <g id="line2d_34">
    <path d="M 411.290455 137.074282 
L 429.931061 137.830646 
L 448.571667 150.527147 
L 467.212273 158.104626 
L 485.852879 165.77221 
L 504.493485 153.262174 
L 523.134091 167.119241 
L 541.774697 165.923352 
L 560.415303 175.925612 
L 579.055909 176.559184 
L 597.696515 172.736832 
L 616.337121 177.784005 
L 634.977727 189.202173 
L 653.618333 184.877676 
L 672.258939 191.516908 
L 690.899545 196.149647 
" clip-path="url(#p26430158c7)" style="fill: none; stroke: #008000; stroke-width: 1.5; stroke-linecap: square"/>
    <g clip-path="url(#p26430158c7)">
     <use xlink:href="#m1aaf8fbed3" x="411.290455" y="137.074282" style="fill: #ffffff; stroke: #008000; stroke-linejoin: miter"/>
     <use xlink:href="#m1aaf8fbed3" x="429.931061" y="137.830646" style="fill: #ffffff; stroke: #008000; stroke-linejoin: miter"/>
     <use xlink:href="#m1aaf8fbed3" x="448.571667" y="150.527147" style="fill: #ffffff; stroke: #008000; stroke-linejoin: miter"/>
     <use xlink:href="#m1aaf8fbed3" x="467.212273" y="158.104626" style="fill: #ffffff; stroke: #008000; stroke-linejoin: miter"/>
     <use xlink:href="#m1aaf8fbed3" x="485.852879" y="165.77221" style="fill: #ffffff; stroke: #008000; stroke-linejoin: miter"/>
     <use xlink:href="#m1aaf8fbed3" x="504.493485" y="153.262174" style="fill: #ffffff; stroke: #008000; stroke-linejoin: miter"/>
     <use xlink:href="#m1aaf8fbed3" x="523.134091" y="167.119241" style="fill: #ffffff; stroke: #008000; stroke-linejoin: miter"/>
     <use xlink:href="#m1aaf8fbed3" x="541.774697" y="165.923352" style="fill: #ffffff; stroke: #008000; stroke-linejoin: miter"/>
     <use xlink:href="#m1aaf8fbed3" x="560.415303" y="175.925612" style="fill: #ffffff; stroke: #008000; stroke-linejoin: miter"/>
     <use xlink:href="#m1aaf8fbed3" x="579.055909" y="176.559184" style="fill: #ffffff; stroke: #008000; stroke-linejoin: miter"/>
     <use xlink:href="#m1aaf8fbed3" x="597.696515" y="172.736832" style="fill: #ffffff; stroke: #008000; stroke-linejoin: miter"/>
     <use xlink:href="#m1aaf8fbed3" x="616.337121" y="177.784005" style="fill: #ffffff; stroke: #008000; stroke-linejoin: miter"/>
     <use xlink:href="#m1aaf8fbed3" x="634.977727" y="189.202173" style="fill: #ffffff; stroke: #008000; stroke-linejoin: miter"/>
     <use xlink:href="#m1aaf8fbed3" x="653.618333" y="184.877676" style="fill: #ffffff; stroke: #008000; stroke-linejoin: miter"/>
     <use xlink:href="#m1aaf8fbed3" x="672.258939" y="191.516908" style="fill: #ffffff; stroke: #008000; stroke-linejoin: miter"/>
     <use xlink:href="#m1aaf8fbed3" x="690.899545" y="196.149647" style="fill: #ffffff; stroke: #008000; stroke-linejoin: miter"/>
    </g>
   </g>
   <g id="line2d_35">
    <path d="M 411.290455 37.797797 
L 429.931061 70.151328 
L 448.571667 140.979553 
L 467.212273 138.040082 
L 485.852879 147.694433 
L 504.493485 162.195416 
L 523.134091 176.207125 
L 541.774697 182.799634 
L 560.415303 193.538839 
L 579.055909 193.113608 
L 597.696515 199.332701 
L 616.337121 200.372086 
L 634.977727 212.461126 
L 653.618333 212.400511 
L 672.258939 216.075444 
L 690.899545 217.206031 
" clip-path="url(#p26430158c7)" style="fill: none; stroke: #ff0000; stroke-width: 1.5; stroke-linecap: square"/>
    <g clip-path="url(#p26430158c7)">
     <use xlink:href="#m44f4b860a1" x="411.290455" y="37.797797" style="fill: #ffffff; stroke: #ff0000; stroke-linejoin: miter"/>
     <use xlink:href="#m44f4b860a1" x="429.931061" y="70.151328" style="fill: #ffffff; stroke: #ff0000; stroke-linejoin: miter"/>
     <use xlink:href="#m44f4b860a1" x="448.571667" y="140.979553" style="fill: #ffffff; stroke: #ff0000; stroke-linejoin: miter"/>
     <use xlink:href="#m44f4b860a1" x="467.212273" y="138.040082" style="fill: #ffffff; stroke: #ff0000; stroke-linejoin: miter"/>
     <use xlink:href="#m44f4b860a1" x="485.852879" y="147.694433" style="fill: #ffffff; stroke: #ff0000; stroke-linejoin: miter"/>
     <use xlink:href="#m44f4b860a1" x="504.493485" y="162.195416" style="fill: #ffffff; stroke: #ff0000; stroke-linejoin: miter"/>
     <use xlink:href="#m44f4b860a1" x="523.134091" y="176.207125" style="fill: #ffffff; stroke: #ff0000; stroke-linejoin: miter"/>
     <use xlink:href="#m44f4b860a1" x="541.774697" y="182.799634" style="fill: #ffffff; stroke: #ff0000; stroke-linejoin: miter"/>
     <use xlink:href="#m44f4b860a1" x="560.415303" y="193.538839" style="fill: #ffffff; stroke: #ff0000; stroke-linejoin: miter"/>
     <use xlink:href="#m44f4b860a1" x="579.055909" y="193.113608" style="fill: #ffffff; stroke: #ff0000; stroke-linejoin: miter"/>
     <use xlink:href="#m44f4b860a1" x="597.696515" y="199.332701" style="fill: #ffffff; stroke: #ff0000; stroke-linejoin: miter"/>
     <use xlink:href="#m44f4b860a1" x="616.337121" y="200.372086" style="fill: #ffffff; stroke: #ff0000; stroke-linejoin: miter"/>
     <use xlink:href="#m44f4b860a1" x="634.977727" y="212.461126" style="fill: #ffffff; stroke: #ff0000; stroke-linejoin: miter"/>
     <use xlink:href="#m44f4b860a1" x="653.618333" y="212.400511" style="fill: #ffffff; stroke: #ff0000; stroke-linejoin: miter"/>
     <use xlink:href="#m44f4b860a1" x="672.258939" y="216.075444" style="fill: #ffffff; stroke: #ff0000; stroke-linejoin: miter"/>
     <use xlink:href="#m44f4b860a1" x="690.899545" y="217.206031" style="fill: #ffffff; stroke: #ff0000; stroke-linejoin: miter"/>
    </g>
   </g>
   <g id="patch_9">
    <path d="M 397.31 233.88 
L 397.31 15.12 
" style="fill: none; stroke: #000000; stroke-width: 0.8; stroke-linejoin: miter; stroke-linecap: square"/>
   </g>
   <g id="patch_10">
    <path d="M 704.88 233.88 
L 704.88 15.12 
" style="fill: none; stroke: #000000; stroke-width: 0.8; stroke-linejoin: miter; stroke-linecap: square"/>
   </g>
   <g id="patch_11">
    <path d="M 397.31 233.88 
L 704.88 233.88 
" style="fill: none; stroke: #000000; stroke-width: 0.8; stroke-linejoin: miter; stroke-linecap: square"/>
   </g>
   <g id="patch_12">
    <path d="M 397.31 15.12 
L 704.88 15.12 
" style="fill: none; stroke: #000000; stroke-width: 0.8; stroke-linejoin: miter; stroke-linecap: square"/>
   </g>
  </g>
 </g>
 <defs>
  <clipPath id="p416ee26f00">
   <rect x="71.12" y="15.12" width="307.57" height="218.76"/>
  </clipPath>
  <clipPath id="p26430158c7">
   <rect x="397.31" y="15.12" width="307.57" height="218.76"/>
  </clipPath>
 </defs>
</svg>
